<svg width="603" height="228" viewBox="0 0 603 228" fill="none" xmlns="http://www.w3.org/2000/svg">
    <g clip-path="url(#clip0)" filter="url(#filter0_d)">
    <rect width="595" height="220" transform="translate(4)" fill="#FCFCFC"/>
    <g clip-path="url(#clip1)">
    <path d="M396.796 211.614C392.251 207.796 389.491 201.765 390.215 195.893C390.939 190.022 395.423 184.624 401.239 183.377C407.056 182.13 413.687 185.582 415.453 191.23C416.426 180.34 417.546 168.993 423.37 159.719C428.644 151.321 437.778 145.312 447.677 144.237C457.576 143.162 467.999 147.222 474.172 154.99C480.346 162.758 481.858 174.05 477.534 182.968C474.349 189.538 468.48 194.427 462.331 198.404C442.463 211.149 418.633 216.331 395.227 212.999L396.796 211.614Z" fill="#F2F2F2"/>
    <path d="M464.383 147.447C456.215 154.061 448.722 161.459 442.012 169.532C431.51 182.124 423.012 196.242 416.814 211.394C416.36 212.5 418.166 212.981 418.614 211.888C428.756 187.263 444.946 165.558 465.704 148.76C466.636 148.005 465.308 146.699 464.383 147.447Z" fill="white"/>
    <path d="M239.28 210.577C245.523 205.333 249.314 197.049 248.32 188.984C247.326 180.919 241.167 173.506 233.178 171.793C225.189 170.081 216.082 174.821 213.655 182.58C212.32 167.622 210.781 152.037 202.781 139.298C195.538 127.764 182.992 119.511 169.396 118.035C155.799 116.558 141.484 122.135 133.004 132.803C124.525 143.472 122.448 158.983 128.387 171.231C132.762 180.255 140.823 186.97 149.268 192.433C176.211 209.862 209.634 217.131 241.436 212.478" fill="#F2F2F2"/>
    <path d="M146.45 122.444C157.668 131.528 167.961 141.688 177.177 152.778C186.395 163.855 194.51 175.796 201.409 188.431C205.265 195.519 208.73 202.811 211.786 210.275C212.409 211.793 209.93 212.454 209.313 210.953C203.899 197.795 197.201 185.196 189.315 173.337C181.468 161.521 172.485 150.489 162.495 140.398C156.844 134.693 150.882 129.301 144.636 124.246C143.356 123.21 145.18 121.416 146.45 122.444L146.45 122.444Z" fill="white"/>
    <path d="M379.825 213.538H230.888V61.618C230.888 29.2959 257.338 3 289.85 3H320.862C353.374 3 379.825 29.2959 379.825 61.618V213.538Z" fill="#F2F2F2"/>
    <path d="M348.813 213.538H230.888V61.618C230.855 49.2329 234.8 37.1608 242.148 27.1594C242.419 26.7924 242.689 26.4301 242.968 26.0718C246.522 21.4375 250.752 17.3562 255.517 13.9626C255.786 13.7678 256.056 13.5765 256.331 13.3852C260.318 10.6418 264.632 8.39924 269.173 6.70839C269.442 6.60677 269.717 6.50496 269.992 6.4073C274.099 4.9502 278.356 3.95209 282.685 3.43141C282.954 3.39496 283.229 3.36644 283.505 3.33791C287.724 2.88947 291.978 2.88947 296.197 3.33791C296.472 3.36644 296.748 3.39495 297.019 3.4318C301.347 3.95252 305.603 4.9505 309.709 6.40732C309.984 6.50498 310.259 6.60679 310.529 6.7086C315.014 8.37812 319.277 10.5873 323.222 13.2867C323.496 13.4739 323.77 13.6653 324.041 13.8566C326.712 15.7521 329.221 17.8639 331.542 20.1703C333.403 22.0203 335.138 23.9923 336.734 26.073C337.012 26.4301 337.282 26.7924 337.552 27.1588C344.901 37.1604 348.846 49.2327 348.813 61.618V213.538Z" fill="#CCCCCC"/>
    <path d="M339.224 145.59C342.83 145.59 345.753 142.684 345.753 139.099C345.753 135.515 342.83 132.609 339.224 132.609C335.618 132.609 332.695 135.515 332.695 139.099C332.695 142.684 335.618 145.59 339.224 145.59Z" fill="#6C63FF"/>
    <path d="M367.624 208.988H362.621L360.241 189.805L367.625 189.805L367.624 208.988Z" fill="#FFB8B8"/>
    <path d="M359.048 207.567H368.695V213.606H352.973C352.973 212.813 353.13 212.027 353.436 211.295C353.741 210.562 354.188 209.896 354.752 209.335C355.316 208.775 355.986 208.33 356.723 208.026C357.46 207.723 358.25 207.567 359.048 207.567V207.567Z" fill="#2F2E41"/>
    <path d="M392.515 208.988H387.512L385.132 189.805L392.515 189.805L392.515 208.988Z" fill="#FFB8B8"/>
    <path d="M383.939 207.567H393.586V213.606H377.864C377.864 212.813 378.021 212.027 378.326 211.295C378.632 210.562 379.079 209.896 379.643 209.335C380.207 208.775 380.877 208.33 381.614 208.026C382.351 207.723 383.141 207.567 383.939 207.567V207.567Z" fill="#2F2E41"/>
    <path d="M389.959 149.141C389.403 148.824 388.924 148.39 388.555 147.869C388.186 147.348 387.937 146.753 387.824 146.126C387.712 145.498 387.739 144.854 387.904 144.239C388.069 143.623 388.367 143.051 388.779 142.562L383.51 93.2708L393.033 93.7033L395.223 142.188C396.002 142.93 396.481 143.93 396.569 144.999C396.656 146.068 396.346 147.132 395.697 147.989C395.048 148.846 394.106 149.436 393.048 149.649C391.991 149.861 390.892 149.68 389.959 149.141V149.141Z" fill="#FFB8B8"/>
    <path d="M389.895 137.93H359.681L359.717 137.697C359.771 137.347 365.102 102.632 361.17 91.2745C360.776 90.1584 360.81 88.9367 361.268 87.8445C361.725 86.7523 362.572 85.8668 363.647 85.3585H363.647C369.266 82.7277 380.054 79.4881 389.158 87.35C390.498 88.5259 391.544 89.9956 392.214 91.6428C392.884 93.2901 393.159 95.0696 393.018 96.8409L389.895 137.93Z" fill="#6C63FF"/>
    <path d="M342.528 140.385C342.168 139.858 341.929 139.259 341.827 138.63C341.726 138.001 341.764 137.357 341.939 136.744C342.115 136.132 342.423 135.565 342.843 135.083C343.263 134.602 343.784 134.218 344.369 133.958L361.374 87.3613L369.742 91.9012L350.326 136.431C350.699 137.437 350.688 138.545 350.296 139.544C349.903 140.543 349.155 141.364 348.194 141.851C347.233 142.338 346.125 142.458 345.081 142.188C344.037 141.918 343.128 141.276 342.528 140.385V140.385Z" fill="#FFB8B8"/>
    <path d="M365.484 107.762L351.881 105.019L358.257 89.9971C358.639 88.5422 359.585 87.2971 360.889 86.535C362.192 85.7729 363.747 85.5559 365.211 85.9318C366.676 86.3076 367.93 87.2455 368.7 88.5398C369.47 89.834 369.692 91.379 369.317 92.8357L365.484 107.762Z" fill="#6C63FF"/>
    <path d="M382.906 112.856L382.088 94.2197C381.468 90.7163 383.485 87.4045 386.588 86.8631C389.691 86.3237 392.721 88.7536 393.344 92.2827L396.418 109.697L382.906 112.856Z" fill="#6C63FF"/>
    <path d="M388.89 135.699C393.752 154.107 394.282 177.511 392.97 203.039L386.442 202.228L374.608 153.548L368.08 203.039L360.735 202.633C358.54 175.848 356.404 152.853 359.919 137.728L388.89 135.699Z" fill="#2F2E41"/>
    <path d="M374.767 78.7303C380.302 78.7303 384.789 74.2695 384.789 68.7668C384.789 63.2642 380.302 58.8034 374.767 58.8034C369.232 58.8034 364.745 63.2642 364.745 68.7668C364.745 74.2695 369.232 78.7303 374.767 78.7303Z" fill="#FFB8B8"/>
    <path d="M381.371 76.4669C379.501 78.4468 376.029 77.3839 375.785 74.679C375.766 74.469 375.768 74.2577 375.79 74.048C375.915 72.8498 376.612 71.762 376.445 70.497C376.407 70.1821 376.289 69.8821 376.102 69.6252C374.612 67.6418 371.115 70.5124 369.709 68.7168C368.846 67.6159 369.86 65.8824 369.198 64.6519C368.325 63.0278 365.739 63.829 364.117 62.9395C362.312 61.9499 362.42 59.1972 363.608 57.5229C365.057 55.481 367.597 54.3914 370.105 54.2343C372.614 54.0773 375.105 54.7515 377.447 55.6588C380.108 56.6897 382.746 58.1145 384.384 60.4405C386.375 63.2693 386.567 67.0723 385.571 70.3799C384.965 72.392 382.898 74.85 381.371 76.4669Z" fill="#2F2E41"/>
    <path d="M467.751 213.799H166.493C166.365 213.799 166.241 213.748 166.151 213.657C166.06 213.567 166.009 213.444 166.009 213.316C166.009 213.188 166.06 213.066 166.151 212.975C166.241 212.885 166.365 212.833 166.493 212.833H467.751C467.88 212.833 468.003 212.885 468.094 212.975C468.185 213.066 468.236 213.188 468.236 213.316C468.236 213.444 468.185 213.567 468.094 213.657C468.003 213.748 467.88 213.799 467.751 213.799V213.799Z" fill="#3F3D56"/>
    <path d="M316.374 169.524H263.328C262.629 169.528 261.957 169.256 261.46 168.768C260.963 168.28 260.681 167.616 260.675 166.922V49.211C260.681 48.5165 260.963 47.8525 261.46 47.3646C261.957 46.8767 262.629 46.6048 263.328 46.6086H316.374C317.072 46.6048 317.744 46.8767 318.241 47.3646C318.738 47.8525 319.02 48.5165 319.026 49.211V166.922C319.02 167.616 318.738 168.28 318.241 168.768C317.744 169.256 317.072 169.528 316.374 169.524V169.524Z" fill="white"/>
    <path d="M319.026 84.6959H260.675V85.5073H319.026V84.6959Z" fill="#CCCCCC"/>
    <path d="M319.23 130.986H260.879V131.797H319.23V130.986Z" fill="#CCCCCC"/>
    <path d="M279.853 46.6086H279.037V169.93H279.853V46.6086Z" fill="#CCCCCC"/>
    <path d="M300.256 46.6086H299.44V169.93H300.256V46.6086Z" fill="#CCCCCC"/>
    </g>
    <g filter="url(#filter1_i)">
    <path d="M265.29 103.254H276.03V108H259.12V82.4062H265.29V103.254ZM280.852 98.3145C280.852 96.416 281.221 94.7285 281.959 93.252C282.698 91.7637 283.758 90.6211 285.141 89.8242C286.524 89.0273 288.147 88.6289 290.01 88.6289C292.858 88.6289 295.102 89.5137 296.742 91.2832C298.383 93.041 299.203 95.4375 299.203 98.4727V98.6836C299.203 101.648 298.377 104.004 296.725 105.75C295.084 107.484 292.858 108.352 290.045 108.352C287.338 108.352 285.164 107.543 283.524 105.926C281.883 104.297 280.998 102.094 280.869 99.3164L280.852 98.3145ZM286.776 98.6836C286.776 100.441 287.051 101.73 287.602 102.551C288.153 103.371 288.967 103.781 290.045 103.781C292.155 103.781 293.233 102.158 293.28 98.9121V98.3145C293.28 94.9043 292.19 93.1992 290.01 93.1992C288.03 93.1992 286.957 94.6699 286.793 97.6113L286.776 98.6836ZM304.359 98.3496C304.359 96.4277 304.676 94.7285 305.309 93.252C305.941 91.7754 306.85 90.6387 308.033 89.8418C309.217 89.0332 310.594 88.6289 312.164 88.6289C314.145 88.6289 315.691 89.2969 316.805 90.6328L317.016 88.9805H322.395V107.279C322.395 108.955 322.002 110.408 321.217 111.639C320.443 112.881 319.318 113.83 317.842 114.486C316.365 115.154 314.654 115.488 312.709 115.488C311.314 115.488 309.961 115.225 308.648 114.697C307.348 114.17 306.352 113.484 305.66 112.641L308.139 109.16C309.24 110.461 310.693 111.111 312.498 111.111C315.123 111.111 316.436 109.764 316.436 107.068V106.471C315.299 107.725 313.863 108.352 312.129 108.352C309.809 108.352 307.934 107.467 306.504 105.697C305.074 103.916 304.359 101.537 304.359 98.5605V98.3496ZM310.301 98.7188C310.301 100.277 310.594 101.514 311.18 102.428C311.766 103.33 312.586 103.781 313.641 103.781C314.918 103.781 315.85 103.354 316.436 102.498V94.5C315.861 93.6328 314.941 93.1992 313.676 93.1992C312.621 93.1992 311.795 93.6738 311.197 94.623C310.6 95.5605 310.301 96.9258 310.301 98.7188ZM335.25 108H329.308V88.9805H335.25V108ZM328.957 84.0762C328.957 83.2324 329.261 82.541 329.871 82.002C330.48 81.4629 331.271 81.1934 332.244 81.1934C333.217 81.1934 334.008 81.4629 334.617 82.002C335.226 82.541 335.531 83.2324 335.531 84.0762C335.531 84.9199 335.226 85.6113 334.617 86.1504C334.008 86.6895 333.217 86.959 332.244 86.959C331.271 86.959 330.48 86.6895 329.871 86.1504C329.261 85.6113 328.957 84.9199 328.957 84.0762ZM347.595 88.9805L347.789 91.2129C349.101 89.4902 350.912 88.6289 353.22 88.6289C355.201 88.6289 356.677 89.2207 357.65 90.4043C358.634 91.5879 359.144 93.3691 359.179 95.748V108H353.238V95.9941C353.238 95.0332 353.044 94.3301 352.658 93.8848C352.271 93.4277 351.568 93.1992 350.548 93.1992C349.388 93.1992 348.527 93.6562 347.964 94.5703V108H342.041V88.9805H347.595Z" fill="#FA8231"/>
    </g>
    <path d="M265.29 103.254H264.79V103.754H265.29V103.254ZM276.03 103.254H276.53V102.754H276.03V103.254ZM276.03 108V108.5H276.53V108H276.03ZM259.12 108H258.62V108.5H259.12V108ZM259.12 82.4062V81.9062H258.62V82.4062H259.12ZM265.29 82.4062H265.79V81.9062H265.29V82.4062ZM265.29 103.754H276.03V102.754H265.29V103.754ZM275.53 103.254V108H276.53V103.254H275.53ZM276.03 107.5H259.12V108.5H276.03V107.5ZM259.62 108V82.4062H258.62V108H259.62ZM259.12 82.9062H265.29V81.9062H259.12V82.9062ZM264.79 82.4062V103.254H265.79V82.4062H264.79ZM280.852 98.3145H280.352L280.352 98.3232L280.852 98.3145ZM281.959 93.252L282.406 93.4756L282.407 93.4741L281.959 93.252ZM296.742 91.2832L296.376 91.6232L296.377 91.6244L296.742 91.2832ZM296.725 105.75L296.362 105.406L296.362 105.406L296.725 105.75ZM283.524 105.926L283.171 106.281L283.173 106.282L283.524 105.926ZM280.869 99.3164L280.369 99.3252L280.37 99.3324L280.37 99.3396L280.869 99.3164ZM286.776 98.6836L286.276 98.6754V98.6836H286.776ZM293.28 98.9121L293.78 98.9193V98.9121H293.28ZM286.793 97.6113L286.294 97.5835L286.293 97.5933L286.293 97.6031L286.793 97.6113ZM281.352 98.3145C281.352 96.482 281.708 94.873 282.406 93.4756L281.512 93.0283C280.734 94.5841 280.352 96.3501 280.352 98.3145H281.352ZM282.407 93.4741C283.103 92.0704 284.097 91.003 285.391 90.2574L284.891 89.391C283.419 90.2392 282.292 91.4569 281.511 93.0298L282.407 93.4741ZM285.391 90.2574C286.686 89.5112 288.22 89.1289 290.01 89.1289V88.1289C288.074 88.1289 286.362 88.5435 284.891 89.391L285.391 90.2574ZM290.01 89.1289C292.746 89.1289 294.847 89.9741 296.376 91.6231L297.109 90.9433C295.357 89.0532 292.97 88.1289 290.01 88.1289V89.1289ZM296.377 91.6244C297.91 93.2671 298.703 95.5295 298.703 98.4727H299.703C299.703 95.3455 298.856 92.815 297.108 90.942L296.377 91.6244ZM298.703 98.4727V98.6836H299.703V98.4727H298.703ZM298.703 98.6836C298.703 101.552 297.907 103.774 296.362 105.406L297.088 106.094C298.848 104.234 299.703 101.745 299.703 98.6836H298.703ZM296.362 105.406C294.832 107.023 292.747 107.852 290.045 107.852V108.852C292.969 108.852 295.336 107.946 297.088 106.094L296.362 105.406ZM290.045 107.852C287.445 107.852 285.405 107.079 283.875 105.57L283.173 106.282C284.923 108.007 287.231 108.852 290.045 108.852V107.852ZM283.876 105.571C282.342 104.047 281.493 101.972 281.369 99.2932L280.37 99.3396C280.503 102.215 281.425 104.546 283.171 106.281L283.876 105.571ZM281.369 99.3076L281.352 98.3057L280.352 98.3232L280.369 99.3252L281.369 99.3076ZM286.276 98.6836C286.276 100.473 286.552 101.884 287.187 102.829L288.017 102.272C287.55 101.577 287.276 100.41 287.276 98.6836H286.276ZM287.187 102.829C287.84 103.802 288.818 104.281 290.045 104.281V103.281C289.116 103.281 288.465 102.94 288.017 102.272L287.187 102.829ZM290.045 104.281C291.251 104.281 292.212 103.805 292.852 102.841C293.469 101.912 293.755 100.581 293.779 98.9193L292.78 98.9049C292.757 100.489 292.481 101.593 292.019 102.287C291.582 102.946 290.949 103.281 290.045 103.281V104.281ZM293.78 98.9121V98.3145H292.78V98.9121H293.78ZM293.78 98.3145C293.78 96.5722 293.504 95.1797 292.883 94.2087C292.238 93.1997 291.255 92.6992 290.01 92.6992V93.6992C290.945 93.6992 291.596 94.0513 292.041 94.7473C292.51 95.4815 292.78 96.6466 292.78 98.3145H293.78ZM290.01 92.6992C288.876 92.6992 287.956 93.1305 287.316 94.0077C286.698 94.8554 286.378 96.0706 286.294 97.5835L287.292 97.6392C287.372 96.2107 287.67 95.2198 288.124 94.5968C288.557 94.0032 289.163 93.6992 290.01 93.6992V92.6992ZM286.293 97.6031L286.276 98.6754L287.276 98.6918L287.293 97.6195L286.293 97.6031ZM308.033 89.8418L308.312 90.2566L308.315 90.2547L308.033 89.8418ZM316.805 90.6328L316.421 90.9529L317.155 91.8346L317.301 90.6961L316.805 90.6328ZM317.016 88.9805V88.4805H316.575L316.52 88.9172L317.016 88.9805ZM322.395 88.9805H322.895V88.4805H322.395V88.9805ZM321.217 111.639L320.795 111.37L320.792 111.374L321.217 111.639ZM317.842 114.486L317.639 114.029L317.636 114.031L317.842 114.486ZM308.648 114.697L308.461 115.161L308.462 115.161L308.648 114.697ZM305.66 112.641L305.253 112.351L305.031 112.662L305.273 112.958L305.66 112.641ZM308.139 109.16L308.52 108.837L308.105 108.346L307.731 108.87L308.139 109.16ZM316.436 106.471H316.936V105.175L316.065 106.135L316.436 106.471ZM306.504 105.697L306.114 106.01L306.115 106.011L306.504 105.697ZM311.18 102.428L310.759 102.698L310.76 102.7L311.18 102.428ZM316.436 102.498L316.848 102.781L316.936 102.653V102.498H316.436ZM316.436 94.5H316.936V94.3495L316.852 94.224L316.436 94.5ZM311.197 94.623L311.619 94.8918L311.62 94.8895L311.197 94.623ZM304.859 98.3496C304.859 96.4824 305.167 94.8523 305.768 93.4489L304.849 93.055C304.185 94.6048 303.859 96.3731 303.859 98.3496H304.859ZM305.768 93.4489C306.368 92.0493 307.218 90.9931 308.312 90.2566L307.754 89.427C306.481 90.2842 305.515 91.5015 304.849 93.055L305.768 93.4489ZM308.315 90.2547C309.408 89.5082 310.684 89.1289 312.164 89.1289V88.1289C310.503 88.1289 309.026 88.5582 307.751 89.4289L308.315 90.2547ZM312.164 89.1289C314.019 89.1289 315.416 89.7476 316.421 90.9529L317.189 90.3127C315.967 88.8462 314.27 88.1289 312.164 88.1289V89.1289ZM317.301 90.6961L317.512 89.0438L316.52 88.9172L316.309 90.5695L317.301 90.6961ZM317.016 89.4805H322.395V88.4805H317.016V89.4805ZM321.895 88.9805V107.279H322.895V88.9805H321.895ZM321.895 107.279C321.895 108.874 321.522 110.231 320.795 111.37L321.638 111.908C322.482 110.585 322.895 109.036 322.895 107.279H321.895ZM320.792 111.374C320.077 112.523 319.034 113.409 317.639 114.029L318.045 114.943C319.603 114.251 320.809 113.239 321.641 111.903L320.792 111.374ZM317.636 114.031C316.236 114.664 314.597 114.988 312.709 114.988V115.988C314.711 115.988 316.495 115.644 318.048 114.942L317.636 114.031ZM312.709 114.988C311.379 114.988 310.089 114.737 308.835 114.233L308.462 115.161C309.833 115.712 311.25 115.988 312.709 115.988V114.988ZM308.836 114.234C307.591 113.729 306.672 113.087 306.047 112.324L305.273 112.958C306.031 113.882 307.104 114.611 308.461 115.161L308.836 114.234ZM306.067 112.931L308.546 109.45L307.731 108.87L305.253 112.351L306.067 112.931ZM307.757 109.483C308.96 110.904 310.556 111.611 312.498 111.611V110.611C310.831 110.611 309.521 110.018 308.52 108.837L307.757 109.483ZM312.498 111.611C313.891 111.611 315.027 111.253 315.809 110.449C316.59 109.648 316.936 108.49 316.936 107.068H315.936C315.936 108.342 315.625 109.205 315.093 109.752C314.563 110.296 313.73 110.611 312.498 110.611V111.611ZM316.936 107.068V106.471H315.936V107.068H316.936ZM316.065 106.135C315.026 107.281 313.726 107.852 312.129 107.852V108.852C314 108.852 315.572 108.168 316.806 106.807L316.065 106.135ZM312.129 107.852C309.956 107.852 308.225 107.032 306.893 105.383L306.115 106.011C307.642 107.901 309.661 108.852 312.129 108.852V107.852ZM306.894 105.384C305.555 103.716 304.859 101.458 304.859 98.5605H303.859C303.859 101.616 304.594 104.116 306.114 106.01L306.894 105.384ZM304.859 98.5605V98.3496H303.859V98.5605H304.859ZM309.801 98.7188C309.801 100.333 310.103 101.675 310.759 102.698L311.601 102.158C311.084 101.352 310.801 100.221 310.801 98.7188H309.801ZM310.76 102.7C311.436 103.741 312.413 104.281 313.641 104.281V103.281C312.759 103.281 312.095 102.919 311.599 102.155L310.76 102.7ZM313.641 104.281C315.04 104.281 316.147 103.804 316.848 102.781L316.023 102.216C315.552 102.903 314.796 103.281 313.641 103.281V104.281ZM316.936 102.498V94.5H315.936V102.498H316.936ZM316.852 94.224C316.165 93.1854 315.067 92.6992 313.676 92.6992V93.6992C314.815 93.6992 315.558 94.0802 316.019 94.776L316.852 94.224ZM313.676 92.6992C312.437 92.6992 311.456 93.2732 310.774 94.3566L311.62 94.8895C312.134 94.0745 312.806 93.6992 313.676 93.6992V92.6992ZM310.776 94.3543C310.104 95.4073 309.801 96.8835 309.801 98.7188H310.801C310.801 96.9681 311.095 95.7138 311.619 94.8918L310.776 94.3543ZM335.25 108V108.5H335.75V108H335.25ZM329.308 108H328.808V108.5H329.308V108ZM329.308 88.9805V88.4805H328.808V88.9805H329.308ZM335.25 88.9805H335.75V88.4805H335.25V88.9805ZM335.25 107.5H329.308V108.5H335.25V107.5ZM329.808 108V88.9805H328.808V108H329.808ZM329.308 89.4805H335.25V88.4805H329.308V89.4805ZM334.75 88.9805V108H335.75V88.9805H334.75ZM329.457 84.0762C329.457 83.3696 329.705 82.8167 330.202 82.3765L329.54 81.6275C328.818 82.2654 328.457 83.0952 328.457 84.0762H329.457ZM330.202 82.3765C330.703 81.9335 331.368 81.6934 332.244 81.6934V80.6934C331.174 80.6934 330.258 80.9923 329.54 81.6275L330.202 82.3765ZM332.244 81.6934C333.12 81.6934 333.785 81.9335 334.286 82.3765L334.948 81.6275C334.23 80.9923 333.314 80.6934 332.244 80.6934V81.6934ZM334.286 82.3765C334.783 82.8167 335.031 83.3696 335.031 84.0762H336.031C336.031 83.0952 335.669 82.2654 334.948 81.6275L334.286 82.3765ZM335.031 84.0762C335.031 84.7827 334.783 85.3357 334.286 85.7759L334.948 86.5249C335.669 85.887 336.031 85.0571 336.031 84.0762H335.031ZM334.286 85.7759C333.785 86.2189 333.12 86.459 332.244 86.459V87.459C333.314 87.459 334.23 87.16 334.948 86.5249L334.286 85.7759ZM332.244 86.459C331.368 86.459 330.703 86.2189 330.202 85.7759L329.54 86.5249C330.258 87.16 331.174 87.459 332.244 87.459V86.459ZM330.202 85.7759C329.705 85.3357 329.457 84.7827 329.457 84.0762H328.457C328.457 85.0571 328.818 85.887 329.54 86.5249L330.202 85.7759ZM347.595 88.9805L348.093 88.9373L348.054 88.4805H347.595V88.9805ZM347.789 91.2129L347.29 91.256L347.402 92.5452L348.186 91.5159L347.789 91.2129ZM357.65 90.4043L357.264 90.7218L357.265 90.724L357.65 90.4043ZM359.179 95.748H359.679L359.679 95.7407L359.179 95.748ZM359.179 108V108.5H359.679V108H359.179ZM353.238 108H352.738V108.5H353.238V108ZM352.658 93.8848L352.276 94.2078L352.28 94.2126L352.658 93.8848ZM347.964 94.5703L347.539 94.3083L347.464 94.4288V94.5703H347.964ZM347.964 108V108.5H348.464V108H347.964ZM342.041 108H341.541V108.5H342.041V108ZM342.041 88.9805V88.4805H341.541V88.9805H342.041ZM347.097 89.0236L347.29 91.256L348.287 91.1697L348.093 88.9373L347.097 89.0236ZM348.186 91.5159C349.397 89.9266 351.056 89.1289 353.22 89.1289V88.1289C350.768 88.1289 348.805 89.0539 347.391 90.9099L348.186 91.5159ZM353.22 89.1289C355.098 89.1289 356.412 89.6858 357.264 90.7217L358.036 90.0868C356.942 88.7556 355.303 88.1289 353.22 88.1289V89.1289ZM357.265 90.724C358.146 91.7831 358.645 93.4317 358.679 95.7554L359.679 95.7407C359.643 93.3066 359.122 91.3927 358.034 90.0846L357.265 90.724ZM358.679 95.748V108H359.679V95.748H358.679ZM359.179 107.5H353.238V108.5H359.179V107.5ZM353.738 108V95.9941H352.738V108H353.738ZM353.738 95.9941C353.738 94.9837 353.538 94.1353 353.035 93.5569L352.28 94.2126C352.551 94.5248 352.738 95.0827 352.738 95.9941H353.738ZM353.039 93.5618C352.508 92.934 351.616 92.6992 350.548 92.6992V93.6992C351.52 93.6992 352.034 93.9215 352.276 94.2077L353.039 93.5618ZM350.548 92.6992C349.231 92.6992 348.201 93.2325 347.539 94.3083L348.39 94.8324C348.853 94.08 349.545 93.6992 350.548 93.6992V92.6992ZM347.464 94.5703V108H348.464V94.5703H347.464ZM347.964 107.5H342.041V108.5H347.964V107.5ZM342.541 108V88.9805H341.541V108H342.541ZM342.041 89.4805H347.595V88.4805H342.041V89.4805Z" fill="#333333" fill-opacity="0.83"/>
    <g filter="url(#filter2_i)">
    <path d="M197.393 136.836H205.549V140H192.26V137.832L200.393 126.113H192.213V122.938H205.467V125.047L197.393 136.836ZM216.721 138.629C215.885 139.699 214.756 140.234 213.334 140.234C211.943 140.234 210.889 139.832 210.17 139.027C209.459 138.215 209.104 137.051 209.104 135.535V127.32H213.053V135.559C213.053 136.645 213.58 137.188 214.635 137.188C215.541 137.188 216.186 136.863 216.568 136.215V127.32H220.541V140H216.838L216.721 138.629ZM228.607 127.32L228.736 128.809C229.635 127.66 230.842 127.086 232.357 127.086C233.959 127.086 235.041 127.723 235.603 128.996C236.463 127.723 237.705 127.086 239.33 127.086C241.9 127.086 243.221 128.641 243.291 131.75V140H239.33V131.996C239.33 131.348 239.221 130.875 239.002 130.578C238.783 130.281 238.385 130.133 237.807 130.133C237.025 130.133 236.443 130.48 236.06 131.176L236.072 131.34V140H232.111V132.02C232.111 131.355 232.006 130.875 231.795 130.578C231.584 130.281 231.182 130.133 230.588 130.133C229.83 130.133 229.252 130.48 228.853 131.176V140H224.904V127.32H228.607ZM264.826 135.465C264.826 134.863 264.611 134.395 264.181 134.059C263.759 133.723 263.013 133.375 261.943 133.016C260.873 132.656 259.998 132.309 259.318 131.973C257.107 130.887 256.002 129.395 256.002 127.496C256.002 126.551 256.275 125.719 256.822 125C257.377 124.273 258.158 123.711 259.166 123.312C260.173 122.906 261.306 122.703 262.564 122.703C263.791 122.703 264.888 122.922 265.857 123.359C266.834 123.797 267.591 124.422 268.13 125.234C268.669 126.039 268.939 126.961 268.939 128H264.837C264.837 127.305 264.623 126.766 264.193 126.383C263.771 126 263.197 125.809 262.47 125.809C261.736 125.809 261.154 125.973 260.724 126.301C260.302 126.621 260.091 127.031 260.091 127.531C260.091 127.969 260.326 128.367 260.794 128.727C261.263 129.078 262.087 129.445 263.267 129.828C264.447 130.203 265.416 130.609 266.173 131.047C268.017 132.109 268.939 133.574 268.939 135.441C268.939 136.934 268.377 138.105 267.252 138.957C266.127 139.809 264.584 140.234 262.623 140.234C261.24 140.234 259.986 139.988 258.861 139.496C257.744 138.996 256.9 138.316 256.33 137.457C255.767 136.59 255.486 135.594 255.486 134.469H259.611C259.611 135.383 259.845 136.059 260.314 136.496C260.791 136.926 261.56 137.141 262.623 137.141C263.302 137.141 263.837 136.996 264.228 136.707C264.627 136.41 264.826 135.996 264.826 135.465ZM278.388 137.188C278.943 137.188 279.372 137.039 279.677 136.742C279.982 136.438 280.13 136.016 280.122 135.477H283.826C283.826 136.867 283.326 138.008 282.326 138.898C281.333 139.789 280.052 140.234 278.482 140.234C276.638 140.234 275.185 139.656 274.122 138.5C273.06 137.344 272.529 135.742 272.529 133.695V133.531C272.529 132.25 272.763 131.121 273.232 130.145C273.708 129.16 274.392 128.406 275.283 127.883C276.173 127.352 277.228 127.086 278.447 127.086C280.095 127.086 281.404 127.543 282.372 128.457C283.341 129.371 283.826 130.609 283.826 132.172H280.122C280.122 131.516 279.962 131.012 279.642 130.66C279.322 130.309 278.892 130.133 278.353 130.133C277.329 130.133 276.732 130.785 276.56 132.09C276.505 132.504 276.478 133.074 276.478 133.801C276.478 135.074 276.63 135.957 276.935 136.449C277.24 136.941 277.724 137.188 278.388 137.188ZM291.517 128.68C292.361 127.617 293.439 127.086 294.751 127.086C296.15 127.086 297.204 127.5 297.915 128.328C298.626 129.156 298.989 130.379 299.005 131.996V140H295.044V132.09C295.044 131.418 294.907 130.926 294.634 130.613C294.361 130.293 293.896 130.133 293.239 130.133C292.427 130.133 291.853 130.391 291.517 130.906V140H287.568V122H291.517V128.68ZM310.915 138.629C310.079 139.699 308.95 140.234 307.528 140.234C306.138 140.234 305.083 139.832 304.364 139.027C303.653 138.215 303.298 137.051 303.298 135.535V127.32H307.247V135.559C307.247 136.645 307.774 137.188 308.829 137.188C309.735 137.188 310.38 136.863 310.763 136.215V127.32H314.735V140H311.032L310.915 138.629ZM304.177 124.004C304.177 123.574 304.345 123.207 304.681 122.902C305.024 122.598 305.446 122.445 305.946 122.445C306.446 122.445 306.864 122.598 307.2 122.902C307.544 123.207 307.716 123.574 307.716 124.004C307.716 124.434 307.544 124.801 307.2 125.105C306.864 125.41 306.446 125.562 305.946 125.562C305.446 125.562 305.024 125.41 304.681 125.105C304.345 124.801 304.177 124.434 304.177 124.004ZM310.259 124.004C310.259 123.574 310.427 123.207 310.763 122.902C311.107 122.598 311.528 122.445 312.028 122.445C312.528 122.445 312.946 122.598 313.282 122.902C313.626 123.207 313.798 123.574 313.798 124.004C313.798 124.434 313.626 124.801 313.282 125.105C312.946 125.41 312.528 125.562 312.028 125.562C311.528 125.562 311.107 125.41 310.763 125.105C310.427 124.801 310.259 124.434 310.259 124.004ZM323.235 140H319.274V122H323.235V140ZM333.973 140.234C332.028 140.234 330.454 139.656 329.251 138.5C328.048 137.336 327.446 135.824 327.446 133.965V133.637C327.446 132.34 327.684 131.195 328.161 130.203C328.645 129.211 329.348 128.445 330.27 127.906C331.192 127.359 332.286 127.086 333.552 127.086C335.333 127.086 336.739 127.641 337.77 128.75C338.802 129.852 339.317 131.391 339.317 133.367V134.902H331.466C331.606 135.613 331.915 136.172 332.391 136.578C332.868 136.984 333.485 137.188 334.243 137.188C335.493 137.188 336.469 136.75 337.173 135.875L338.977 138.008C338.485 138.688 337.786 139.23 336.88 139.637C335.981 140.035 335.012 140.234 333.973 140.234ZM333.528 130.133C332.372 130.133 331.684 130.898 331.466 132.43H335.45V132.125C335.466 131.492 335.305 131.004 334.969 130.66C334.634 130.309 334.153 130.133 333.528 130.133ZM350.747 130.895L349.446 130.801C348.204 130.801 347.407 131.191 347.055 131.973V140H343.106V127.32H346.809L346.938 128.949C347.602 127.707 348.528 127.086 349.715 127.086C350.137 127.086 350.504 127.133 350.817 127.227L350.747 130.895ZM366.102 133.766C366.102 135.844 365.672 137.441 364.813 138.559C363.954 139.676 362.743 140.234 361.18 140.234C359.891 140.234 358.852 139.723 358.063 138.699L357.899 140H354.36V122H358.309V128.34C359.043 127.504 359.993 127.086 361.157 127.086C362.735 127.086 363.954 127.652 364.813 128.785C365.672 129.918 366.102 131.512 366.102 133.566V133.766ZM362.141 133.52C362.141 132.301 361.977 131.434 361.649 130.918C361.329 130.395 360.832 130.133 360.161 130.133C359.27 130.133 358.653 130.473 358.309 131.152V136.191C358.645 136.863 359.27 137.199 360.184 137.199C361.114 137.199 361.704 136.746 361.954 135.84C362.079 135.395 362.141 134.621 362.141 133.52ZM376.149 140.234C374.203 140.234 372.629 139.656 371.426 138.5C370.223 137.336 369.621 135.824 369.621 133.965V133.637C369.621 132.34 369.86 131.195 370.336 130.203C370.821 129.211 371.524 128.445 372.446 127.906C373.367 127.359 374.461 127.086 375.727 127.086C377.508 127.086 378.914 127.641 379.946 128.75C380.977 129.852 381.492 131.391 381.492 133.367V134.902H373.641C373.782 135.613 374.09 136.172 374.567 136.578C375.043 136.984 375.66 137.188 376.418 137.188C377.668 137.188 378.645 136.75 379.348 135.875L381.153 138.008C380.66 138.688 379.961 139.23 379.055 139.637C378.157 140.035 377.188 140.234 376.149 140.234ZM375.703 130.133C374.547 130.133 373.86 130.898 373.641 132.43H377.625V132.125C377.641 131.492 377.481 131.004 377.145 130.66C376.809 130.309 376.328 130.133 375.703 130.133ZM392.922 130.895L391.621 130.801C390.379 130.801 389.582 131.191 389.231 131.973V140H385.281V127.32H388.984L389.113 128.949C389.777 127.707 390.703 127.086 391.891 127.086C392.313 127.086 392.68 127.133 392.992 127.227L392.922 130.895ZM402.406 140.234C400.461 140.234 398.887 139.656 397.684 138.5C396.48 137.336 395.879 135.824 395.879 133.965V133.637C395.879 132.34 396.117 131.195 396.594 130.203C397.078 129.211 397.781 128.445 398.703 127.906C399.625 127.359 400.719 127.086 401.984 127.086C403.766 127.086 405.172 127.641 406.203 128.75C407.234 129.852 407.75 131.391 407.75 133.367V134.902H399.898C400.039 135.613 400.348 136.172 400.824 136.578C401.301 136.984 401.918 137.188 402.676 137.188C403.926 137.188 404.902 136.75 405.605 135.875L407.41 138.008C406.918 138.688 406.219 139.23 405.312 139.637C404.414 140.035 403.445 140.234 402.406 140.234ZM401.961 130.133C400.805 130.133 400.117 130.898 399.898 132.43H403.883V132.125C403.898 131.492 403.738 131.004 403.402 130.66C403.066 130.309 402.586 130.133 401.961 130.133ZM415.676 140H411.715V127.32H415.676V140ZM411.48 124.051C411.48 123.488 411.683 123.027 412.09 122.668C412.496 122.309 413.023 122.129 413.672 122.129C414.32 122.129 414.847 122.309 415.254 122.668C415.66 123.027 415.863 123.488 415.863 124.051C415.863 124.613 415.66 125.074 415.254 125.434C414.847 125.793 414.32 125.973 413.672 125.973C413.023 125.973 412.496 125.793 412.09 125.434C411.683 125.074 411.48 124.613 411.48 124.051ZM425.64 137.188C426.195 137.188 426.625 137.039 426.929 136.742C427.234 136.438 427.382 136.016 427.375 135.477H431.078C431.078 136.867 430.578 138.008 429.578 138.898C428.586 139.789 427.304 140.234 425.734 140.234C423.89 140.234 422.437 139.656 421.375 138.5C420.312 137.344 419.781 135.742 419.781 133.695V133.531C419.781 132.25 420.015 131.121 420.484 130.145C420.961 129.16 421.644 128.406 422.535 127.883C423.425 127.352 424.48 127.086 425.699 127.086C427.347 127.086 428.656 127.543 429.625 128.457C430.593 129.371 431.078 130.609 431.078 132.172H427.375C427.375 131.516 427.214 131.012 426.894 130.66C426.574 130.309 426.144 130.133 425.605 130.133C424.582 130.133 423.984 130.785 423.812 132.09C423.757 132.504 423.73 133.074 423.73 133.801C423.73 135.074 423.882 135.957 424.187 136.449C424.492 136.941 424.976 137.188 425.64 137.188ZM438.769 128.68C439.613 127.617 440.691 127.086 442.003 127.086C443.402 127.086 444.457 127.5 445.167 128.328C445.878 129.156 446.242 130.379 446.257 131.996V140H442.296V132.09C442.296 131.418 442.16 130.926 441.886 130.613C441.613 130.293 441.148 130.133 440.492 130.133C439.679 130.133 439.105 130.391 438.769 130.906V140H434.82V122H438.769V128.68Z" fill="#5B9AF9"/>
    </g>
    <path d="M197.393 136.836L196.98 136.553L196.444 137.336H197.393V136.836ZM205.549 136.836H206.049V136.336H205.549V136.836ZM205.549 140V140.5H206.049V140H205.549ZM192.26 140H191.76V140.5H192.26V140ZM192.26 137.832L191.849 137.547L191.76 137.676V137.832H192.26ZM200.393 126.113L200.804 126.398L201.348 125.613H200.393V126.113ZM192.213 126.113H191.713V126.613H192.213V126.113ZM192.213 122.938V122.438H191.713V122.938H192.213ZM205.467 122.938H205.967V122.438H205.467V122.938ZM205.467 125.047L205.88 125.329L205.967 125.202V125.047H205.467ZM197.393 137.336H205.549V136.336H197.393V137.336ZM205.049 136.836V140H206.049V136.836H205.049ZM205.549 139.5H192.26V140.5H205.549V139.5ZM192.76 140V137.832H191.76V140H192.76ZM192.671 138.117L200.804 126.398L199.982 125.828L191.849 137.547L192.671 138.117ZM200.393 125.613H192.213V126.613H200.393V125.613ZM192.713 126.113V122.938H191.713V126.113H192.713ZM192.213 123.438H205.467V122.438H192.213V123.438ZM204.967 122.938V125.047H205.967V122.938H204.967ZM205.054 124.764L196.98 136.553L197.805 137.118L205.88 125.329L205.054 124.764ZM216.721 138.629L217.219 138.586L217.11 137.318L216.327 138.321L216.721 138.629ZM210.17 139.027L209.794 139.357L209.797 139.36L210.17 139.027ZM209.104 127.32V126.82H208.604V127.32H209.104ZM213.053 127.32H213.553V126.82H213.053V127.32ZM216.568 136.215L216.999 136.469L217.068 136.351V136.215H216.568ZM216.568 127.32V126.82H216.068V127.32H216.568ZM220.541 127.32H221.041V126.82H220.541V127.32ZM220.541 140V140.5H221.041V140H220.541ZM216.838 140L216.34 140.043L216.379 140.5H216.838V140ZM216.327 138.321C215.591 139.264 214.61 139.734 213.334 139.734V140.734C214.901 140.734 216.179 140.135 217.115 138.937L216.327 138.321ZM213.334 139.734C212.042 139.734 211.141 139.364 210.543 138.694L209.797 139.36C210.636 140.3 211.845 140.734 213.334 140.734V139.734ZM210.546 138.698C209.942 138.008 209.604 136.978 209.604 135.535H208.604C208.604 137.123 208.976 138.422 209.794 139.357L210.546 138.698ZM209.604 135.535V127.32H208.604V135.535H209.604ZM209.104 127.82H213.053V126.82H209.104V127.82ZM212.553 127.32V135.559H213.553V127.32H212.553ZM212.553 135.559C212.553 136.175 212.702 136.73 213.09 137.129C213.48 137.53 214.027 137.688 214.635 137.688V136.688C214.188 136.688 213.944 136.573 213.807 136.432C213.667 136.288 213.553 136.028 213.553 135.559H212.553ZM214.635 137.688C215.676 137.688 216.507 137.303 216.999 136.469L216.138 135.961C215.865 136.424 215.406 136.688 214.635 136.688V137.688ZM217.068 136.215V127.32H216.068V136.215H217.068ZM216.568 127.82H220.541V126.82H216.568V127.82ZM220.041 127.32V140H221.041V127.32H220.041ZM220.541 139.5H216.838V140.5H220.541V139.5ZM217.336 139.957L217.219 138.586L216.223 138.671L216.34 140.043L217.336 139.957ZM228.607 127.32L229.105 127.277L229.066 126.82H228.607V127.32ZM228.736 128.809L228.238 128.852L228.348 130.117L229.13 129.117L228.736 128.809ZM235.603 128.996L235.146 129.198L235.512 130.026L236.018 129.276L235.603 128.996ZM243.291 131.75H243.791L243.791 131.739L243.291 131.75ZM243.291 140V140.5H243.791V140H243.291ZM239.33 140H238.83V140.5H239.33V140ZM236.06 131.176L235.622 130.935L235.551 131.064L235.562 131.211L236.06 131.176ZM236.072 131.34H236.572V131.322L236.571 131.304L236.072 131.34ZM236.072 140V140.5H236.572V140H236.072ZM232.111 140H231.611V140.5H232.111V140ZM228.853 131.176L228.42 130.927L228.353 131.043V131.176H228.853ZM228.853 140V140.5H229.353V140H228.853ZM224.904 140H224.404V140.5H224.904V140ZM224.904 127.32V126.82H224.404V127.32H224.904ZM228.109 127.363L228.238 128.852L229.234 128.765L229.105 127.277L228.109 127.363ZM229.13 129.117C229.929 128.095 230.988 127.586 232.357 127.586V126.586C230.695 126.586 229.34 127.225 228.342 128.501L229.13 129.117ZM232.357 127.586C233.093 127.586 233.671 127.732 234.116 127.994C234.557 128.254 234.902 128.646 235.146 129.198L236.061 128.794C235.742 128.073 235.265 127.51 234.624 127.133C233.987 126.758 233.223 126.586 232.357 126.586V127.586ZM236.018 129.276C236.778 128.149 237.86 127.586 239.33 127.586V126.586C237.55 126.586 236.147 127.296 235.189 128.716L236.018 129.276ZM239.33 127.586C240.51 127.586 241.325 127.938 241.867 128.576C242.423 129.23 242.757 130.264 242.791 131.761L243.791 131.739C243.754 130.127 243.394 128.829 242.629 127.928C241.85 127.011 240.721 126.586 239.33 126.586V127.586ZM242.791 131.75V140H243.791V131.75H242.791ZM243.291 139.5H239.33V140.5H243.291V139.5ZM239.83 140V131.996H238.83V140H239.83ZM239.83 131.996C239.83 131.313 239.719 130.708 239.404 130.282L238.599 130.875C238.722 131.042 238.83 131.383 238.83 131.996H239.83ZM239.404 130.282C239.048 129.797 238.451 129.633 237.807 129.633V130.633C238.318 130.633 238.519 130.765 238.599 130.875L239.404 130.282ZM237.807 129.633C237.34 129.633 236.907 129.737 236.528 129.964C236.148 130.191 235.849 130.523 235.622 130.935L236.498 131.417C236.654 131.134 236.838 130.944 237.04 130.823C237.243 130.702 237.492 130.633 237.807 130.633V129.633ZM235.562 131.211L235.573 131.375L236.571 131.304L236.559 131.14L235.562 131.211ZM235.572 131.34V140H236.572V131.34H235.572ZM236.072 139.5H232.111V140.5H236.072V139.5ZM232.611 140V132.02H231.611V140H232.611ZM232.611 132.02C232.611 131.326 232.506 130.715 232.202 130.289L231.387 130.868C231.506 131.035 231.611 131.385 231.611 132.02H232.611ZM232.202 130.289C231.851 129.794 231.24 129.633 230.588 129.633V130.633C231.123 130.633 231.317 130.769 231.387 130.868L232.202 130.289ZM230.588 129.633C229.638 129.633 228.901 130.087 228.42 130.927L229.287 131.424C229.603 130.874 230.021 130.633 230.588 130.633V129.633ZM228.353 131.176V140H229.353V131.176H228.353ZM228.853 139.5H224.904V140.5H228.853V139.5ZM225.404 140V127.32H224.404V140H225.404ZM224.904 127.82H228.607V126.82H224.904V127.82ZM264.181 134.059L263.87 134.45L263.873 134.452L264.181 134.059ZM259.318 131.973L259.539 131.524L259.538 131.524L259.318 131.973ZM256.822 125L256.424 124.697L256.424 124.697L256.822 125ZM259.166 123.312L259.349 123.777L259.353 123.776L259.166 123.312ZM265.857 123.359L265.651 123.815L265.653 123.816L265.857 123.359ZM268.13 125.234L267.714 125.511L267.715 125.513L268.13 125.234ZM268.939 128V128.5H269.439V128H268.939ZM264.837 128H264.337V128.5H264.837V128ZM264.193 126.383L263.857 126.753L263.86 126.756L264.193 126.383ZM260.724 126.301L261.027 126.699L261.028 126.698L260.724 126.301ZM260.794 128.727L260.49 129.123L260.494 129.127L260.794 128.727ZM263.267 129.828L263.113 130.304L263.116 130.305L263.267 129.828ZM266.173 131.047L265.923 131.48L265.924 131.48L266.173 131.047ZM258.861 139.496L258.657 139.952L258.66 139.954L258.861 139.496ZM256.33 137.457L255.91 137.729L255.913 137.734L256.33 137.457ZM255.486 134.469V133.969H254.986V134.469H255.486ZM259.611 134.469H260.111V133.969H259.611V134.469ZM260.314 136.496L259.973 136.862L259.979 136.867L260.314 136.496ZM264.228 136.707L264.525 137.109L264.527 137.108L264.228 136.707ZM265.326 135.465C265.326 134.728 265.054 134.106 264.489 133.665L263.873 134.452C264.168 134.683 264.326 134.999 264.326 135.465H265.326ZM264.493 133.667C263.998 133.274 263.181 132.904 262.102 132.542L261.784 133.49C262.846 133.846 263.521 134.172 263.87 134.45L264.493 133.667ZM262.102 132.542C261.044 132.186 260.192 131.847 259.539 131.524L259.096 132.421C259.803 132.77 260.701 133.126 261.784 133.49L262.102 132.542ZM259.538 131.524C257.438 130.492 256.502 129.145 256.502 127.496H255.502C255.502 129.644 256.776 131.281 259.097 132.421L259.538 131.524ZM256.502 127.496C256.502 126.655 256.742 125.93 257.22 125.303L256.424 124.697C255.808 125.507 255.502 126.447 255.502 127.496H256.502ZM257.219 125.303C257.709 124.662 258.41 124.149 259.349 123.777L258.982 122.848C257.905 123.273 257.044 123.885 256.424 124.697L257.219 125.303ZM259.353 123.776C260.292 123.397 261.36 123.203 262.564 123.203V122.203C261.252 122.203 260.054 122.415 258.979 122.849L259.353 123.776ZM262.564 123.203C263.73 123.203 264.756 123.411 265.651 123.815L266.063 122.904C265.02 122.433 263.851 122.203 262.564 122.203V123.203ZM265.653 123.816C266.552 124.218 267.232 124.785 267.714 125.511L268.547 124.958C267.951 124.059 267.116 123.375 266.061 122.903L265.653 123.816ZM267.715 125.513C268.195 126.229 268.439 127.052 268.439 128H269.439C269.439 126.869 269.144 125.849 268.546 124.956L267.715 125.513ZM268.939 127.5H264.837V128.5H268.939V127.5ZM265.337 128C265.337 127.194 265.084 126.507 264.526 126.009L263.86 126.756C264.162 127.025 264.337 127.415 264.337 128H265.337ZM264.529 126.013C263.992 125.525 263.286 125.309 262.47 125.309V126.309C263.108 126.309 263.55 126.475 263.857 126.753L264.529 126.013ZM262.47 125.309C261.665 125.309 260.964 125.488 260.421 125.903L261.028 126.698C261.344 126.457 261.807 126.309 262.47 126.309V125.309ZM260.422 125.903C259.884 126.311 259.591 126.864 259.591 127.531H260.591C260.591 127.198 260.721 126.931 261.027 126.699L260.422 125.903ZM259.591 127.531C259.591 128.175 259.945 128.705 260.49 129.123L261.099 128.33C260.707 128.029 260.591 127.763 260.591 127.531H259.591ZM260.494 129.127C261.034 129.531 261.926 129.919 263.113 130.304L263.421 129.353C262.249 128.972 261.493 128.625 261.094 128.327L260.494 129.127ZM263.116 130.305C264.274 130.673 265.207 131.066 265.923 131.48L266.423 130.614C265.625 130.153 264.62 129.733 263.419 129.352L263.116 130.305ZM265.924 131.48C267.639 132.468 268.439 133.781 268.439 135.441H269.439C269.439 133.367 268.396 131.75 266.423 130.614L265.924 131.48ZM268.439 135.441C268.439 136.787 267.942 137.807 266.95 138.558L267.553 139.356C268.811 138.403 269.439 137.08 269.439 135.441H268.439ZM266.95 138.558C265.94 139.323 264.516 139.734 262.623 139.734V140.734C264.651 140.734 266.313 140.294 267.553 139.356L266.95 138.558ZM262.623 139.734C261.3 139.734 260.116 139.499 259.061 139.038L258.66 139.954C259.856 140.477 261.18 140.734 262.623 140.734V139.734ZM259.065 139.04C258.018 138.571 257.255 137.947 256.746 137.181L255.913 137.734C256.545 138.685 257.469 139.421 258.657 139.952L259.065 139.04ZM256.749 137.185C256.244 136.406 255.986 135.506 255.986 134.469H254.986C254.986 135.681 255.29 136.774 255.91 137.729L256.749 137.185ZM255.486 134.969H259.611V133.969H255.486V134.969ZM259.111 134.469C259.111 135.461 259.366 136.295 259.973 136.862L260.655 136.131C260.325 135.822 260.111 135.304 260.111 134.469H259.111ZM259.979 136.867C260.592 137.42 261.512 137.641 262.623 137.641V136.641C261.608 136.641 260.99 136.432 260.649 136.125L259.979 136.867ZM262.623 137.641C263.368 137.641 264.02 137.483 264.525 137.109L263.931 136.305C263.654 136.51 263.237 136.641 262.623 136.641V137.641ZM264.527 137.108C265.062 136.709 265.326 136.141 265.326 135.465H264.326C264.326 135.851 264.191 136.111 263.929 136.306L264.527 137.108ZM279.677 136.742L280.026 137.1L280.031 137.096L279.677 136.742ZM280.122 135.477V134.977H279.615L279.623 135.484L280.122 135.477ZM283.826 135.477H284.326V134.977H283.826V135.477ZM282.326 138.898L281.993 138.525L281.992 138.526L282.326 138.898ZM273.232 130.145L272.782 129.927L272.781 129.928L273.232 130.145ZM275.283 127.883L275.536 128.314L275.539 128.312L275.283 127.883ZM283.826 132.172V132.672H284.326V132.172H283.826ZM280.122 132.172H279.622V132.672H280.122V132.172ZM276.56 132.09L277.056 132.155L277.056 132.155L276.56 132.09ZM278.388 137.688C279.032 137.688 279.602 137.513 280.026 137.1L279.328 136.384C279.143 136.565 278.853 136.688 278.388 136.688V137.688ZM280.031 137.096C280.454 136.673 280.632 136.107 280.622 135.469L279.623 135.484C279.629 135.924 279.51 136.202 279.324 136.389L280.031 137.096ZM280.122 135.977H283.826V134.977H280.122V135.977ZM283.326 135.477C283.326 136.731 282.882 137.733 281.993 138.525L282.658 139.272C283.769 138.282 284.326 137.004 284.326 135.477H283.326ZM281.992 138.526C281.107 139.32 279.952 139.734 278.482 139.734V140.734C280.152 140.734 281.56 140.258 282.66 139.271L281.992 138.526ZM278.482 139.734C276.751 139.734 275.442 139.197 274.491 138.162L273.754 138.838C274.928 140.116 276.525 140.734 278.482 140.734V139.734ZM274.491 138.162C273.536 137.123 273.029 135.656 273.029 133.695H272.029C272.029 135.828 272.584 137.565 273.754 138.838L274.491 138.162ZM273.029 133.695V133.531H272.029V133.695H273.029ZM273.029 133.531C273.029 132.311 273.252 131.259 273.683 130.361L272.781 129.928C272.275 130.984 272.029 132.189 272.029 133.531H273.029ZM273.682 130.362C274.118 129.461 274.736 128.784 275.536 128.314L275.029 127.452C274.048 128.028 273.299 128.859 272.782 129.927L273.682 130.362ZM275.539 128.312C276.339 127.835 277.302 127.586 278.447 127.586V126.586C277.154 126.586 276.007 126.868 275.026 127.453L275.539 128.312ZM278.447 127.586C279.999 127.586 281.174 128.014 282.029 128.821L282.716 128.093C281.633 127.072 280.191 126.586 278.447 126.586V127.586ZM282.029 128.821C282.881 129.624 283.326 130.721 283.326 132.172H284.326C284.326 130.498 283.802 129.118 282.716 128.093L282.029 128.821ZM283.826 131.672H280.122V132.672H283.826V131.672ZM280.622 132.172C280.622 131.439 280.443 130.797 280.012 130.323L279.272 130.997C279.481 131.226 279.622 131.593 279.622 132.172H280.622ZM280.012 130.323C279.583 129.853 279.012 129.633 278.353 129.633V130.633C278.772 130.633 279.06 130.764 279.272 130.997L280.012 130.323ZM278.353 129.633C277.725 129.633 277.177 129.838 276.768 130.284C276.374 130.715 276.157 131.317 276.064 132.025L277.056 132.155C277.134 131.558 277.302 131.182 277.506 130.96C277.695 130.754 277.957 130.633 278.353 130.633V129.633ZM276.064 132.024C276.005 132.47 275.978 133.066 275.978 133.801H276.978C276.978 133.083 277.005 132.538 277.056 132.155L276.064 132.024ZM275.978 133.801C275.978 135.08 276.125 136.09 276.51 136.712L277.36 136.186C277.136 135.824 276.978 135.069 276.978 133.801H275.978ZM276.51 136.712C276.92 137.376 277.581 137.688 278.388 137.688V136.688C277.867 136.688 277.559 136.507 277.36 136.186L276.51 136.712ZM291.517 128.68H291.017V130.113L291.908 128.991L291.517 128.68ZM299.005 131.996H299.505L299.505 131.991L299.005 131.996ZM299.005 140V140.5H299.505V140H299.005ZM295.044 140H294.544V140.5H295.044V140ZM294.634 130.613L294.254 130.938L294.258 130.943L294.634 130.613ZM291.517 130.906L291.098 130.633L291.017 130.758V130.906H291.517ZM291.517 140V140.5H292.017V140H291.517ZM287.568 140H287.068V140.5H287.568V140ZM287.568 122V121.5H287.068V122H287.568ZM291.517 122H292.017V121.5H291.517V122ZM291.908 128.991C292.661 128.043 293.597 127.586 294.751 127.586V126.586C293.28 126.586 292.06 127.191 291.125 128.369L291.908 128.991ZM294.751 127.586C296.048 127.586 296.945 127.966 297.536 128.654L298.295 128.002C297.463 127.034 296.251 126.586 294.751 126.586V127.586ZM297.536 128.654C298.141 129.358 298.49 130.447 298.505 132.001L299.505 131.991C299.489 130.311 299.112 128.954 298.295 128.002L297.536 128.654ZM298.505 131.996V140H299.505V131.996H298.505ZM299.005 139.5H295.044V140.5H299.005V139.5ZM295.544 140V132.09H294.544V140H295.544ZM295.544 132.09C295.544 131.367 295.4 130.729 295.01 130.284L294.258 130.943C294.415 131.122 294.544 131.469 294.544 132.09H295.544ZM295.014 130.289C294.603 129.807 293.961 129.633 293.239 129.633V130.633C293.831 130.633 294.118 130.779 294.254 130.938L295.014 130.289ZM293.239 129.633C292.318 129.633 291.555 129.932 291.098 130.633L291.936 131.179C292.151 130.849 292.536 130.633 293.239 130.633V129.633ZM291.017 130.906V140H292.017V130.906H291.017ZM291.517 139.5H287.568V140.5H291.517V139.5ZM288.068 140V122H287.068V140H288.068ZM287.568 122.5H291.517V121.5H287.568V122.5ZM291.017 122V128.68H292.017V122H291.017ZM310.915 138.629L311.413 138.586L311.305 137.318L310.521 138.321L310.915 138.629ZM304.364 139.027L303.988 139.357L303.991 139.36L304.364 139.027ZM303.298 127.32V126.82H302.798V127.32H303.298ZM307.247 127.32H307.747V126.82H307.247V127.32ZM310.763 136.215L311.193 136.469L311.263 136.351V136.215H310.763ZM310.763 127.32V126.82H310.263V127.32H310.763ZM314.735 127.32H315.235V126.82H314.735V127.32ZM314.735 140V140.5H315.235V140H314.735ZM311.032 140L310.534 140.043L310.573 140.5H311.032V140ZM304.681 122.902L304.349 122.528L304.345 122.532L304.681 122.902ZM307.2 122.902L306.864 123.273L306.869 123.277L307.2 122.902ZM307.2 125.105L306.869 124.731L306.864 124.735L307.2 125.105ZM304.681 125.105L304.345 125.476L304.349 125.48L304.681 125.105ZM310.763 122.902L310.431 122.528L310.427 122.532L310.763 122.902ZM313.282 122.902L312.946 123.273L312.951 123.277L313.282 122.902ZM313.282 125.105L312.951 124.731L312.946 124.735L313.282 125.105ZM310.763 125.105L310.427 125.476L310.431 125.48L310.763 125.105ZM310.521 138.321C309.785 139.264 308.805 139.734 307.528 139.734V140.734C309.096 140.734 310.373 140.135 311.309 138.937L310.521 138.321ZM307.528 139.734C306.236 139.734 305.335 139.364 304.737 138.694L303.991 139.36C304.831 140.3 306.039 140.734 307.528 140.734V139.734ZM304.741 138.698C304.136 138.008 303.798 136.978 303.798 135.535H302.798C302.798 137.123 303.17 138.422 303.988 139.357L304.741 138.698ZM303.798 135.535V127.32H302.798V135.535H303.798ZM303.298 127.82H307.247V126.82H303.298V127.82ZM306.747 127.32V135.559H307.747V127.32H306.747ZM306.747 135.559C306.747 136.175 306.897 136.73 307.284 137.129C307.674 137.53 308.221 137.688 308.829 137.688V136.688C308.383 136.688 308.139 136.573 308.001 136.432C307.861 136.288 307.747 136.028 307.747 135.559H306.747ZM308.829 137.688C309.87 137.688 310.701 137.303 311.193 136.469L310.332 135.961C310.059 136.424 309.601 136.688 308.829 136.688V137.688ZM311.263 136.215V127.32H310.263V136.215H311.263ZM310.763 127.82H314.735V126.82H310.763V127.82ZM314.235 127.32V140H315.235V127.32H314.235ZM314.735 139.5H311.032V140.5H314.735V139.5ZM311.53 139.957L311.413 138.586L310.417 138.671L310.534 140.043L311.53 139.957ZM304.677 124.004C304.677 123.724 304.779 123.489 305.017 123.273L304.345 122.532C303.911 122.926 303.677 123.425 303.677 124.004H304.677ZM305.012 123.277C305.256 123.06 305.557 122.945 305.946 122.945V121.945C305.336 121.945 304.793 122.135 304.349 122.528L305.012 123.277ZM305.946 122.945C306.336 122.945 306.63 123.06 306.864 123.273L307.536 122.532C307.099 122.135 306.557 121.945 305.946 121.945V122.945ZM306.869 123.277C307.114 123.494 307.216 123.728 307.216 124.004H308.216C308.216 123.42 307.974 122.92 307.532 122.528L306.869 123.277ZM307.216 124.004C307.216 124.28 307.114 124.514 306.869 124.731L307.532 125.48C307.974 125.087 308.216 124.587 308.216 124.004H307.216ZM306.864 124.735C306.63 124.948 306.336 125.062 305.946 125.062V126.062C306.557 126.062 307.099 125.873 307.536 125.476L306.864 124.735ZM305.946 125.062C305.557 125.062 305.256 124.947 305.012 124.731L304.349 125.48C304.793 125.873 305.336 126.062 305.946 126.062V125.062ZM305.017 124.735C304.779 124.519 304.677 124.284 304.677 124.004H303.677C303.677 124.583 303.911 125.082 304.345 125.476L305.017 124.735ZM310.759 124.004C310.759 123.724 310.861 123.489 311.099 123.273L310.427 122.532C309.993 122.926 309.759 123.425 309.759 124.004H310.759ZM311.094 123.277C311.338 123.06 311.639 122.945 312.028 122.945V121.945C311.418 121.945 310.875 122.135 310.431 122.528L311.094 123.277ZM312.028 122.945C312.418 122.945 312.712 123.06 312.946 123.273L313.618 122.532C313.181 122.135 312.639 121.945 312.028 121.945V122.945ZM312.951 123.277C313.196 123.494 313.298 123.728 313.298 124.004H314.298C314.298 123.42 314.056 122.92 313.614 122.528L312.951 123.277ZM313.298 124.004C313.298 124.28 313.196 124.514 312.951 124.731L313.614 125.48C314.056 125.087 314.298 124.587 314.298 124.004H313.298ZM312.946 124.735C312.712 124.948 312.418 125.062 312.028 125.062V126.062C312.639 126.062 313.181 125.873 313.618 125.476L312.946 124.735ZM312.028 125.062C311.639 125.062 311.338 124.947 311.094 124.731L310.431 125.48C310.875 125.873 311.418 126.062 312.028 126.062V125.062ZM311.099 124.735C310.861 124.519 310.759 124.284 310.759 124.004H309.759C309.759 124.583 309.993 125.082 310.427 125.476L311.099 124.735ZM323.235 140V140.5H323.735V140H323.235ZM319.274 140H318.774V140.5H319.274V140ZM319.274 122V121.5H318.774V122H319.274ZM323.235 122H323.735V121.5H323.235V122ZM323.235 139.5H319.274V140.5H323.235V139.5ZM319.774 140V122H318.774V140H319.774ZM319.274 122.5H323.235V121.5H319.274V122.5ZM322.735 122V140H323.735V122H322.735ZM329.251 138.5L328.903 138.859L328.904 138.861L329.251 138.5ZM328.161 130.203L327.712 129.984L327.71 129.987L328.161 130.203ZM330.27 127.906L330.523 128.338L330.525 128.336L330.27 127.906ZM337.77 128.75L337.404 129.09L337.405 129.092L337.77 128.75ZM339.317 134.902V135.402H339.817V134.902H339.317ZM331.466 134.902V134.402H330.857L330.975 134.999L331.466 134.902ZM337.173 135.875L337.554 135.552L337.163 135.089L336.783 135.562L337.173 135.875ZM338.977 138.008L339.382 138.301L339.612 137.984L339.359 137.685L338.977 138.008ZM336.88 139.637L337.082 140.094L337.084 140.093L336.88 139.637ZM331.466 132.43L330.971 132.359L330.889 132.93H331.466V132.43ZM335.45 132.43V132.93H335.95V132.43H335.45ZM335.45 132.125L334.95 132.113V132.125H335.45ZM334.969 130.66L334.608 131.006L334.612 131.01L334.969 130.66ZM333.973 139.734C332.134 139.734 330.692 139.191 329.597 138.139L328.904 138.861C330.216 140.121 331.922 140.734 333.973 140.734V139.734ZM329.598 138.141C328.504 137.082 327.946 135.705 327.946 133.965H326.946C326.946 135.943 327.591 137.59 328.903 138.859L329.598 138.141ZM327.946 133.965V133.637H326.946V133.965H327.946ZM327.946 133.637C327.946 132.402 328.173 131.333 328.612 130.42L327.71 129.987C327.196 131.057 326.946 132.278 326.946 133.637H327.946ZM328.61 130.422C329.053 129.516 329.689 128.825 330.523 128.338L330.018 127.475C329.008 128.065 328.238 128.906 327.712 129.984L328.61 130.422ZM330.525 128.336C331.357 127.843 332.359 127.586 333.552 127.586V126.586C332.212 126.586 331.027 126.876 330.015 127.476L330.525 128.336ZM333.552 127.586C335.22 127.586 336.484 128.101 337.404 129.09L338.136 128.41C336.994 127.18 335.445 126.586 333.552 126.586V127.586ZM337.405 129.092C338.326 130.075 338.817 131.477 338.817 133.367H339.817C339.817 131.304 339.277 129.628 338.135 128.408L337.405 129.092ZM338.817 133.367V134.902H339.817V133.367H338.817ZM339.317 134.402H331.466V135.402H339.317V134.402ZM330.975 134.999C331.134 135.803 331.492 136.468 332.067 136.959L332.716 136.198C332.338 135.876 332.078 135.424 331.956 134.805L330.975 134.999ZM332.067 136.959C332.652 137.457 333.392 137.688 334.243 137.688V136.688C333.578 136.688 333.084 136.511 332.716 136.198L332.067 136.959ZM334.243 137.688C335.625 137.688 336.753 137.196 337.562 136.188L336.783 135.562C336.186 136.304 335.361 136.688 334.243 136.688V137.688ZM336.791 136.198L338.596 138.331L339.359 137.685L337.554 135.552L336.791 136.198ZM338.572 137.715C338.14 138.311 337.516 138.803 336.675 139.18L337.084 140.093C338.056 139.657 338.83 139.064 339.382 138.301L338.572 137.715ZM336.677 139.18C335.846 139.548 334.947 139.734 333.973 139.734V140.734C335.078 140.734 336.116 140.522 337.082 140.094L336.677 139.18ZM333.528 129.633C332.828 129.633 332.224 129.871 331.773 130.373C331.338 130.858 331.087 131.542 330.971 132.359L331.961 132.5C332.063 131.787 332.265 131.322 332.517 131.041C332.754 130.778 333.072 130.633 333.528 130.633V129.633ZM331.466 132.93H335.45V131.93H331.466V132.93ZM335.95 132.43V132.125H334.95V132.43H335.95ZM335.95 132.137C335.968 131.414 335.784 130.779 335.327 130.311L334.612 131.01C334.826 131.229 334.963 131.57 334.95 132.113L335.95 132.137ZM335.331 130.315C334.876 129.838 334.249 129.633 333.528 129.633V130.633C334.058 130.633 334.391 130.779 334.608 131.006L335.331 130.315ZM350.747 130.895L350.711 131.393L351.236 131.431L351.247 130.904L350.747 130.895ZM349.446 130.801L349.482 130.302L349.464 130.301H349.446V130.801ZM347.055 131.973L346.599 131.767L346.555 131.865V131.973H347.055ZM347.055 140V140.5H347.555V140H347.055ZM343.106 140H342.606V140.5H343.106V140ZM343.106 127.32V126.82H342.606V127.32H343.106ZM346.809 127.32L347.308 127.281L347.271 126.82H346.809V127.32ZM346.938 128.949L346.44 128.989L346.574 130.69L347.379 129.185L346.938 128.949ZM350.817 127.227L351.317 127.236L351.324 126.857L350.961 126.748L350.817 127.227ZM350.783 130.396L349.482 130.302L349.41 131.299L350.711 131.393L350.783 130.396ZM349.446 130.301C348.109 130.301 347.067 130.729 346.599 131.767L347.511 132.178C347.747 131.654 348.298 131.301 349.446 131.301V130.301ZM346.555 131.973V140H347.555V131.973H346.555ZM347.055 139.5H343.106V140.5H347.055V139.5ZM343.606 140V127.32H342.606V140H343.606ZM343.106 127.82H346.809V126.82H343.106V127.82ZM346.311 127.36L346.44 128.989L347.437 128.91L347.308 127.281L346.311 127.36ZM347.379 129.185C347.976 128.069 348.75 127.586 349.715 127.586V126.586C348.306 126.586 347.229 127.345 346.497 128.713L347.379 129.185ZM349.715 127.586C350.102 127.586 350.419 127.629 350.673 127.705L350.961 126.748C350.59 126.637 350.173 126.586 349.715 126.586V127.586ZM350.317 127.217L350.247 130.885L351.247 130.904L351.317 127.236L350.317 127.217ZM358.063 138.699L358.459 138.394L357.719 137.434L357.567 138.637L358.063 138.699ZM357.899 140V140.5H358.34L358.395 140.063L357.899 140ZM354.36 140H353.86V140.5H354.36V140ZM354.36 122V121.5H353.86V122H354.36ZM358.309 122H358.809V121.5H358.309V122ZM358.309 128.34H357.809V129.667L358.685 128.67L358.309 128.34ZM361.649 130.918L361.222 131.179L361.227 131.186L361.649 130.918ZM358.309 131.152L357.863 130.927L357.809 131.033V131.152H358.309ZM358.309 136.191H357.809V136.309L357.862 136.415L358.309 136.191ZM361.954 135.84L361.472 135.705L361.472 135.707L361.954 135.84ZM365.602 133.766C365.602 135.784 365.183 137.257 364.417 138.254L365.209 138.863C366.161 137.626 366.602 135.904 366.602 133.766H365.602ZM364.417 138.254C363.663 139.233 362.607 139.734 361.18 139.734V140.734C362.879 140.734 364.244 140.118 365.209 138.863L364.417 138.254ZM361.18 139.734C360.047 139.734 359.154 139.295 358.459 138.394L357.667 139.005C358.55 140.15 359.736 140.734 361.18 140.734V139.734ZM357.567 138.637L357.403 139.937L358.395 140.063L358.559 138.762L357.567 138.637ZM357.899 139.5H354.36V140.5H357.899V139.5ZM354.86 140V122H353.86V140H354.86ZM354.36 122.5H358.309V121.5H354.36V122.5ZM357.809 122V128.34H358.809V122H357.809ZM358.685 128.67C359.319 127.948 360.129 127.586 361.157 127.586V126.586C359.856 126.586 358.768 127.06 357.933 128.01L358.685 128.67ZM361.157 127.586C362.598 127.586 363.661 128.094 364.415 129.087L365.211 128.483C364.246 127.211 362.871 126.586 361.157 126.586V127.586ZM364.415 129.087C365.184 130.102 365.602 131.574 365.602 133.566H366.602C366.602 131.449 366.16 129.734 365.211 128.483L364.415 129.087ZM365.602 133.566V133.766H366.602V133.566H365.602ZM362.641 133.52C362.641 132.284 362.48 131.292 362.071 130.65L361.227 131.186C361.474 131.575 361.641 132.318 361.641 133.52H362.641ZM362.075 130.657C361.654 129.969 360.987 129.633 360.161 129.633V130.633C360.678 130.633 361.003 130.82 361.222 131.179L362.075 130.657ZM360.161 129.633C359.653 129.633 359.188 129.73 358.789 129.95C358.385 130.172 358.076 130.505 357.863 130.927L358.755 131.378C358.886 131.12 359.058 130.943 359.271 130.826C359.489 130.706 359.778 130.633 360.161 130.633V129.633ZM357.809 131.152V136.191H358.809V131.152H357.809ZM357.862 136.415C358.073 136.837 358.384 137.168 358.793 137.388C359.196 137.604 359.668 137.699 360.184 137.699V136.699C359.786 136.699 359.488 136.626 359.266 136.507C359.05 136.391 358.881 136.217 358.756 135.968L357.862 136.415ZM360.184 137.699C360.731 137.699 361.226 137.565 361.628 137.256C362.03 136.947 362.289 136.503 362.436 135.973L361.472 135.707C361.368 136.083 361.207 136.318 361.019 136.463C360.831 136.607 360.567 136.699 360.184 136.699V137.699ZM362.435 135.975C362.58 135.457 362.641 134.621 362.641 133.52H361.641C361.641 134.621 361.577 135.332 361.472 135.705L362.435 135.975ZM371.426 138.5L371.078 138.859L371.08 138.861L371.426 138.5ZM370.336 130.203L369.887 129.984L369.885 129.987L370.336 130.203ZM372.446 127.906L372.698 128.338L372.701 128.336L372.446 127.906ZM379.946 128.75L379.579 129.09L379.581 129.092L379.946 128.75ZM381.492 134.902V135.402H381.992V134.902H381.492ZM373.641 134.902V134.402H373.032L373.15 134.999L373.641 134.902ZM379.348 135.875L379.73 135.552L379.338 135.089L378.958 135.562L379.348 135.875ZM381.153 138.008L381.558 138.301L381.787 137.984L381.534 137.685L381.153 138.008ZM379.055 139.637L379.258 140.094L379.259 140.093L379.055 139.637ZM373.641 132.43L373.146 132.359L373.064 132.93H373.641V132.43ZM377.625 132.43V132.93H378.125V132.43H377.625ZM377.625 132.125L377.125 132.113V132.125H377.625ZM377.145 130.66L376.783 131.006L376.787 131.01L377.145 130.66ZM376.149 139.734C374.31 139.734 372.867 139.191 371.773 138.139L371.08 138.861C372.391 140.121 374.097 140.734 376.149 140.734V139.734ZM371.774 138.141C370.679 137.082 370.121 135.705 370.121 133.965H369.121C369.121 135.943 369.767 137.59 371.078 138.859L371.774 138.141ZM370.121 133.965V133.637H369.121V133.965H370.121ZM370.121 133.637C370.121 132.402 370.348 131.333 370.787 130.42L369.885 129.987C369.371 131.057 369.121 132.278 369.121 133.637H370.121ZM370.786 130.422C371.228 129.516 371.864 128.825 372.698 128.338L372.193 127.475C371.183 128.065 370.413 128.906 369.887 129.984L370.786 130.422ZM372.701 128.336C373.532 127.843 374.535 127.586 375.727 127.586V126.586C374.388 126.586 373.203 126.876 372.19 127.476L372.701 128.336ZM375.727 127.586C377.396 127.586 378.659 128.101 379.579 129.09L380.312 128.41C379.169 127.18 377.62 126.586 375.727 126.586V127.586ZM379.581 129.092C380.501 130.075 380.992 131.477 380.992 133.367H381.992C381.992 131.304 381.453 129.628 380.311 128.408L379.581 129.092ZM380.992 133.367V134.902H381.992V133.367H380.992ZM381.492 134.402H373.641V135.402H381.492V134.402ZM373.15 134.999C373.309 135.803 373.667 136.468 374.242 136.959L374.891 136.198C374.513 135.876 374.254 135.424 374.131 134.805L373.15 134.999ZM374.242 136.959C374.827 137.457 375.568 137.688 376.418 137.688V136.688C375.753 136.688 375.259 136.511 374.891 136.198L374.242 136.959ZM376.418 137.688C377.8 137.688 378.928 137.196 379.738 136.188L378.958 135.562C378.362 136.304 377.536 136.688 376.418 136.688V137.688ZM378.966 136.198L380.771 138.331L381.534 137.685L379.73 135.552L378.966 136.198ZM380.748 137.715C380.316 138.311 379.691 138.803 378.85 139.18L379.259 140.093C380.231 139.657 381.005 139.064 381.558 138.301L380.748 137.715ZM378.852 139.18C378.021 139.548 377.122 139.734 376.149 139.734V140.734C377.254 140.734 378.292 140.522 379.258 140.094L378.852 139.18ZM375.703 129.633C375.003 129.633 374.399 129.871 373.949 130.373C373.513 130.858 373.263 131.542 373.146 132.359L374.136 132.5C374.238 131.787 374.441 131.322 374.693 131.041C374.929 130.778 375.248 130.633 375.703 130.633V129.633ZM373.641 132.93H377.625V131.93H373.641V132.93ZM378.125 132.43V132.125H377.125V132.43H378.125ZM378.125 132.137C378.143 131.414 377.96 130.779 377.502 130.311L376.787 131.01C377.002 131.229 377.139 131.57 377.125 132.113L378.125 132.137ZM377.506 130.315C377.051 129.838 376.424 129.633 375.703 129.633V130.633C376.233 130.633 376.567 130.779 376.783 131.006L377.506 130.315ZM392.922 130.895L392.886 131.393L393.412 131.431L393.422 130.904L392.922 130.895ZM391.621 130.801L391.657 130.302L391.639 130.301H391.621V130.801ZM389.231 131.973L388.775 131.767L388.731 131.865V131.973H389.231ZM389.231 140V140.5H389.731V140H389.231ZM385.281 140H384.781V140.5H385.281V140ZM385.281 127.32V126.82H384.781V127.32H385.281ZM388.984 127.32L389.483 127.281L389.446 126.82H388.984V127.32ZM389.113 128.949L388.615 128.989L388.75 130.69L389.554 129.185L389.113 128.949ZM392.992 127.227L393.492 127.236L393.499 126.857L393.136 126.748L392.992 127.227ZM392.958 130.396L391.657 130.302L391.585 131.299L392.886 131.393L392.958 130.396ZM391.621 130.301C390.284 130.301 389.242 130.729 388.775 131.767L389.687 132.178C389.922 131.654 390.474 131.301 391.621 131.301V130.301ZM388.731 131.973V140H389.731V131.973H388.731ZM389.231 139.5H385.281V140.5H389.231V139.5ZM385.781 140V127.32H384.781V140H385.781ZM385.281 127.82H388.984V126.82H385.281V127.82ZM388.486 127.36L388.615 128.989L389.612 128.91L389.483 127.281L388.486 127.36ZM389.554 129.185C390.151 128.069 390.926 127.586 391.891 127.586V126.586C390.481 126.586 389.404 127.345 388.672 128.713L389.554 129.185ZM391.891 127.586C392.277 127.586 392.594 127.629 392.849 127.705L393.136 126.748C392.766 126.637 392.348 126.586 391.891 126.586V127.586ZM392.492 127.217L392.422 130.885L393.422 130.904L393.492 127.236L392.492 127.217ZM397.684 138.5L397.336 138.859L397.337 138.861L397.684 138.5ZM396.594 130.203L396.144 129.984L396.143 129.987L396.594 130.203ZM398.703 127.906L398.955 128.338L398.958 128.336L398.703 127.906ZM406.203 128.75L405.837 129.09L405.838 129.092L406.203 128.75ZM407.75 134.902V135.402H408.25V134.902H407.75ZM399.898 134.902V134.402H399.29L399.408 134.999L399.898 134.902ZM405.605 135.875L405.987 135.552L405.595 135.089L405.216 135.562L405.605 135.875ZM407.41 138.008L407.815 138.301L408.045 137.984L407.792 137.685L407.41 138.008ZM405.312 139.637L405.515 140.094L405.517 140.093L405.312 139.637ZM399.898 132.43L399.403 132.359L399.322 132.93H399.898V132.43ZM403.883 132.43V132.93H404.383V132.43H403.883ZM403.883 132.125L403.383 132.113V132.125H403.883ZM403.402 130.66L403.041 131.006L403.045 131.01L403.402 130.66ZM402.406 139.734C400.567 139.734 399.125 139.191 398.03 138.139L397.337 138.861C398.649 140.121 400.355 140.734 402.406 140.734V139.734ZM398.031 138.141C396.937 137.082 396.379 135.705 396.379 133.965H395.379C395.379 135.943 396.024 137.59 397.336 138.859L398.031 138.141ZM396.379 133.965V133.637H395.379V133.965H396.379ZM396.379 133.637C396.379 132.402 396.606 131.333 397.044 130.42L396.143 129.987C395.629 131.057 395.379 132.278 395.379 133.637H396.379ZM397.043 130.422C397.486 129.516 398.122 128.825 398.955 128.338L398.451 127.475C397.441 128.065 396.67 128.906 396.144 129.984L397.043 130.422ZM398.958 128.336C399.79 127.843 400.792 127.586 401.984 127.586V126.586C400.645 126.586 399.46 126.876 398.448 127.476L398.958 128.336ZM401.984 127.586C403.653 127.586 404.917 128.101 405.837 129.09L406.569 128.41C405.427 127.18 403.878 126.586 401.984 126.586V127.586ZM405.838 129.092C406.758 130.075 407.25 131.477 407.25 133.367H408.25C408.25 131.304 407.71 129.628 406.568 128.408L405.838 129.092ZM407.25 133.367V134.902H408.25V133.367H407.25ZM407.75 134.402H399.898V135.402H407.75V134.402ZM399.408 134.999C399.567 135.803 399.924 136.468 400.5 136.959L401.149 136.198C400.771 135.876 400.511 135.424 400.389 134.805L399.408 134.999ZM400.5 136.959C401.085 137.457 401.825 137.688 402.676 137.688V136.688C402.011 136.688 401.517 136.511 401.149 136.198L400.5 136.959ZM402.676 137.688C404.058 137.688 405.186 137.196 405.995 136.188L405.216 135.562C404.619 136.304 403.794 136.688 402.676 136.688V137.688ZM405.224 136.198L407.028 138.331L407.792 137.685L405.987 135.552L405.224 136.198ZM407.005 137.715C406.573 138.311 405.949 138.803 405.108 139.18L405.517 140.093C406.488 139.657 407.263 139.064 407.815 138.301L407.005 137.715ZM405.11 139.18C404.279 139.548 403.379 139.734 402.406 139.734V140.734C403.511 140.734 404.549 140.522 405.515 140.094L405.11 139.18ZM401.961 129.633C401.26 129.633 400.657 129.871 400.206 130.373C399.771 130.858 399.52 131.542 399.403 132.359L400.393 132.5C400.495 131.787 400.698 131.322 400.95 131.041C401.187 130.778 401.505 130.633 401.961 130.633V129.633ZM399.898 132.93H403.883V131.93H399.898V132.93ZM404.383 132.43V132.125H403.383V132.43H404.383ZM404.383 132.137C404.4 131.414 404.217 130.779 403.76 130.311L403.045 131.01C403.259 131.229 403.396 131.57 403.383 132.113L404.383 132.137ZM403.764 130.315C403.308 129.838 402.681 129.633 401.961 129.633V130.633C402.49 130.633 402.824 130.779 403.041 131.006L403.764 130.315ZM415.676 140V140.5H416.176V140H415.676ZM411.715 140H411.215V140.5H411.715V140ZM411.715 127.32V126.82H411.215V127.32H411.715ZM415.676 127.32H416.176V126.82H415.676V127.32ZM415.676 139.5H411.715V140.5H415.676V139.5ZM412.215 140V127.32H411.215V140H412.215ZM411.715 127.82H415.676V126.82H411.715V127.82ZM415.176 127.32V140H416.176V127.32H415.176ZM411.98 124.051C411.98 123.625 412.126 123.303 412.421 123.042L411.758 122.293C411.24 122.752 410.98 123.351 410.98 124.051H411.98ZM412.421 123.042C412.719 122.779 413.12 122.629 413.672 122.629V121.629C412.926 121.629 412.273 121.838 411.758 122.293L412.421 123.042ZM413.672 122.629C414.223 122.629 414.625 122.779 414.922 123.042L415.585 122.293C415.07 121.838 414.417 121.629 413.672 121.629V122.629ZM414.922 123.042C415.217 123.303 415.363 123.625 415.363 124.051H416.363C416.363 123.351 416.103 122.752 415.585 122.293L414.922 123.042ZM415.363 124.051C415.363 124.476 415.217 124.799 414.922 125.059L415.585 125.808C416.103 125.35 416.363 124.75 416.363 124.051H415.363ZM414.922 125.059C414.625 125.322 414.223 125.473 413.672 125.473V126.473C414.417 126.473 415.07 126.264 415.585 125.808L414.922 125.059ZM413.672 125.473C413.12 125.473 412.719 125.322 412.421 125.059L411.758 125.808C412.273 126.264 412.926 126.473 413.672 126.473V125.473ZM412.421 125.059C412.126 124.799 411.98 124.476 411.98 124.051H410.98C410.98 124.75 411.24 125.35 411.758 125.808L412.421 125.059ZM426.929 136.742L427.278 137.1L427.283 137.096L426.929 136.742ZM427.375 135.477V134.977H426.867L426.875 135.484L427.375 135.477ZM431.078 135.477H431.578V134.977H431.078V135.477ZM429.578 138.898L429.245 138.525L429.244 138.526L429.578 138.898ZM420.484 130.145L420.034 129.927L420.033 129.928L420.484 130.145ZM422.535 127.883L422.788 128.314L422.791 128.312L422.535 127.883ZM431.078 132.172V132.672H431.578V132.172H431.078ZM427.375 132.172H426.875V132.672H427.375V132.172ZM423.812 132.09L424.308 132.155L424.308 132.155L423.812 132.09ZM425.64 137.688C426.284 137.688 426.854 137.513 427.278 137.1L426.58 136.384C426.395 136.565 426.106 136.688 425.64 136.688V137.688ZM427.283 137.096C427.706 136.673 427.884 136.107 427.875 135.469L426.875 135.484C426.881 135.924 426.762 136.202 426.576 136.389L427.283 137.096ZM427.375 135.977H431.078V134.977H427.375V135.977ZM430.578 135.477C430.578 136.731 430.134 137.733 429.245 138.525L429.91 139.272C431.021 138.282 431.578 137.004 431.578 135.477H430.578ZM429.244 138.526C428.359 139.32 427.204 139.734 425.734 139.734V140.734C427.404 140.734 428.812 140.258 429.912 139.271L429.244 138.526ZM425.734 139.734C424.004 139.734 422.694 139.197 421.743 138.162L421.006 138.838C422.18 140.116 423.777 140.734 425.734 140.734V139.734ZM421.743 138.162C420.788 137.123 420.281 135.656 420.281 133.695H419.281C419.281 135.828 419.836 137.565 421.006 138.838L421.743 138.162ZM420.281 133.695V133.531H419.281V133.695H420.281ZM420.281 133.531C420.281 132.311 420.504 131.259 420.935 130.361L420.033 129.928C419.527 130.984 419.281 132.189 419.281 133.531H420.281ZM420.934 130.362C421.37 129.461 421.988 128.784 422.788 128.314L422.281 127.452C421.301 128.028 420.551 128.859 420.034 129.927L420.934 130.362ZM422.791 128.312C423.591 127.835 424.554 127.586 425.699 127.586V126.586C424.406 126.586 423.259 126.868 422.279 127.453L422.791 128.312ZM425.699 127.586C427.252 127.586 428.426 128.014 429.281 128.821L429.968 128.093C428.885 127.072 427.443 126.586 425.699 126.586V127.586ZM429.281 128.821C430.133 129.624 430.578 130.721 430.578 132.172H431.578C431.578 130.498 431.054 129.118 429.968 128.093L429.281 128.821ZM431.078 131.672H427.375V132.672H431.078V131.672ZM427.875 132.172C427.875 131.439 427.695 130.797 427.264 130.323L426.525 130.997C426.734 131.226 426.875 131.593 426.875 132.172H427.875ZM427.264 130.323C426.836 129.853 426.264 129.633 425.605 129.633V130.633C426.024 130.633 426.312 130.764 426.525 130.997L427.264 130.323ZM425.605 129.633C424.977 129.633 424.429 129.838 424.021 130.284C423.626 130.715 423.41 131.317 423.316 132.025L424.308 132.155C424.387 131.558 424.555 131.182 424.758 130.96C424.947 130.754 425.209 130.633 425.605 130.633V129.633ZM423.316 132.024C423.258 132.47 423.23 133.066 423.23 133.801H424.23C424.23 133.083 424.257 132.538 424.308 132.155L423.316 132.024ZM423.23 133.801C423.23 135.08 423.377 136.09 423.762 136.712L424.612 136.186C424.388 135.824 424.23 135.069 424.23 133.801H423.23ZM423.762 136.712C424.173 137.376 424.833 137.688 425.64 137.688V136.688C425.119 136.688 424.811 136.507 424.612 136.186L423.762 136.712ZM438.769 128.68H438.269V130.113L439.161 128.991L438.769 128.68ZM446.257 131.996H446.757L446.757 131.991L446.257 131.996ZM446.257 140V140.5H446.757V140H446.257ZM442.296 140H441.796V140.5H442.296V140ZM441.886 130.613L441.506 130.938L441.51 130.943L441.886 130.613ZM438.769 130.906L438.35 130.633L438.269 130.758V130.906H438.769ZM438.769 140V140.5H439.269V140H438.769ZM434.82 140H434.32V140.5H434.82V140ZM434.82 122V121.5H434.32V122H434.82ZM438.769 122H439.269V121.5H438.769V122ZM439.161 128.991C439.913 128.043 440.849 127.586 442.003 127.586V126.586C440.532 126.586 439.312 127.191 438.377 128.369L439.161 128.991ZM442.003 127.586C443.3 127.586 444.197 127.966 444.788 128.654L445.547 128.002C444.716 127.034 443.504 126.586 442.003 126.586V127.586ZM444.788 128.654C445.393 129.358 445.742 130.447 445.757 132.001L446.757 131.991C446.741 130.311 446.364 128.954 445.547 128.002L444.788 128.654ZM445.757 131.996V140H446.757V131.996H445.757ZM446.257 139.5H442.296V140.5H446.257V139.5ZM442.796 140V132.09H441.796V140H442.796ZM442.796 132.09C442.796 131.367 442.652 130.729 442.262 130.284L441.51 130.943C441.667 131.122 441.796 131.469 441.796 132.09H442.796ZM442.266 130.289C441.856 129.807 441.213 129.633 440.492 129.633V130.633C441.083 130.633 441.37 130.779 441.506 130.938L442.266 130.289ZM440.492 129.633C439.571 129.633 438.807 129.932 438.35 130.633L439.188 131.179C439.403 130.849 439.788 130.633 440.492 130.633V129.633ZM438.269 130.906V140H439.269V130.906H438.269ZM438.769 139.5H434.82V140.5H438.769V139.5ZM435.32 140V122H434.32V140H435.32ZM434.82 122.5H438.769V121.5H434.82V122.5ZM438.269 122V128.68H439.269V122H438.269Z" fill="#333333" fill-opacity="0.83"/>
    </g>
    <defs>
    <filter id="filter0_d" x="0" y="0" width="603" height="228" filterUnits="userSpaceOnUse" color-interpolation-filters="sRGB">
    <feFlood flood-opacity="0" result="BackgroundImageFix"/>
    <feColorMatrix in="SourceAlpha" type="matrix" values="0 0 0 0 0 0 0 0 0 0 0 0 0 0 0 0 0 0 127 0"/>
    <feOffset dy="4"/>
    <feGaussianBlur stdDeviation="2"/>
    <feColorMatrix type="matrix" values="0 0 0 0 0 0 0 0 0 0 0 0 0 0 0 0 0 0 0.25 0"/>
    <feBlend mode="normal" in2="BackgroundImageFix" result="effect1_dropShadow"/>
    <feBlend mode="normal" in="SourceGraphic" in2="effect1_dropShadow" result="shape"/>
    </filter>
    <filter id="filter1_i" x="258.62" y="80.6934" width="101.06" height="39.2949" filterUnits="userSpaceOnUse" color-interpolation-filters="sRGB">
    <feFlood flood-opacity="0" result="BackgroundImageFix"/>
    <feBlend mode="normal" in="SourceGraphic" in2="BackgroundImageFix" result="shape"/>
    <feColorMatrix in="SourceAlpha" type="matrix" values="0 0 0 0 0 0 0 0 0 0 0 0 0 0 0 0 0 0 127 0" result="hardAlpha"/>
    <feOffset dy="4"/>
    <feGaussianBlur stdDeviation="2"/>
    <feComposite in2="hardAlpha" operator="arithmetic" k2="-1" k3="1"/>
    <feColorMatrix type="matrix" values="0 0 0 0 0 0 0 0 0 0 0 0 0 0 0 0 0 0 0.25 0"/>
    <feBlend mode="normal" in2="shape" result="effect1_innerShadow"/>
    </filter>
    <filter id="filter2_i" x="191.713" y="121.5" width="255.044" height="23.2344" filterUnits="userSpaceOnUse" color-interpolation-filters="sRGB">
    <feFlood flood-opacity="0" result="BackgroundImageFix"/>
    <feBlend mode="normal" in="SourceGraphic" in2="BackgroundImageFix" result="shape"/>
    <feColorMatrix in="SourceAlpha" type="matrix" values="0 0 0 0 0 0 0 0 0 0 0 0 0 0 0 0 0 0 127 0" result="hardAlpha"/>
    <feOffset dy="4"/>
    <feGaussianBlur stdDeviation="2"/>
    <feComposite in2="hardAlpha" operator="arithmetic" k2="-1" k3="1"/>
    <feColorMatrix type="matrix" values="0 0 0 0 0 0 0 0 0 0 0 0 0 0 0 0 0 0 0.25 0"/>
    <feBlend mode="normal" in2="shape" result="effect1_innerShadow"/>
    </filter>
    <clipPath id="clip0">
    <rect width="595" height="220" fill="white" transform="translate(4)"/>
    </clipPath>
    <clipPath id="clip1">
    <rect width="355" height="211" fill="white" transform="translate(125 3)"/>
    </clipPath>
    </defs>
</svg>
