<svg width="185" height="354" viewBox="0 0 185 354" fill="none" xmlns="http://www.w3.org/2000/svg">
<g id="Layer 1" filter="url(#filter0_d)">
<path id="Vector" d="M29.3833 180.405C37.1477 180.405 43.4419 174.773 43.4419 167.826C43.4419 160.879 37.1477 155.247 29.3833 155.247C21.619 155.247 15.3247 160.879 15.3247 167.826C15.3247 174.773 21.619 180.405 29.3833 180.405Z" fill="white"/>
<path id="Vector_2" d="M29.8766 182.378C37.641 182.378 43.9352 176.856 43.9352 170.046C43.9352 163.235 37.641 157.713 29.8766 157.713C22.1122 157.713 15.818 163.235 15.818 170.046C15.818 176.856 22.1122 182.378 29.8766 182.378Z" fill="#FF4DAB"/>
<path id="Vector_3" d="M43.9352 170.046C43.9352 176.857 37.6417 182.378 29.8766 182.378C22.1115 182.378 15.818 176.857 15.818 170.046C15.816 169.467 15.8642 168.889 15.9619 168.319C16.9155 174.312 22.7815 178.925 29.8766 178.925C36.9717 178.925 42.8418 174.312 43.7954 168.319C43.8918 168.889 43.9385 169.467 43.9352 170.046V170.046Z" fill="#EF309D"/>
<path id="Vector_4" d="M123.288 216.455L123.839 178.637C123.901 176.83 124.669 175.119 125.978 173.872C127.287 172.625 129.034 171.941 130.842 171.967C132.65 171.994 134.375 172.728 135.648 174.013C136.92 175.298 137.638 177.03 137.647 178.838L136.993 214.129H123.354V217.417L123.288 216.455Z" stroke="#181828" stroke-width="4" stroke-linecap="round" stroke-linejoin="round"/>
<path id="Vector_5" d="M120.213 230.822H104.383V301.313H120.213V230.822Z" fill="#4F3E52"/>
<path id="Vector_6" d="M120.213 230.822H104.383V250.106H120.213V230.822Z" fill="#3A2C3D"/>
<path id="Vector_7" d="M105.374 249.02V289.174" stroke="#3A2C3D" stroke-width="4" stroke-miterlimit="10"/>
<path id="Vector_8" d="M93.0252 230.822H76.5824V301.313H93.0252V230.822Z" fill="#4F3E52"/>
<path id="Vector_9" d="M93.0252 230.822H77.1949V249.489H93.0252V230.822Z" fill="#3A2C3D"/>
<path id="Vector_10" d="M90.604 249.02V289.174" stroke="#3A2C3D" stroke-width="4" stroke-miterlimit="10"/>
<path id="Vector_11" d="M88.2239 306.973H79.2749V319.363H88.2239V306.973Z" fill="#FDC6A2"/>
<path id="Vector_12" d="M88.2239 306.973H79.2749V313.731H88.2239V306.973Z" fill="#F9AB80"/>
<path id="Vector_13" d="M88.2239 307.088H79.2749V319.478H88.2239V307.088Z" stroke="#181828" stroke-width="3" stroke-linecap="round" stroke-linejoin="round"/>
<path id="Vector_14" d="M76.4098 269.097V231.953H92.2401V302.443H76.4098V273.849" stroke="#181828" stroke-width="4" stroke-linecap="round" stroke-linejoin="round"/>
<path id="Vector_15" d="M88.9967 298.85H78.0869C74.9222 298.85 72.3566 301.416 72.3566 304.581V304.872C72.3566 308.037 74.9222 310.603 78.0869 310.603H88.9967C92.1615 310.603 94.727 308.037 94.727 304.872V304.581C94.727 301.416 92.1615 298.85 88.9967 298.85Z" fill="#4F3E52"/>
<path id="Vector_16" d="M94.6407 304.992V305.288C94.6416 305.687 94.6003 306.085 94.5174 306.476C94.2499 305.186 93.5462 304.029 92.5249 303.198C91.5036 302.366 90.2271 301.913 88.9104 301.913H77.9965C76.6822 301.913 75.4079 302.364 74.3871 303.192C73.3663 304.02 72.661 305.173 72.3895 306.459C72.3066 306.069 72.2652 305.67 72.2662 305.271V304.975C72.2705 303.458 72.8762 302.005 73.9503 300.934C75.0245 299.863 76.4795 299.261 77.9965 299.261H88.9063C89.6591 299.261 90.4047 299.409 91.1005 299.696C91.7962 299.984 92.4283 300.406 92.9609 300.938C93.4934 301.47 93.9159 302.102 94.2041 302.798C94.4924 303.493 94.6407 304.239 94.6407 304.992Z" fill="#6C5A70"/>
<path id="Vector_17" d="M88.9433 298.859H78.0335C74.8687 298.859 72.3032 301.424 72.3032 304.589V304.881C72.3032 308.045 74.8687 310.611 78.0335 310.611H88.9433C92.1081 310.611 94.6736 308.045 94.6736 304.881V304.589C94.6736 301.424 92.1081 298.859 88.9433 298.859Z" stroke="#181828" stroke-width="3" stroke-linecap="round" stroke-linejoin="round"/>
<path id="Vector_18" d="M73.1623 306.554H79.8093" stroke="#181828" stroke-width="2" stroke-linecap="round" stroke-linejoin="round"/>
<path id="Vector_19" d="M90.8054 302.595H93.9172" stroke="#181828" stroke-width="2" stroke-linecap="round" stroke-linejoin="round"/>
<path id="Vector_20" d="M116.686 306.973H107.737V319.363H116.686V306.973Z" fill="#FDC6A2"/>
<path id="Vector_21" d="M116.686 306.973H107.737V313.731H116.686V306.973Z" fill="#F9AB80"/>
<path id="Vector_22" d="M116.686 307.088H107.737V319.478H116.686V307.088Z" stroke="#181828" stroke-width="3" stroke-linecap="round" stroke-linejoin="round"/>
<path id="Vector_23" d="M119.424 231.953H103.594V302.443H119.424V231.953Z" stroke="#181828" stroke-width="4" stroke-linecap="round" stroke-linejoin="round"/>
<path id="Vector_24" d="M116.871 298.924H105.962C102.797 298.924 100.231 301.49 100.231 304.655V304.946C100.231 308.111 102.797 310.677 105.962 310.677H116.871C120.036 310.677 122.602 308.111 122.602 304.946V304.655C122.602 301.49 120.036 298.924 116.871 298.924Z" fill="#4F3E52"/>
<path id="Vector_25" d="M122.515 304.914V305.201C122.517 305.601 122.474 305.999 122.388 306.389C122.118 305.103 121.413 303.948 120.392 303.12C119.371 302.292 118.096 301.841 116.781 301.843H105.875C104.561 301.843 103.287 302.295 102.266 303.122C101.245 303.95 100.54 305.103 100.268 306.389C100.184 305.999 100.141 305.601 100.141 305.201V304.905C100.147 303.387 100.754 301.933 101.828 300.859C102.902 299.786 104.357 299.18 105.875 299.175H116.781C118.301 299.18 119.757 299.787 120.831 300.862C121.906 301.937 122.511 303.394 122.515 304.914Z" fill="#6C5A70"/>
<path id="Vector_26" d="M116.818 298.78H105.908C102.743 298.78 100.178 301.346 100.178 304.511V304.803C100.178 307.967 102.743 310.533 105.908 310.533H116.818C119.983 310.533 122.548 307.967 122.548 304.803V304.511C122.548 301.346 119.983 298.78 116.818 298.78Z" stroke="#181828" stroke-width="3" stroke-linecap="round" stroke-linejoin="round"/>
<path id="Vector_27" d="M101.037 306.476H107.684" stroke="#181828" stroke-width="2" stroke-linecap="round" stroke-linejoin="round"/>
<path id="Vector_28" d="M118.68 302.517H121.792" stroke="#181828" stroke-width="2" stroke-linecap="round" stroke-linejoin="round"/>
<path id="Vector_29" d="M69.6065 206.692H124.234V234.538C124.234 236.075 123.932 237.597 123.343 239.017C122.755 240.437 121.893 241.727 120.805 242.813C119.718 243.9 118.427 244.761 117.006 245.348C115.586 245.935 114.063 246.235 112.526 246.233H81.285C78.1844 246.233 75.2108 245.002 73.0184 242.809C70.8259 240.617 69.5942 237.643 69.5942 234.542V206.692H69.6065Z" fill="white"/>
<path id="Vector_30" d="M74.4942 206.692H124.834V235.007C124.834 237.983 123.652 240.838 121.547 242.942C119.442 245.047 116.588 246.229 113.612 246.229H85.7164C82.7401 246.229 79.8857 245.047 77.7811 242.942C75.6765 240.838 74.4942 237.983 74.4942 235.007V206.692Z" fill="#4F3E52"/>
<path id="Vector_31" d="M98.6404 239.956C98.2289 240.049 97.8084 240.096 97.3867 240.096C96.6444 240.097 95.9093 239.952 95.2233 239.668C94.5373 239.385 93.914 238.969 93.389 238.444C92.864 237.92 92.4476 237.297 92.1637 236.611C91.8798 235.925 91.7339 235.19 91.7344 234.448V220.977H94.2337V234.448C94.2356 235.729 94.6726 236.972 95.4732 237.973C96.2738 238.974 97.3905 239.673 98.6404 239.956V239.956Z" fill="#3A2C3D"/>
<path id="Vector_32" d="M124.127 220.928H74.4942V224.545H124.127V220.928Z" fill="#3A2C3D"/>
<path id="Vector_33" d="M70.2108 206.692H124.834V234.538C124.834 237.639 123.602 240.613 121.41 242.805C119.217 244.997 116.244 246.229 113.143 246.229H81.9017C78.8011 246.229 75.8274 244.997 73.635 242.805C71.4425 240.613 70.2108 237.639 70.2108 234.538V206.692Z" stroke="#181828" stroke-width="4" stroke-linecap="round" stroke-linejoin="round"/>
<path id="Vector_34" d="M102.911 231.78V234.444C102.912 235.186 102.766 235.921 102.482 236.607C102.198 237.293 101.782 237.917 101.257 238.442C100.732 238.967 100.109 239.383 99.4229 239.667C98.7369 239.951 98.0016 240.097 97.2592 240.096C95.7601 240.096 94.3225 239.501 93.2625 238.441C92.2025 237.381 91.607 235.943 91.607 234.444V220.977" stroke="#181828" stroke-width="2" stroke-linecap="round" stroke-linejoin="round"/>
<path id="Vector_35" d="M102.911 220.977V227.669" stroke="#181828" stroke-width="2" stroke-linecap="round" stroke-linejoin="round"/>
<path id="Vector_36" d="M88.5404 227.266H95.1874" stroke="#181828" stroke-width="3" stroke-linecap="round" stroke-linejoin="round"/>
<path id="Vector_37" d="M88.5404 229.988H95.1874" stroke="#181828" stroke-width="3" stroke-linecap="round" stroke-linejoin="round"/>
<path id="Vector_38" d="M76.5824 233.597C77.0206 233.597 77.3758 233.06 77.3758 232.397C77.3758 231.734 77.0206 231.196 76.5824 231.196C76.1442 231.196 75.789 231.734 75.789 232.397C75.789 233.06 76.1442 233.597 76.5824 233.597Z" fill="white"/>
<path id="Vector_39" d="M76.3522 235.948C76.6632 235.948 76.9154 235.696 76.9154 235.385C76.9154 235.074 76.6632 234.822 76.3522 234.822C76.0412 234.822 75.789 235.074 75.789 235.385C75.789 235.696 76.0412 235.948 76.3522 235.948Z" fill="white"/>
<path id="Vector_40" d="M110.138 318.175H113.76C116.681 318.175 119.484 319.335 121.55 321.401C123.616 323.467 124.776 326.27 124.776 329.191V329.454C124.776 330.464 124.375 331.432 123.661 332.146C122.948 332.86 121.979 333.261 120.97 333.261H102.928C101.918 333.261 100.95 332.86 100.236 332.146C99.5224 331.432 99.1214 330.464 99.1214 329.454V329.175C99.1258 326.256 100.288 323.458 102.354 321.396C104.419 319.333 107.219 318.175 110.138 318.175Z" fill="#FBB33A"/>
<path id="Vector_41" d="M117.669 326.121C115.4 324.626 112.808 323.69 110.108 323.389C107.407 323.088 104.673 323.431 102.13 324.39H102.081C99.9805 324.39 99.1214 331.559 99.1214 329.454V329.175C99.1214 326.253 100.282 323.451 102.348 321.385C104.414 319.319 107.216 318.158 110.138 318.158H113.76C115.206 318.158 116.639 318.443 117.976 318.997C119.312 319.551 120.527 320.362 121.55 321.385C122.573 322.408 123.384 323.622 123.938 324.959C124.491 326.296 124.776 327.728 124.776 329.175L124.225 326.228C124.221 327.292 121.221 328.456 117.669 326.121Z" fill="#FEECAA"/>
<path id="Vector_42" d="M120.612 329.191H124.772" stroke="#181828" stroke-width="2" stroke-linecap="round" stroke-linejoin="round"/>
<path id="Vector_43" d="M104.05 329.191H118.199" stroke="#181828" stroke-width="2" stroke-linecap="round" stroke-linejoin="round"/>
<path id="Vector_44" d="M99.6147 329.191H101.645" stroke="#181828" stroke-width="2" stroke-linecap="round" stroke-linejoin="round"/>
<path id="Vector_45" d="M99.5078 330.092H124.661" stroke="#F67E41" stroke-width="2" stroke-miterlimit="10"/>
<path id="Vector_46" d="M118.762 244.408C119.452 244.408 120.012 243.871 120.012 243.208C120.012 242.545 119.452 242.007 118.762 242.007C118.072 242.007 117.513 242.545 117.513 243.208C117.513 243.871 118.072 244.408 118.762 244.408Z" fill="#181828"/>
<path id="Vector_47" d="M119.149 240.569C119.521 240.569 119.823 240.267 119.823 239.895C119.823 239.522 119.521 239.22 119.149 239.22C118.776 239.22 118.475 239.522 118.475 239.895C118.475 240.267 118.776 240.569 119.149 240.569Z" fill="#181828"/>
<path id="Vector_48" d="M120.83 237.782C121.175 237.782 121.455 237.502 121.455 237.157C121.455 236.812 121.175 236.532 120.83 236.532C120.485 236.532 120.205 236.812 120.205 237.157C120.205 237.502 120.485 237.782 120.83 237.782Z" fill="#181828"/>
<path id="Vector_49" d="M97.4689 237.588C97.6982 237.588 97.8841 237.403 97.8841 237.173C97.8841 236.944 97.6982 236.758 97.4689 236.758C97.2396 236.758 97.0537 236.944 97.0537 237.173C97.0537 237.403 97.2396 237.588 97.4689 237.588Z" fill="#181828"/>
<path id="Vector_50" d="M96.6673 235.282C96.9851 235.282 97.2428 235.025 97.2428 234.707C97.2428 234.389 96.9851 234.131 96.6673 234.131C96.3495 234.131 96.0918 234.389 96.0918 234.707C96.0918 235.025 96.3495 235.282 96.6673 235.282Z" fill="#181828"/>
<path id="Vector_51" d="M82.7854 307.808C83.5006 307.808 84.0803 307.228 84.0803 306.513C84.0803 305.797 83.5006 305.218 82.7854 305.218C82.0703 305.218 81.4906 305.797 81.4906 306.513C81.4906 307.228 82.0703 307.808 82.7854 307.808Z" fill="#181828"/>
<path id="Vector_52" d="M117.948 308.794C118.412 308.794 118.787 308.419 118.787 307.955C118.787 307.492 118.412 307.117 117.948 307.117C117.485 307.117 117.11 307.492 117.11 307.955C117.11 308.419 117.485 308.794 117.948 308.794Z" fill="#181828"/>
<path id="Vector_53" d="M116.851 220.899V222.132C116.851 224.372 117.74 226.52 119.324 228.104C120.907 229.688 123.055 230.579 125.294 230.58V230.58" stroke="#181828" stroke-width="3" stroke-linecap="round" stroke-linejoin="round"/>
<path id="Vector_54" d="M78.609 220.899V222.132C78.609 224.373 77.719 226.521 76.1347 228.106C74.5505 229.69 72.4019 230.58 70.1615 230.58V230.58" stroke="#181828" stroke-width="3" stroke-linecap="round" stroke-linejoin="round"/>
<path id="Vector_55" d="M110.471 318.861H114.088C115.535 318.861 116.968 319.146 118.304 319.7C119.641 320.253 120.855 321.065 121.878 322.088C122.901 323.111 123.713 324.325 124.267 325.662C124.82 326.999 125.105 328.431 125.105 329.878V330.157C125.105 331.167 124.704 332.135 123.99 332.849C123.276 333.563 122.308 333.964 121.299 333.964H103.273C102.264 333.964 101.295 333.563 100.582 332.849C99.8677 332.135 99.4667 331.167 99.4667 330.157V329.866C99.4699 326.948 100.63 324.151 102.693 322.088C104.756 320.025 107.553 318.864 110.471 318.861Z" stroke="#181828" stroke-width="4" stroke-linecap="round" stroke-linejoin="round"/>
<path id="Vector_56" d="M115.03 314.331H119.301" stroke="#181828" stroke-width="2" stroke-linecap="round" stroke-linejoin="round"/>
<path id="Vector_57" d="M115.03 316.456H118.314" stroke="#181828" stroke-width="2" stroke-linecap="round" stroke-linejoin="round"/>
<path id="Vector_58" opacity="0.5" d="M124.431 172.039V220.167" stroke="#076164" stroke-width="4" stroke-miterlimit="10"/>
<path id="Vector_59" d="M69.8902 204.304V208.604" stroke="#181828" stroke-width="4" stroke-linecap="round" stroke-linejoin="round"/>
<path id="Vector_60" d="M92.3839 113.429L105.949 113.684L105.538 142.829C105.525 143.72 105.335 144.601 104.981 145.419C104.627 146.238 104.114 146.978 103.473 147.598C102.832 148.218 102.074 148.705 101.244 149.031C100.414 149.358 99.528 149.517 98.6363 149.5V149.5C96.8351 149.46 95.123 148.709 93.8743 147.41C92.6256 146.111 91.942 144.371 91.9729 142.57L92.3839 113.425V113.429Z" fill="#FDC6A2"/>
<path id="Vector_61" opacity="0.49" d="M106.282 133.945L105.431 141.016C103.886 141.352 102.276 141.225 100.803 140.65C98.1939 139.478 95.4606 138.605 92.6553 138.048H92.5977L92.6635 133.937C97.1672 134.744 101.779 134.744 106.282 133.937V133.945Z" fill="#E89176"/>
<path id="Vector_62" d="M92.199 113.429L105.764 113.684L105.353 142.824C105.34 143.716 105.151 144.596 104.796 145.414C104.442 146.232 103.93 146.972 103.289 147.592C102.649 148.212 101.892 148.699 101.062 149.026C100.233 149.353 99.3468 149.512 98.4555 149.496V149.496C96.6528 149.459 94.9382 148.71 93.687 147.412C92.4358 146.113 91.7499 144.372 91.7797 142.57L92.1907 113.425L92.199 113.429Z" stroke="#1B1B2B" stroke-width="4" stroke-linecap="round" stroke-linejoin="round"/>
<path id="Vector_63" d="M120.587 18.4264C118.557 17.8221 115.988 18.5743 114.52 17.1931C97.5305 1.28472 72.8416 11.8492 72.8416 11.8492C83.2458 11.6642 91.9071 20.8352 91.9071 20.8352V29.8788H128.817C128.817 29.8788 128.295 21.7437 127.53 21.2997C126.766 20.8558 120.587 18.4264 120.587 18.4264Z" fill="#BA8063"/>
<path id="Vector_64" d="M114.52 17.2014C97.5305 1.29296 71.0658 11.4998 71.0658 11.4998C73.6227 11.4546 79.7682 13.0948 82.0085 13.9005C90.1683 10.0652 102.361 11.1751 112.744 16.8643L114.52 17.2014Z" fill="#E89C7C"/>
<path id="Vector_65" d="M114.685 16.7821C111.032 13.2916 106.348 11.0754 101.333 10.4639C91.8126 8.33868 82.6745 10.6407 78.1527 12.1657C76.6927 11.8241 75.1958 11.6667 73.6967 11.6971C73.6967 11.6971 97.7279 0.643449 114.685 16.7821Z" fill="white"/>
<path id="Vector_66" d="M136.044 27.8193C152.704 46.7286 131.797 97.915 131.797 97.915Z" fill="#E89C7C"/>
<path id="Vector_67" d="M65.4383 82.4588C65.4383 82.4588 54.8696 73.2549 60.6328 46.93C60.6328 46.93 56.1111 50.5145 54.2777 53.9182C54.2777 53.9182 49.2133 28.4729 73.154 18.6894C85.2395 13.7566 93.3499 19.9226 97.2715 25.8092" fill="#E89C7C"/>
<path id="Vector_68" d="M131.797 92.1148L135.74 66.5175C135.745 61.7258 134.804 56.9804 132.969 52.5537C131.135 48.127 128.444 44.1064 125.052 40.7228C124.641 40.3117 124.267 39.9541 123.855 39.5841C117.459 43.4523 108.827 45.816 99.2611 45.816C89.6955 45.816 81.0425 43.44 74.6668 39.5677C70.9171 42.9833 67.9232 47.1453 65.8773 51.7865C63.8314 56.4276 62.7787 61.4454 62.7869 66.5175V80.2102C60.0861 76.379 55.2396 66.2667 59.56 46.5477C59.56 46.5477 55.0382 50.1322 53.2007 53.5359C53.2007 53.5359 49.5586 34.2155 72.6978 22.6768C79.3612 19.3471 85.9548 19.0964 95.9273 26.249L95.6766 23.8648C95.6766 23.8648 117.546 9.72809 135.189 27.7289C148.088 40.8831 137.026 80.5226 131.797 92.1148Z" fill="#BA8063"/>
<path id="Vector_69" d="M60.4807 75.7254C60.4807 75.7254 55.737 53.355 71.5426 41.9355L62.7868 77.2094L60.4807 75.7254Z" fill="#A06247"/>
<path id="Vector_70" d="M124.065 19.4746C128.327 21.3875 132.123 24.2039 135.189 27.7289C151.853 46.6381 131.571 98.5028 131.571 98.5028" stroke="#181828" stroke-width="4" stroke-linecap="round" stroke-linejoin="round"/>
<path id="Vector_71" d="M127.004 26.2408C126.456 25.6104 125.799 25.084 125.064 24.687" stroke="#131321" stroke-width="2.24" stroke-linecap="round" stroke-linejoin="round"/>
<path id="Vector_72" d="M123.692 24.1722C123.911 23.877 123.763 23.3951 123.36 23.096C122.957 22.7968 122.453 22.7937 122.233 23.0889C122.014 23.3842 122.163 23.8661 122.566 24.1652C122.969 24.4643 123.473 24.4675 123.692 24.1722Z" fill="#1B1B2B"/>
<path id="Vector_73" d="M65.5205 80.7035L69.6764 80.7857C72.2794 80.8472 74.7525 81.9352 76.5567 83.8125C78.3609 85.6898 79.3497 88.2042 79.3078 90.8076C79.2869 92.0956 79.012 93.3668 78.4986 94.5483C77.9852 95.7297 77.2436 96.7982 76.3162 97.6923C75.3889 98.5864 74.2941 99.2886 73.0947 99.7585C71.8953 100.228 70.6149 100.457 69.327 100.431L65.1752 100.349C62.5715 100.288 60.0973 99.2006 58.2923 97.3232C56.4872 95.4457 55.4978 92.9307 55.5397 90.3267C55.5605 89.0387 55.8355 87.7674 56.3489 86.586C56.8623 85.4045 57.6039 84.3361 58.5313 83.442C59.4586 82.5479 60.5534 81.8457 61.7528 81.3757C62.9522 80.9058 64.2326 80.6774 65.5205 80.7035V80.7035Z" fill="#FDC6A2"/>
<path id="Vector_74" d="M52.4197 90.2116C52.4562 88.1782 53.1227 86.2063 54.327 84.5676" stroke="#181828" stroke-width="4" stroke-linecap="round" stroke-linejoin="round"/>
<path id="Vector_75" d="M57.3114 81.875C58.856 80.9815 60.6164 80.5293 62.4005 80.5678L66.5564 80.6501C69.1601 80.7105 71.6343 81.798 73.4393 83.6754C75.2444 85.5529 76.2338 88.0679 76.1919 90.672V90.672C76.171 91.96 75.896 93.2312 75.3827 94.4126C74.8693 95.5941 74.1276 96.6625 73.2003 97.5566C72.273 98.4508 71.1782 99.1529 69.9788 99.6229C68.7794 100.093 67.499 100.321 66.2111 100.295L62.0552 100.213C60.0955 100.169 58.1933 99.5419 56.5914 98.4122C54.9895 97.2825 53.7604 95.7012 53.0609 93.8701" stroke="#181828" stroke-width="4" stroke-linecap="round" stroke-linejoin="round"/>
<path id="Vector_76" d="M64.1557 88.7399L66.3179 88.781C67.6732 88.8102 68.9617 89.375 69.9016 90.3518C70.8415 91.3287 71.3561 92.638 71.333 93.9934V93.9934C71.3223 94.6639 71.1793 95.3256 70.912 95.9406C70.6448 96.5555 70.2586 97.1116 69.7758 97.5769C69.293 98.0422 68.7229 98.4074 68.0985 98.6517C67.474 98.896 66.8075 99.0144 66.1371 99.0002L63.9748 98.9591C62.6196 98.93 61.3311 98.3652 60.3912 97.3883C59.4513 96.4115 58.9367 95.1021 58.9598 93.7468V93.7468C58.9705 93.0763 59.1135 92.4146 59.3808 91.7996C59.648 91.1846 60.0342 90.6285 60.517 90.1633C60.9998 89.698 61.5699 89.3327 62.1943 89.0885C62.8188 88.8442 63.4853 88.7258 64.1557 88.7399V88.7399Z" fill="#E89176"/>
<path id="Vector_77" d="M59.0544 86.812C59.3863 85.9357 60.0407 85.2195 60.8836 84.8101C61.5783 84.5388 61.2741 83.4042 60.5753 83.6838C59.4316 84.1648 58.5223 85.0755 58.0431 86.2201C57.9641 86.3574 57.9418 86.5202 57.981 86.6737C58.0201 86.8272 58.1177 86.9594 58.2528 87.0422C58.387 87.1202 58.5466 87.1419 58.6968 87.1026C58.847 87.0633 58.9755 86.9663 59.0544 86.8326V86.812Z" fill="white"/>
<path id="Vector_78" d="M58.7865 89.4757C58.8669 88.9453 58.5877 88.4631 58.1629 88.3988C57.7381 88.3344 57.3286 88.7122 57.2482 89.2427C57.1678 89.7731 57.4471 90.2553 57.8718 90.3196C58.2966 90.384 58.7061 90.0062 58.7865 89.4757Z" fill="white"/>
<path id="Vector_79" d="M131.481 80.7035L135.637 80.7857C138.24 80.8472 140.713 81.9352 142.517 83.8125C144.321 85.6898 145.31 88.2042 145.268 90.8076V90.8076C145.247 92.0956 144.972 93.3668 144.459 94.5483C143.946 95.7297 143.204 96.7982 142.277 97.6923C141.349 98.5864 140.254 99.2886 139.055 99.7585C137.856 100.228 136.575 100.457 135.287 100.431L131.136 100.349C128.532 100.288 126.058 99.2006 124.253 97.3232C122.448 95.4457 121.458 92.9307 121.5 90.3267V90.3267C121.521 89.0387 121.796 87.7674 122.309 86.586C122.823 85.4045 123.564 84.3361 124.492 83.442C125.419 82.5479 126.514 81.8457 127.713 81.3757C128.913 80.9058 130.193 80.6774 131.481 80.7035V80.7035Z" fill="#FDC6A2"/>
<path id="Vector_80" d="M131.481 80.5678L135.637 80.6501C138.24 80.7116 140.713 81.7996 142.517 83.6769C144.321 85.5542 145.31 88.0686 145.268 90.672V90.672C145.247 91.96 144.972 93.2312 144.459 94.4126C143.946 95.5941 143.204 96.6625 142.277 97.5566C141.349 98.4508 140.254 99.1529 139.055 99.6229C137.856 100.093 136.575 100.321 135.287 100.295L131.136 100.213C128.535 100.152 126.064 99.0678 124.26 97.1948C122.455 95.3218 121.464 92.8121 121.5 90.2116V90.2116C121.518 88.9218 121.791 87.6484 122.303 86.4645C122.816 85.2807 123.557 84.2098 124.484 83.3136C125.412 82.4173 126.508 81.7133 127.708 81.2421C128.909 80.7708 130.191 80.5417 131.481 80.5678V80.5678Z" stroke="#181828" stroke-width="4" stroke-linecap="round" stroke-linejoin="round"/>
<path id="Vector_81" d="M133.236 88.7399L135.398 88.781C136.754 88.8102 138.042 89.375 138.982 90.3518C139.922 91.3287 140.437 92.638 140.413 93.9934V93.9934C140.403 94.6639 140.26 95.3256 139.992 95.9406C139.725 96.5555 139.339 97.1116 138.856 97.5769C138.373 98.0422 137.803 98.4074 137.179 98.6517C136.554 98.896 135.888 99.0144 135.217 99.0002L133.055 98.9591C131.7 98.93 130.411 98.3653 129.47 97.3886C128.53 96.4119 128.014 95.1025 128.036 93.7468C128.048 93.0763 128.192 92.4147 128.46 91.8C128.728 91.1852 129.114 90.6294 129.597 90.1643C130.08 89.6992 130.65 89.3339 131.275 89.0895C131.899 88.8451 132.566 88.7263 133.236 88.7399V88.7399Z" fill="#E89176"/>
<path id="Vector_82" d="M126.162 87.7986C126.492 86.9216 127.147 86.205 127.991 85.7967C128.681 85.5254 128.381 84.3908 127.678 84.6703C126.536 85.1515 125.628 86.0624 125.15 87.2066C125.077 87.3418 125.057 87.5 125.096 87.649C125.135 87.798 125.229 87.9265 125.36 88.0082C125.494 88.0862 125.654 88.1079 125.804 88.0686C125.954 88.0294 126.083 87.9323 126.162 87.7986V87.7986Z" fill="white"/>
<path id="Vector_83" d="M125.562 90.1849C125.64 89.6549 125.36 89.1744 124.935 89.1117C124.511 89.049 124.103 89.4279 124.025 89.9579C123.947 90.488 124.227 90.9685 124.652 91.0311C125.076 91.0938 125.484 90.715 125.562 90.1849Z" fill="white"/>
<path id="Vector_84" d="M135.994 66.8134V99.103C135.994 108.778 132.151 118.056 125.31 124.897C118.469 131.738 109.191 135.581 99.516 135.581C89.8413 135.581 80.5629 131.738 73.7219 124.897C66.8809 118.056 63.0376 108.778 63.0376 99.103V66.8134C63.0317 61.7431 64.0859 56.7275 66.1325 52.0886C68.179 47.4497 71.1728 43.2898 74.9217 39.876C81.2974 43.7483 89.9668 46.1243 99.516 46.1243C109.065 46.1243 117.731 43.7606 124.114 39.8801C124.526 40.2501 124.937 40.6282 125.311 41.0188C128.703 44.4027 131.393 48.4235 133.226 52.8501C135.06 57.2768 136 62.0221 135.994 66.8134V66.8134Z" fill="#FDC6A2"/>
<path id="Vector_85" d="M102.796 135.051C101.863 135.125 100.918 135.158 99.9641 135.158C79.8216 135.158 61.3235 119.085 63.4857 98.6796V66.39C63.4798 61.3197 64.534 56.3042 66.5805 51.6652C68.6271 47.0263 71.6209 42.8664 75.3697 39.4526C76.5248 40.1514 76.2782 40.8091 77.5772 41.4052C71.4358 47.933 66.6838 56.7217 66.6838 66.39V98.6796C66.6838 117.881 81.47 134.422 102.796 135.051Z" fill="white"/>
<path id="Vector_86" d="M120.181 80.6131C121.656 80.6131 122.852 79.4168 122.852 77.9411C122.852 76.4654 121.656 75.2691 120.181 75.2691C118.705 75.2691 117.509 76.4654 117.509 77.9411C117.509 79.4168 118.705 80.6131 120.181 80.6131Z" fill="#FDC6A2"/>
<path id="Vector_87" d="M74.6532 51.2859C75.7691 49.3532 75.5643 47.1459 74.1959 46.3559C72.8275 45.5658 70.8136 46.4921 69.6977 48.4248C68.5819 50.3575 68.7867 52.5647 70.1551 53.3548C71.5235 54.1448 73.5374 53.2185 74.6532 51.2859Z" fill="white"/>
<path id="Vector_88" d="M77.0757 50.5926C77.5365 50.5926 77.9101 50.0662 77.9101 49.4169C77.9101 48.7676 77.5365 48.2413 77.0757 48.2413C76.6148 48.2413 76.2412 48.7676 76.2412 49.4169C76.2412 50.0662 76.6148 50.5926 77.0757 50.5926Z" fill="white"/>
<path id="Vector_89" d="M76.3029 53.096C76.6775 53.096 76.9811 52.7924 76.9811 52.4178C76.9811 52.0432 76.6775 51.7395 76.3029 51.7395C75.9283 51.7395 75.6246 52.0432 75.6246 52.4178C75.6246 52.7924 75.9283 53.096 76.3029 53.096Z" fill="white"/>
<path id="Vector_90" opacity="0.62" d="M125.508 41.1914C125.117 40.7804 124.723 40.4227 124.316 40.0528C123.099 40.788 121.841 41.4509 120.546 42.0382C120.715 42.2191 120.871 42.4041 121.036 42.585C109.328 48.1755 97.1441 46.8971 97.0208 46.8806C96.7608 46.8512 96.4997 46.9263 96.2951 47.0893C96.0904 47.2524 95.9589 47.49 95.9294 47.7501C95.9 48.0101 95.975 48.2711 96.1381 48.4758C96.3011 48.6805 96.5388 48.812 96.7988 48.8414C98.0432 48.9641 99.2933 49.0204 100.544 49.01C105.3 49.01 113.891 48.3112 122.355 44.1347C127.579 50.6041 130.423 58.671 130.412 66.9861V99.2757C130.413 108.45 126.956 117.288 120.731 124.028C114.506 130.767 105.969 134.913 96.8235 135.639C97.7772 135.713 98.7432 135.754 99.701 135.754C104.492 135.755 109.235 134.811 113.661 132.978C118.087 131.145 122.109 128.458 125.496 125.071C128.884 121.684 131.571 117.662 133.404 113.236C135.237 108.81 136.18 104.066 136.179 99.2757V66.9861C136.188 62.1955 135.25 57.4503 133.418 53.0236C131.587 48.5968 128.899 44.5757 125.508 41.1914V41.1914Z" fill="#E89176"/>
<g id="Group" opacity="0.62">
<path id="Vector_91" opacity="0.62" d="M120.119 48.4715C120.988 48.4715 121.693 47.9359 121.693 47.2753C121.693 46.6146 120.988 46.079 120.119 46.079C119.249 46.079 118.544 46.6146 118.544 47.2753C118.544 47.9359 119.249 48.4715 120.119 48.4715Z" fill="#E89176"/>
<path id="Vector_92" opacity="0.62" d="M122.602 49.084C122.956 49.084 123.243 48.8668 123.243 48.5989C123.243 48.331 122.956 48.1138 122.602 48.1138C122.248 48.1138 121.96 48.331 121.96 48.5989C121.96 48.8668 122.248 49.084 122.602 49.084Z" fill="#E89176"/>
<path id="Vector_93" opacity="0.62" d="M117.928 49.7047C118.375 49.7047 118.738 49.4286 118.738 49.0881C118.738 48.7475 118.375 48.4715 117.928 48.4715C117.481 48.4715 117.118 48.7475 117.118 49.0881C117.118 49.4286 117.481 49.7047 117.928 49.7047Z" fill="#E89176"/>
</g>
<path id="Vector_94" d="M135.994 58.1481C135.824 58.1487 135.66 58.0905 135.528 57.9833C135.396 57.8762 135.305 57.7267 135.271 57.5602C133.01 46.9875 127.193 42.1657 127.132 42.1163C126.989 41.9898 126.9 41.8129 126.885 41.6227C126.869 41.4325 126.928 41.2436 127.049 41.0956C127.169 40.9475 127.342 40.8518 127.531 40.8283C127.721 40.8048 127.912 40.8553 128.065 40.9694C128.32 41.175 134.35 46.1736 136.718 57.2519C136.758 57.4443 136.721 57.6448 136.614 57.8096C136.507 57.9744 136.339 58.0902 136.146 58.1316C136.096 58.1412 136.045 58.1467 135.994 58.1481V58.1481Z" fill="#A06247"/>
<path id="Vector_95" d="M76.9565 20.8722C78.7967 20.4329 80.6982 20.3092 82.5799 20.5064C86.5056 20.9585 90.3533 23.2688 91.9071 26.8985" stroke="#1B1B2B" stroke-width="2.24" stroke-linecap="round" stroke-linejoin="round"/>
<path id="Vector_96" d="M71.1809 23.018C72.0703 22.5602 72.9828 22.1486 73.9146 21.7848" stroke="#1B1B2B" stroke-width="2.24" stroke-linecap="round" stroke-linejoin="round"/>
<path id="Vector_97" d="M94.8503 11.5491C94.8503 11.5491 105.127 12.1822 109.945 17.966" stroke="#1B1B2B" stroke-width="2.24" stroke-linecap="round" stroke-linejoin="round"/>
<path id="Vector_98" d="M107.211 40.1966C108.074 40.1966 108.773 39.4973 108.773 38.6346C108.773 37.7719 108.074 37.0725 107.211 37.0725C106.349 37.0725 105.649 37.7719 105.649 38.6346C105.649 39.4973 106.349 40.1966 107.211 40.1966Z" fill="#A06247"/>
<path id="Vector_99" d="M110.229 41.9313C110.796 41.9313 111.256 41.4712 111.256 40.9037C111.256 40.3361 110.796 39.876 110.229 39.876C109.661 39.876 109.201 40.3361 109.201 40.9037C109.201 41.4712 109.661 41.9313 110.229 41.9313Z" fill="#A06247"/>
<path id="Vector_100" d="M104.215 37.8289C104.632 37.8289 104.971 37.4902 104.971 37.0725C104.971 36.6548 104.632 36.3161 104.215 36.3161C103.797 36.3161 103.458 36.6548 103.458 37.0725C103.458 37.4902 103.797 37.8289 104.215 37.8289Z" fill="#A06247"/>
<path id="Vector_101" d="M102.702 38.9758C102.89 38.9758 103.043 38.823 103.043 38.6346C103.043 38.4461 102.89 38.2934 102.702 38.2934C102.513 38.2934 102.361 38.4461 102.361 38.6346C102.361 38.823 102.513 38.9758 102.702 38.9758Z" fill="#A06247"/>
<path id="Vector_102" d="M110.228 38.6346C110.592 38.6346 110.886 38.3401 110.886 37.9768C110.886 37.6136 110.592 37.3191 110.228 37.3191C109.865 37.3191 109.571 37.6136 109.571 37.9768C109.571 38.3401 109.865 38.6346 110.228 38.6346Z" fill="#A06247"/>
<path id="Vector_103" d="M102.702 42.9796C103.487 42.9796 104.124 42.3428 104.124 41.5573C104.124 40.7718 103.487 40.135 102.702 40.135C101.916 40.135 101.28 40.7718 101.28 41.5573C101.28 42.3428 101.916 42.9796 102.702 42.9796Z" fill="#A06247"/>
<path id="Vector_104" d="M79.0447 42.5685C79.0447 42.5685 82.5224 39.3457 81.6591 34.7911C83.0085 35.8873 84.01 37.3524 84.5413 39.0077C85.0727 40.6631 85.111 42.4373 84.6517 44.1141" fill="#A06247"/>
<path id="Vector_105" d="M90.1683 44.11C90.1683 44.11 92.7169 38.1783 91.1795 30.2898C91.1795 30.2898 95.7753 35.7324 95.4135 46.3216" fill="#A06247"/>
<path id="Vector_106" d="M94.1926 45.4049C96.0959 44.6156 97.3579 40.9571 97.3003 38.3304C98.2051 39.4345 98.8187 40.7479 99.0852 42.1503C99.3516 43.5527 99.2623 44.9996 98.8254 46.3586" fill="#A06247"/>
<path id="Vector_107" d="M83.6816 43.9662C85.1285 43.366 86.0905 40.5872 86.0452 38.5894C86.7328 39.4283 87.1991 40.4262 87.4016 41.4919C87.6041 42.5575 87.5363 43.6569 87.2044 44.6896" fill="#A06247"/>
<path id="Vector_108" d="M86.1069 44.0566C87.1715 43.6167 87.8786 41.5902 87.8457 40.098C88.3478 40.7166 88.6875 41.4508 88.834 42.234C88.9804 43.0172 88.9289 43.8245 88.6843 44.5828" fill="#A06247"/>
<path id="Vector_109" d="M88.0759 44.5828C89.1406 44.1429 89.8476 42.1163 89.8148 40.6241C90.3214 41.242 90.665 41.9769 90.8144 42.7618C90.9638 43.5466 90.914 44.3564 90.6698 45.1171" fill="#A06247"/>
<path id="Vector_110" d="M98.0115 29.4184C98.5178 29.4184 98.9282 29.008 98.9282 28.5017C98.9282 27.9954 98.5178 27.585 98.0115 27.585C97.5052 27.585 97.0948 27.9954 97.0948 28.5017C97.0948 29.008 97.5052 29.4184 98.0115 29.4184Z" fill="#1B1B2B"/>
<path id="Vector_111" opacity="0.39" d="M123.564 127.072C116.774 132.936 108.067 136.101 99.0964 135.966C90.1261 135.83 81.5184 132.403 74.9093 126.336L79.538 112.771C80.393 109.861 82.8265 107.304 85.8356 106.753H113.525C116.538 107.3 118.972 109.844 119.831 112.771L123.564 127.072Z" fill="#C08976"/>
<path id="Vector_112" d="M77.3758 76.3174C77.1756 76.3281 76.978 76.2688 76.8168 76.1497C76.6556 76.0306 76.5409 75.8592 76.4923 75.6647C76.4437 75.4703 76.4642 75.265 76.5504 75.0841C76.6366 74.9032 76.7831 74.7579 76.9647 74.6731C78.9811 73.656 81.2055 73.1189 83.4639 73.104C85.7223 73.089 87.9535 73.5965 89.9833 74.5868C90.1882 74.6893 90.3441 74.869 90.4166 75.0864C90.489 75.3038 90.4722 75.541 90.3697 75.746C90.2672 75.951 90.0875 76.1068 89.8701 76.1793C89.6527 76.2518 89.4154 76.2349 89.2105 76.1324C87.4257 75.2643 85.4649 74.819 83.4802 74.8311C81.4955 74.8432 79.5403 75.3124 77.7663 76.2023C77.6478 76.2728 77.5135 76.3124 77.3758 76.3174Z" fill="#2E2D4C"/>
<path id="Vector_113" d="M108.453 76.3174C108.253 76.3281 108.055 76.2688 107.894 76.1497C107.733 76.0306 107.618 75.8592 107.569 75.6647C107.521 75.4703 107.541 75.265 107.627 75.0841C107.714 74.9032 107.86 74.7579 108.042 74.6731C110.058 73.656 112.282 73.1189 114.541 73.104C116.799 73.089 119.03 73.5965 121.06 74.5868C121.265 74.6893 121.421 74.869 121.493 75.0864C121.566 75.3038 121.549 75.541 121.447 75.746C121.344 75.951 121.164 76.1068 120.947 76.1793C120.73 76.2518 120.492 76.2349 120.287 76.1324C118.503 75.2643 116.542 74.819 114.557 74.8311C112.572 74.8432 110.617 75.3124 108.843 76.2023C108.725 76.2728 108.59 76.3124 108.453 76.3174Z" fill="#2E2D4C"/>
<path id="Vector_114" d="M58.7255 91.2845C59.8686 89.8878 61.4584 88.9281 63.2267 88.5673" stroke="#1B1B2B" stroke-width="3" stroke-linecap="round" stroke-linejoin="round"/>
<path id="Vector_115" d="M140.911 91.2845C139.769 89.8889 138.18 88.9293 136.414 88.5673" stroke="#1B1B2B" stroke-width="3" stroke-linecap="round" stroke-linejoin="round"/>
<path id="Vector_116" d="M79.4393 130.813L78.4117 132.601" stroke="#2E2D4C" stroke-width="2" stroke-linecap="round" stroke-linejoin="round"/>
<path id="Vector_117" d="M85.8726 130.657L84.8408 132.445" stroke="#2E2D4C" stroke-width="2" stroke-linecap="round" stroke-linejoin="round"/>
<path id="Vector_118" d="M78.0458 125.128L77.014 126.92" stroke="#2E2D4C" stroke-width="2" stroke-linecap="round" stroke-linejoin="round"/>
<path id="Vector_119" d="M84.6887 113.93L83.661 115.718" stroke="#2E2D4C" stroke-width="2" stroke-linecap="round" stroke-linejoin="round"/>
<path id="Vector_120" d="M79.8134 117.297L78.7816 119.085" stroke="#2E2D4C" stroke-width="2" stroke-linecap="round" stroke-linejoin="round"/>
<path id="Vector_121" d="M81.7085 121.009L80.6767 122.797" stroke="#2E2D4C" stroke-width="2" stroke-linecap="round" stroke-linejoin="round"/>
<path id="Vector_122" d="M84.6887 125.403L83.661 127.196" stroke="#2E2D4C" stroke-width="2" stroke-linecap="round" stroke-linejoin="round"/>
<path id="Vector_123" d="M119.769 130.813L120.801 132.601" stroke="#2E2D4C" stroke-width="2" stroke-linecap="round" stroke-linejoin="round"/>
<path id="Vector_124" d="M114.051 132.56L115.083 134.348" stroke="#2E2D4C" stroke-width="2" stroke-linecap="round" stroke-linejoin="round"/>
<path id="Vector_125" d="M121.163 125.128L122.195 126.92" stroke="#2E2D4C" stroke-width="2" stroke-linecap="round" stroke-linejoin="round"/>
<path id="Vector_126" d="M113.131 113.034L114.162 114.822" stroke="#2E2D4C" stroke-width="2" stroke-linecap="round" stroke-linejoin="round"/>
<path id="Vector_127" d="M119.399 117.297L120.427 119.085" stroke="#2E2D4C" stroke-width="2" stroke-linecap="round" stroke-linejoin="round"/>
<path id="Vector_128" d="M116.057 120.113L117.089 121.901" stroke="#2E2D4C" stroke-width="2" stroke-linecap="round" stroke-linejoin="round"/>
<path id="Vector_129" d="M113.649 125.128L114.676 126.92" stroke="#2E2D4C" stroke-width="2" stroke-linecap="round" stroke-linejoin="round"/>
<path id="Vector_130" d="M88.5446 134.122V136.691" stroke="#2E2D4C" stroke-width="2" stroke-linecap="round" stroke-linejoin="round"/>
<path id="Vector_131" d="M110.192 134.122V136.691" stroke="#2E2D4C" stroke-width="2" stroke-linecap="round" stroke-linejoin="round"/>
<path id="Vector_132" d="M92.3017 129.781V132.35" stroke="#2E2D4C" stroke-width="2" stroke-linecap="round" stroke-linejoin="round"/>
<path id="Vector_133" d="M105.649 129.387V131.956" stroke="#2E2D4C" stroke-width="2" stroke-linecap="round" stroke-linejoin="round"/>
<path id="Vector_134" d="M109.793 127.113V128.203" stroke="#2E2D4C" stroke-width="2" stroke-linecap="round" stroke-linejoin="round"/>
<path id="Vector_135" d="M96.8728 130.772V131.861" stroke="#2E2D4C" stroke-width="2" stroke-linecap="round" stroke-linejoin="round"/>
<path id="Vector_136" d="M97.4154 135.417V137.986" stroke="#2E2D4C" stroke-width="2" stroke-linecap="round" stroke-linejoin="round"/>
<path id="Vector_137" d="M99.0515 92.7355V98.3795C99.1914 100.613 99.6681 102.812 100.466 104.903V104.903" stroke="#181828" stroke-width="4" stroke-linecap="round" stroke-linejoin="round"/>
<path id="Vector_138" d="M126.943 81.1022C127.409 81.1305 127.873 81.0221 128.278 80.7902C128.683 80.5584 129.012 80.2132 129.224 79.7971C129.436 79.381 129.521 78.9121 129.47 78.448C129.419 77.9839 129.233 77.5448 128.936 77.1847C128.603 76.7737 120.629 67.5287 104.704 71.7997C104.129 71.9956 103.649 72.4027 103.363 72.9386C103.076 73.4745 103.004 74.0992 103.161 74.6863C103.318 75.2734 103.691 75.779 104.207 76.1009C104.722 76.4228 105.341 76.5369 105.937 76.4201C118.775 72.9589 125.011 79.9553 125.257 80.2554C125.468 80.5018 125.725 80.7036 126.014 80.8491C126.304 80.9945 126.619 81.0806 126.943 81.1022Z" fill="#D08C6F"/>
<path id="Vector_139" d="M103.569 74.3648C103.651 74.6688 103.792 74.9536 103.984 75.203C104.176 75.4525 104.416 75.6616 104.689 75.8185C104.962 75.9754 105.263 76.077 105.575 76.1174C105.887 76.1579 106.204 76.1364 106.508 76.0543C119.342 72.5931 125.574 79.5895 125.829 79.8855C126.18 80.2958 126.66 80.5753 127.191 80.6786C127.721 80.7819 128.271 80.7028 128.751 80.4543C129.23 80.2058 129.612 79.8025 129.834 79.3097C130.056 78.8169 130.104 78.2636 129.972 77.7397C129.823 78.0035 129.627 78.2376 129.393 78.4303C128.919 78.8329 128.307 79.0349 127.687 78.9934C127.369 78.9729 127.058 78.8897 126.772 78.7486C126.486 78.6075 126.231 78.4113 126.022 78.1713C125.763 77.8712 119.552 70.8789 106.702 74.3401C106.087 74.5047 105.433 74.4189 104.882 74.1013C104.331 73.7838 103.928 73.2606 103.762 72.6465V72.6465C103.484 73.1747 103.415 73.7881 103.569 74.3648V74.3648Z" fill="#723F28"/>
<path id="Vector_140" d="M126.943 81.1022C127.409 81.1305 127.873 81.0221 128.278 80.7902C128.683 80.5584 129.012 80.2132 129.224 79.7971C129.436 79.381 129.521 78.9121 129.47 78.448C129.419 77.9839 129.233 77.5448 128.936 77.1847C128.603 76.7737 120.629 67.5287 104.704 71.7997C104.129 71.9956 103.649 72.4027 103.363 72.9386C103.076 73.4745 103.004 74.0992 103.161 74.6863C103.318 75.2734 103.691 75.779 104.207 76.1009C104.722 76.4228 105.341 76.5369 105.937 76.4201C118.775 72.9589 125.011 79.9553 125.257 80.2554C125.468 80.5018 125.725 80.7036 126.014 80.8491C126.304 80.9945 126.619 81.0806 126.943 81.1022Z" stroke="#1B1B2B" stroke-width="3" stroke-linecap="round" stroke-linejoin="round"/>
<path id="Vector_141" d="M69.7751 81.1927C69.3078 81.2052 68.8472 81.0805 68.4502 80.8337C68.0532 80.587 67.7373 80.2293 67.5417 79.8048C67.3461 79.3803 67.2793 78.9077 67.3497 78.4457C67.4201 77.9836 67.6245 77.5523 67.9376 77.2053C68.287 76.8189 76.5906 67.8863 92.3593 72.7698C92.9305 72.9864 93.3975 73.4129 93.6647 73.9622C93.932 74.5115 93.9795 75.1421 93.7973 75.7252C93.6152 76.3084 93.2173 76.7999 92.6849 77.0994C92.1525 77.399 91.5258 77.4839 90.9329 77.3368C78.2431 73.3782 71.7441 80.1239 71.4728 80.4157C71.2557 80.6517 70.9938 80.842 70.7023 80.9754C70.4107 81.1088 70.0955 81.1827 69.7751 81.1927V81.1927Z" fill="#D08C6F"/>
<path id="Vector_142" d="M93.3787 75.3801C93.1886 75.986 92.7659 76.4917 92.2032 76.7862C91.6406 77.0806 90.9841 77.1397 90.3779 76.9504C77.6882 72.9918 71.1892 79.7375 70.9179 80.0252C70.55 80.4196 70.06 80.6784 69.5269 80.7598C68.9938 80.8412 68.4488 80.7404 67.9801 80.4737C67.5113 80.207 67.1463 79.79 66.9439 79.2902C66.7415 78.7903 66.7136 78.2368 66.8647 77.7191C67.0004 77.9897 67.1875 78.2312 67.4155 78.4303C67.8722 78.8543 68.4781 79.0804 69.1009 79.0592C69.4196 79.0515 69.7335 78.9802 70.0244 78.8496C70.3152 78.7191 70.577 78.5318 70.7945 78.2987C71.0658 78.011 77.5443 71.2653 90.2546 75.2239C90.5553 75.3175 90.8714 75.3508 91.185 75.3221C91.4986 75.2934 91.8034 75.2031 92.0821 75.0565C92.3608 74.9099 92.6079 74.7099 92.8092 74.4677C93.0105 74.2256 93.1621 73.9462 93.2554 73.6454V73.6454C93.5131 74.1876 93.5571 74.807 93.3787 75.3801V75.3801Z" fill="#723F28"/>
<path id="Vector_143" d="M69.2818 81.2256C68.815 81.2371 68.355 81.1117 67.9586 80.865C67.5621 80.6183 67.2466 80.2609 67.0508 79.837C66.855 79.4131 66.7875 78.9411 66.8567 78.4793C66.9259 78.0175 67.1288 77.5861 67.4402 77.2382C67.7896 76.8518 76.0973 67.9151 91.8619 72.8027C92.4308 73.0205 92.8954 73.4468 93.1612 73.9949C93.4271 74.543 93.4742 75.1718 93.2931 75.7534C93.112 76.335 92.7161 76.8258 92.1861 77.1261C91.656 77.4263 91.0316 77.5134 90.4396 77.3697C77.7498 73.4111 71.2467 80.1568 70.9754 80.4486C70.7591 80.6845 70.4979 80.8747 70.207 81.0081C69.9162 81.1415 69.6016 81.2155 69.2818 81.2256V81.2256Z" stroke="#181828" stroke-width="3" stroke-linecap="round" stroke-linejoin="round"/>
<path id="Vector_144" d="M63.609 105.68C63.2133 103.51 63.0151 101.309 63.0171 99.103V66.8134C63.0112 61.7431 64.0654 56.7276 66.1119 52.0886C68.1585 47.4497 71.1523 43.2898 74.9011 39.876C81.2768 43.7483 89.9463 46.1243 99.4955 46.1243C109.045 46.1243 117.706 43.7606 124.086 39.8801C124.497 40.2501 124.908 40.6283 125.282 41.0188C128.675 44.4024 131.365 48.423 133.2 52.8497C135.034 57.2763 135.975 62.0218 135.97 66.8134V99.103C135.969 107.098 133.343 114.871 128.494 121.228C123.646 127.584 116.843 132.172 109.133 134.286C101.423 136.4 93.2318 135.922 85.8194 132.927C78.4069 129.932 72.1835 124.585 68.1061 117.708" stroke="#181828" stroke-width="4" stroke-linecap="round" stroke-linejoin="round"/>
<path id="Vector_145" d="M116.806 23.6552C117.873 23.6552 118.738 23.2411 118.738 22.7303C118.738 22.2195 117.873 21.8054 116.806 21.8054C115.739 21.8054 114.874 22.2195 114.874 22.7303C114.874 23.2411 115.739 23.6552 116.806 23.6552Z" fill="#EA9B78"/>
<path id="Vector_146" d="M119.523 25.468C119.954 25.468 120.304 25.1183 120.304 24.6869C120.304 24.2556 119.954 23.9059 119.523 23.9059C119.091 23.9059 118.742 24.2556 118.742 24.6869C118.742 25.1183 119.091 25.468 119.523 25.468Z" fill="#D08C6F"/>
<path id="Vector_147" d="M69.7698 110.961C70.6359 110.652 70.9322 109.263 70.4316 107.858C69.931 106.453 68.8231 105.564 67.9569 105.873C67.0908 106.181 66.7945 107.57 67.2951 108.975C67.7957 110.38 68.9036 111.269 69.7698 110.961Z" fill="white"/>
<path id="Vector_148" opacity="0.89" d="M70.3834 105.018C70.8307 105.018 71.1933 104.656 71.1933 104.208C71.1933 103.761 70.8307 103.399 70.3834 103.399C69.9362 103.399 69.5736 103.761 69.5736 104.208C69.5736 104.656 69.9362 105.018 70.3834 105.018Z" fill="white"/>
<path id="Vector_149" opacity="0.59" d="M72.854 109.889C73.3921 109.889 73.8282 109.453 73.8282 108.915C73.8282 108.377 73.3921 107.941 72.854 107.941C72.3159 107.941 71.8798 108.377 71.8798 108.915C71.8798 109.453 72.3159 109.889 72.854 109.889Z" fill="white"/>
<path id="Vector_150" d="M65.2985 111.361C65.4922 112.173 65.7676 112.964 66.1207 113.721" stroke="#181828" stroke-width="4" stroke-linecap="round" stroke-linejoin="round"/>
<path id="Vector_151" d="M73.1623 36.9697L69.9231 39.2717" stroke="#181828" stroke-linecap="round" stroke-linejoin="round"/>
<path id="Vector_152" d="M73.1623 38.4907L71.5879 39.6088" stroke="#181828" stroke-linecap="round" stroke-linejoin="round"/>
<path id="Vector_153" d="M120.119 18.0153C118.088 17.411 115.523 18.1633 114.056 16.7821C97.066 0.873651 72.3772 11.4382 72.3772 11.4382C82.7772 11.2532 91.4426 20.4283 91.4426 20.4283" stroke="#181828" stroke-width="4" stroke-linecap="round" stroke-linejoin="round"/>
<path id="Vector_154" d="M60.4356 28.4359C64.1377 23.8903 69.1045 20.5443 74.7079 18.821" stroke="white" stroke-width="4" stroke-linecap="round" stroke-linejoin="round"/>
<path id="Vector_155" d="M63.5515 27.1452C63.8353 27.1452 64.0653 26.9151 64.0653 26.6313C64.0653 26.3475 63.8353 26.1175 63.5515 26.1175C63.2677 26.1175 63.0376 26.3475 63.0376 26.6313C63.0376 26.9151 63.2677 27.1452 63.5515 27.1452Z" fill="white"/>
<g id="Group_2" opacity="0.45">
<path id="Vector_156" opacity="0.45" d="M104.087 26.4176C103.691 25.7926 103.167 25.2588 102.55 24.8514C102.237 24.6564 101.871 24.5632 101.503 24.5846C101.135 24.6059 100.783 24.7408 100.494 24.9706C100.226 25.2546 100.054 25.6154 100.001 26.0024C99.8834 26.6651 99.9665 27.3479 100.239 27.9632C100.609 28.7853 101.296 29.4307 101.641 30.2569C101.818 30.668 101.9 31.149 102.098 31.5683C102.318 32.053 102.679 32.4602 103.135 32.7369C103.59 33.0136 104.117 33.1472 104.649 33.1201C105.181 33.0931 105.693 32.9067 106.117 32.5853C106.542 32.2638 106.86 31.8221 107.03 31.3175C107.318 30.4954 107.277 29.406 108.037 28.9744C108.395 28.8025 108.8 28.7534 109.188 28.8346C109.879 28.921 110.553 29.1265 111.244 29.1553C111.59 29.1935 111.939 29.1518 112.267 29.0335C112.594 28.9152 112.889 28.7234 113.131 28.4729C113.353 28.1749 113.504 27.8306 113.575 27.4658C113.928 26.0024 113.649 24.2964 112.514 23.3099C111.379 22.3233 109.328 22.4384 108.601 23.7579C108.247 24.3992 108.079 25.3447 107.367 25.4351C107.045 25.4269 106.727 25.3572 106.43 25.2296C106.176 25.1768 105.915 25.1762 105.661 25.2275C105.407 25.2789 105.166 25.3813 104.953 25.5285C104.739 25.6757 104.558 25.8646 104.42 26.0838C104.282 26.3031 104.189 26.548 104.149 26.804" fill="#EA9B78"/>
<path id="Vector_157" opacity="0.45" d="M116.008 29.8829C115.917 30.2579 115.734 30.6044 115.475 30.8914C115.217 31.1784 114.892 31.3968 114.528 31.5272C113.795 31.7863 113.012 31.8748 112.239 31.7861C111.983 31.7966 111.733 31.7083 111.54 31.5395C111.436 31.401 111.383 31.2314 111.388 31.0585C111.389 30.9049 111.421 30.753 111.482 30.6118C111.542 30.4707 111.631 30.343 111.741 30.2364V30.2364C111.832 30.1488 111.949 30.0926 112.074 30.0761C112.822 29.9711 113.522 29.6496 114.088 29.1512C114.206 29.0205 114.345 28.9107 114.5 28.8264C114.677 28.7604 114.866 28.7351 115.054 28.7524C115.301 28.7457 115.544 28.8161 115.749 28.9539C115.869 29.0732 115.956 29.2214 116.001 29.3842C116.046 29.5471 116.049 29.7188 116.008 29.8829V29.8829Z" fill="#EA9B78"/>
<path id="Vector_158" opacity="0.45" d="M62.6389 35.6954C63.3829 35.6173 63.8187 34.8157 63.9708 34.084C64.1229 33.3523 64.1434 32.5548 64.5915 31.9588C65.2451 31.0791 66.6674 31.0421 67.5224 31.7245C67.9321 32.0897 68.241 32.5541 68.4195 33.0731C68.598 33.5921 68.6402 34.1483 68.5419 34.6883C68.4548 35.3918 68.1468 36.0495 67.6622 36.5669C66.4618 37.8001 64.4846 37.6274 62.8115 37.2904C62.2484 37.1794 61.6975 36.8382 61.6893 36.2627C61.6688 34.3923 64.5668 35.0295 64.6367 34.6431" fill="#EA9B78"/>
<path id="Vector_159" opacity="0.45" d="M77.1044 26.2655C76.8281 26.1535 76.5308 26.103 76.233 26.1175C74.832 26.1074 73.4403 26.3454 72.1223 26.8204C71.531 26.9981 70.9882 27.3089 70.5355 27.7289C70.3142 27.9405 70.1513 28.2057 70.0627 28.4989C69.9741 28.792 69.9628 29.1031 70.0299 29.4019C70.1736 29.7651 70.3643 30.1078 70.5972 30.4214C70.8311 30.8097 70.9874 31.2396 71.0576 31.6875C70.836 31.9282 70.6592 32.2066 70.5355 32.5096C70.3763 32.8848 70.3417 33.3013 70.4369 33.6976C70.4761 33.9337 70.5803 34.1541 70.7379 34.3342C70.8955 34.5143 71.1001 34.6469 71.3289 34.7171C72.1963 34.9473 73.039 34.2197 73.4541 33.4263C73.8693 32.6329 74.0625 31.7162 74.6134 31.0092C75.0915 30.4818 75.6457 30.0288 76.2576 29.665C76.869 29.3059 77.362 28.7758 77.6758 28.1399C77.9307 27.4617 77.7457 26.5779 77.1044 26.2655Z" fill="#EA9B78"/>
<path id="Vector_160" opacity="0.45" d="M121.27 29.6979C121.374 29.5579 121.426 29.3857 121.416 29.2114C121.407 29.037 121.336 28.8716 121.216 28.7442C120.971 28.4992 120.76 28.2228 120.587 27.9221C120.507 27.6667 120.521 27.3911 120.626 27.1448C120.73 26.8985 120.919 26.6975 121.159 26.5779C121.4 26.4661 121.664 26.4134 121.929 26.4242C122.194 26.4349 122.453 26.5087 122.684 26.6395C123.141 26.9079 123.527 27.2813 123.81 27.7289C124 28.0422 124.23 28.3285 124.497 28.5798C124.994 28.9909 125.73 29.0977 126.112 29.6239C126.564 30.2611 126.244 31.1366 125.915 31.8396C125.787 32.1472 125.623 32.4384 125.426 32.7069C124.848 33.3412 124.046 33.7247 123.19 33.7757C122.89 33.8398 122.581 33.8411 122.281 33.7795C121.981 33.718 121.697 33.5949 121.447 33.4181C120.953 33.007 120.851 32.2712 120.879 31.6176C120.919 30.7184 121.154 29.8386 121.57 29.0402" fill="#EA9B78"/>
<path id="Vector_161" opacity="0.45" d="M131.312 30.0555C131.097 29.5394 130.703 29.1178 130.202 28.8675C129.946 28.7539 129.659 28.7328 129.389 28.8078C129.119 28.8827 128.883 29.0492 128.723 29.2786C128.557 29.7013 128.523 30.1639 128.624 30.6064C128.626 30.6269 128.626 30.6475 128.624 30.668C128.651 31.3403 128.478 32.0055 128.126 32.5795C127.559 33.5907 128.316 34.3183 128.875 34.5732C129.21 34.7137 129.586 34.7259 129.93 34.6077C130.274 34.4895 130.563 34.249 130.741 33.9319C130.887 33.5328 130.992 33.1195 131.053 32.6987C131.214 32.115 131.592 31.5765 131.584 30.9681C131.562 30.6475 131.47 30.3357 131.312 30.0555V30.0555Z" fill="#EA9B78"/>
<path id="Vector_162" opacity="0.45" d="M67.1072 29.1807C67.7904 28.7077 68.1346 28.0216 67.8762 27.6483C67.6177 27.275 66.8543 27.3559 66.1712 27.8289C65.4881 28.3019 65.1438 28.988 65.4023 29.3613C65.6608 29.7346 66.4241 29.6538 67.1072 29.1807Z" fill="#EA9B78"/>
</g>
<path id="Vector_163" d="M89.8074 14.9889C89.9967 14.6267 89.4797 13.9828 88.6527 13.5506C87.8258 13.1185 87.0019 13.0618 86.8127 13.4239C86.6234 13.7861 87.1404 14.4301 87.9673 14.8622C88.7943 15.2944 89.6182 15.3511 89.8074 14.9889Z" fill="#E89C7C"/>
<path id="Vector_164" d="M91.3686 15.2817C91.666 15.2817 91.9071 15.0406 91.9071 14.7432C91.9071 14.4458 91.666 14.2047 91.3686 14.2047C91.0712 14.2047 90.8301 14.4458 90.8301 14.7432C90.8301 15.0406 91.0712 15.2817 91.3686 15.2817Z" fill="#E89C7C"/>
<path id="Vector_165" d="M53.842 47.2753C53.842 47.2753 53.9283 39.9336 56.814 33.8004" stroke="white" stroke-width="7" stroke-linecap="round" stroke-linejoin="round"/>
<path id="Vector_166" d="M62.7869 80.1979C60.0532 76.1488 55.5602 66.053 59.7696 46.8478C59.7696 46.8478 55.2273 50.4282 53.4103 53.8359C53.4103 53.8359 48.346 28.3907 72.2908 18.6072C84.3722 13.6744 92.4826 19.8404 96.4042 25.727" stroke="#181828" stroke-width="4" stroke-linecap="round" stroke-linejoin="round"/>
<path id="Vector_167" d="M129.82 26.4217C129.82 26.4217 137.133 31.2476 138.062 42.8645" stroke="#1B1B2B" stroke-width="2.24" stroke-linecap="round" stroke-linejoin="round"/>
<path id="Vector_168" d="M92.3017 208.69H102.911" stroke="#181828" stroke-width="3" stroke-linecap="round" stroke-linejoin="round"/>
<path id="Vector_169" d="M131.275 223.555C136.156 223.555 140.113 219.598 140.113 214.717C140.113 209.835 136.156 205.879 131.275 205.879C126.394 205.879 122.437 209.835 122.437 214.717C122.437 219.598 126.394 223.555 131.275 223.555Z" fill="#FDC6A2"/>
<path id="Vector_170" opacity="0.62" d="M131.986 222.576C131.986 222.576 138.399 221.59 138.892 215.177" stroke="#E89176" stroke-width="4" stroke-linecap="round" stroke-linejoin="round"/>
<path id="Vector_171" opacity="0.62" d="M127.3 222.334C128.118 222.334 128.78 221.671 128.78 220.854C128.78 220.037 128.118 219.374 127.3 219.374C126.483 219.374 125.82 220.037 125.82 220.854C125.82 221.671 126.483 222.334 127.3 222.334Z" fill="#E89176"/>
<path id="Vector_172" opacity="0.62" d="M124.431 218.881C125.248 218.881 125.911 218.218 125.911 217.401C125.911 216.584 125.248 215.921 124.431 215.921C123.614 215.921 122.951 216.584 122.951 217.401C122.951 218.218 123.614 218.881 124.431 218.881Z" fill="#E89176"/>
<g id="LeftFoot">
<path id="Vector_173" d="M80.5122 318.175H84.1296C87.0514 318.175 89.8536 319.335 91.9196 321.401C93.9856 323.467 95.1463 326.27 95.1463 329.191V329.454C95.1463 330.464 94.7453 331.432 94.0314 332.146C93.3176 332.86 92.3494 333.261 91.3398 333.261H73.3021C72.2925 333.261 71.3243 332.86 70.6104 332.146C69.8966 331.432 69.4955 330.464 69.4955 329.454V329.175C69.4955 326.253 70.6562 323.451 72.7223 321.385C74.7883 319.319 77.5904 318.158 80.5122 318.158V318.175Z" fill="#FBB33A"/>
<path id="Vector_174" d="M70.0053 330.092H95.1587" stroke="#F67E41" stroke-width="2" stroke-miterlimit="10"/>
<path id="Vector_175" d="M88.043 326.121C85.7737 324.626 83.1825 323.69 80.4817 323.389C77.7809 323.088 75.0472 323.431 72.5046 324.39H72.4552C70.3547 324.39 69.4955 331.559 69.4955 329.454V329.175C69.4955 326.253 70.6562 323.451 72.7223 321.385C74.7883 319.319 77.5904 318.158 80.5122 318.158H84.1296C87.0514 318.158 89.8536 319.319 91.9196 321.385C93.9856 323.451 95.1463 326.253 95.1463 329.175L94.5955 326.228C94.5955 327.292 91.5947 328.456 88.043 326.121Z" fill="#FEECAA"/>
<path id="Vector_176" d="M77.0222 329.191H95.1463" stroke="#181828" stroke-width="2" stroke-linecap="round" stroke-linejoin="round"/>
<path id="Vector_177" d="M70.4821 329.191H74.6462" stroke="#181828" stroke-width="2" stroke-linecap="round" stroke-linejoin="round"/>
<path id="Vector_178" d="M71.5591 326.417C71.5591 326.417 74.0255 320.497 79.945 320.004" stroke="white" stroke-width="3" stroke-linecap="square" stroke-linejoin="round"/>
<path id="Vector_179" d="M80.874 318.861H84.4914C87.4132 318.861 90.2153 320.022 92.2814 322.088C94.3474 324.154 95.5081 326.956 95.5081 329.878V330.157C95.5081 331.167 95.107 332.135 94.3932 332.849C93.6793 333.563 92.7111 333.964 91.7016 333.964H73.6474C72.6378 333.964 71.6696 333.563 70.9558 332.849C70.2419 332.135 69.8409 331.167 69.8409 330.157V329.866C69.8425 328.418 70.1292 326.986 70.6846 325.65C71.2399 324.313 72.0532 323.1 73.0777 322.078C74.1023 321.056 75.3182 320.246 76.6559 319.694C77.9936 319.142 79.4269 318.859 80.874 318.861V318.861Z" stroke="#181828" stroke-width="4" stroke-linecap="round" stroke-linejoin="round"/>
</g>
<g id="Mouth">
<path id="Vector_180" d="M87.2045 110.991H110.672V116.38C110.672 119.492 109.436 122.476 107.236 124.676C105.036 126.876 102.052 128.112 98.9405 128.112V128.112C95.829 128.112 92.845 126.876 90.6448 124.676C88.4446 122.476 87.2086 119.492 87.2086 116.38V110.991H87.2045Z" fill="#AF143B"/>
<path id="Vector_181" opacity="0.4" d="M98.9364 123.184C102.887 123.184 106.089 121.196 106.089 118.744C106.089 116.292 102.887 114.304 98.9364 114.304C94.9861 114.304 91.7838 116.292 91.7838 118.744C91.7838 121.196 94.9861 123.184 98.9364 123.184Z" fill="#670118"/>
<path id="Vector_182" d="M108.975 116.676H89.1447C88.9569 116.676 88.7708 116.639 88.5973 116.567C88.4237 116.495 88.266 116.39 88.1332 116.257C88.0003 116.124 87.895 115.967 87.8231 115.793C87.7512 115.62 87.7142 115.434 87.7142 115.246V110.457H110.405V115.242C110.406 115.43 110.369 115.616 110.298 115.79C110.226 115.964 110.121 116.123 109.988 116.256C109.855 116.389 109.697 116.495 109.523 116.567C109.349 116.639 109.163 116.676 108.975 116.676V116.676Z" fill="white"/>
<path id="Vector_183" d="M108.868 116.676L89.2557 116.676C88.848 116.676 88.4569 116.514 88.1686 116.226C87.8803 115.938 87.7183 115.547 87.7183 115.139V114.415H110.409V115.139C110.409 115.341 110.369 115.541 110.292 115.728C110.214 115.915 110.101 116.085 109.958 116.227C109.814 116.37 109.644 116.483 109.457 116.56C109.27 116.637 109.07 116.677 108.868 116.676V116.676Z" fill="#D2F2FF"/>
<path id="Vector_184" d="M110.405 116.676H87.7142" stroke="#1B1B2B" stroke-width="3" stroke-linecap="round" stroke-linejoin="round"/>
<path id="Vector_185" d="M89.9175 110.354H108.169C108.86 110.354 109.523 110.629 110.012 111.117C110.501 111.606 110.775 112.269 110.775 112.96V115.743C110.775 118.855 109.539 121.839 107.339 124.039C105.139 126.239 102.155 127.475 99.0433 127.475V127.475C95.9318 127.475 92.9477 126.239 90.7475 124.039C88.5474 121.839 87.3113 118.855 87.3113 115.743V112.96C87.3113 112.618 87.3788 112.279 87.5097 111.963C87.6407 111.647 87.8327 111.359 88.0747 111.117C88.3167 110.875 88.604 110.683 88.9202 110.552C89.2364 110.421 89.5753 110.354 89.9175 110.354V110.354Z" stroke="#1B1B2B" stroke-width="4" stroke-linecap="round" stroke-linejoin="round"/>
</g>
<g id="EyeLeft">
<path id="Vector_186" d="M104.761 89.1798C104.681 87.8909 104.865 86.5992 105.302 85.3842C105.74 84.1693 106.422 83.0568 107.306 82.1156C108.19 81.1743 109.258 80.4242 110.443 79.9114C111.628 79.3986 112.906 79.134 114.197 79.134C115.489 79.134 116.766 79.3986 117.952 79.9114C119.137 80.4242 120.204 81.1743 121.089 82.1156C121.973 83.0568 122.655 84.1693 123.092 85.3842C123.53 86.5992 123.714 87.8909 123.634 89.1798L123.481 92.7972H104.909" fill="white"/>
<path id="Vector_187" d="M123.416 92.2464H104.839" stroke="#181828" stroke-width="3" stroke-linecap="round" stroke-linejoin="round"/>
<path id="Vector_188" d="M114.43 91.2557C117.456 91.2557 119.909 88.8024 119.909 85.7761C119.909 82.7498 117.456 80.2965 114.43 80.2965C111.403 80.2965 108.95 82.7498 108.95 85.7761C108.95 88.8024 111.403 91.2557 114.43 91.2557Z" fill="#181828"/>
<path id="Vector_189" d="M119.169 90.8241C120.518 90.8241 121.611 89.7308 121.611 88.3823C121.611 87.0337 120.518 85.9405 119.169 85.9405C117.821 85.9405 116.728 87.0337 116.728 88.3823C116.728 89.7308 117.821 90.8241 119.169 90.8241Z" fill="white"/>
<path id="Vector_190" d="M123.564 88.6289C123.644 87.3401 123.46 86.0483 123.023 84.8334C122.585 83.6184 121.903 82.506 121.019 81.5647C120.135 80.6235 119.067 79.8733 117.882 79.3605C116.697 78.8477 115.419 78.5832 114.127 78.5832C112.836 78.5832 111.558 78.8477 110.373 79.3605C109.188 79.8733 108.12 80.6235 107.236 81.5647C106.352 82.506 105.67 83.6184 105.232 84.8334C104.795 86.0483 104.611 87.3401 104.691 88.6289" stroke="#181828" stroke-width="3" stroke-linecap="round" stroke-linejoin="round"/>
</g>
<g id="EyeRight">
<path id="Vector_191" d="M92.4579 89.1798C92.5387 87.8909 92.3545 86.5992 91.9168 85.3842C91.4792 84.1693 90.7972 83.0568 89.9131 82.1156C89.0289 81.1743 87.9613 80.4242 86.7761 79.9114C85.5909 79.3986 84.3132 79.134 83.0218 79.134C81.7304 79.134 80.4527 79.3986 79.2675 79.9114C78.0823 80.4242 77.0147 81.1743 76.1306 82.1156C75.2464 83.0568 74.5645 84.1693 74.1268 85.3842C73.6891 86.5992 73.505 87.8909 73.5857 89.1798L73.7337 92.7972H92.31" fill="white"/>
<path id="Vector_192" d="M83.3938 91.2557C86.4201 91.2557 88.8734 88.8024 88.8734 85.7761C88.8734 82.7498 86.4201 80.2965 83.3938 80.2965C80.3676 80.2965 77.9143 82.7498 77.9143 85.7761C77.9143 88.8024 80.3676 91.2557 83.3938 91.2557Z" fill="#181828"/>
<path id="Vector_193" d="M88.1335 90.8241C89.482 90.8241 90.5752 89.7308 90.5752 88.3823C90.5752 87.0337 89.482 85.9405 88.1335 85.9405C86.7849 85.9405 85.6917 87.0337 85.6917 88.3823C85.6917 89.7308 86.7849 90.8241 88.1335 90.8241Z" fill="white"/>
<path id="Vector_194" d="M73.8036 92.2464H92.3757" stroke="#181828" stroke-width="3" stroke-linecap="round" stroke-linejoin="round"/>
<path id="Vector_195" d="M73.6556 88.6289C73.5703 87.3377 73.751 86.0426 74.1865 84.824C74.622 83.6054 75.303 82.4892 76.1874 81.5445C77.0718 80.5998 78.1407 79.8466 79.328 79.3318C80.5152 78.8169 81.7955 78.5512 83.0896 78.5512C84.3837 78.5512 85.664 78.8169 86.8513 79.3318C88.0385 79.8466 89.1074 80.5998 89.9918 81.5445C90.8762 82.4892 91.5573 83.6054 91.9928 84.824C92.4283 86.0426 92.609 87.3377 92.5237 88.6289" stroke="#181828" stroke-width="3" stroke-linecap="round" stroke-linejoin="round"/>
</g>
<g id="Leftarm">
<path id="Vector_196" d="M43.1953 163.637C42.0494 163.949 40.8469 163.992 39.6816 163.763C38.5164 163.533 37.42 163.037 36.4784 162.313C35.7056 161.697 35.052 160.924 34.2175 160.414C32.1046 159.127 29.3792 159.761 27.1471 160.825C24.915 161.89 22.7856 163.337 20.3521 163.662C19.284 163.797 18.1994 163.703 17.1704 163.386C20.0479 159.765 24.7547 157.409 30.0739 157.409C35.5329 157.401 40.3383 159.872 43.1953 163.637Z" fill="#F97DCA"/>
<path id="Vector_197" d="M58.7337 205.562C57.7185 205.561 56.7161 205.335 55.7987 204.9L30.6412 193.061C29.8164 192.678 29.0756 192.135 28.4612 191.464C27.8468 190.794 27.371 190.008 27.061 189.153C26.751 188.298 26.6131 187.39 26.655 186.481C26.6969 185.573 26.9179 184.681 27.3053 183.858C27.6927 183.035 28.2388 182.297 28.9124 181.686C29.5859 181.074 30.3736 180.602 31.2301 180.296C32.0867 179.99 32.9952 179.856 33.9036 179.902C34.8121 179.949 35.7024 180.174 36.5236 180.565L55.0464 189.28L70.0793 159.185C71.4974 155.646 74.5311 148.908 78.0705 150.306C78.9126 150.643 79.6802 151.142 80.3294 151.776C80.9786 152.409 81.4966 153.164 81.8539 153.998C82.2112 154.832 82.4008 155.727 82.4118 156.634C82.4228 157.541 82.255 158.442 81.9181 159.284L65.1464 201.213C64.6337 202.494 63.7488 203.593 62.6057 204.367C61.4627 205.14 60.114 205.554 58.7337 205.554V205.562Z" fill="#FDC6A2"/>
<path id="Vector_198" opacity="0.62" d="M35.8412 193.929L57.0524 203.794" stroke="#E89176" stroke-width="4" stroke-linecap="round" stroke-linejoin="round"/>
<path id="Vector_199" d="M39.9889 183.857L54.0475 190.517" stroke="#FFECE3" stroke-width="3" stroke-miterlimit="10"/>
<path id="Vector_200" opacity="0.62" d="M64.0283 200.214L71.4276 182.949" stroke="#E89176" stroke-width="4" stroke-linecap="round" stroke-linejoin="round"/>
<path id="Vector_201" opacity="0.62" d="M59.227 182.953L69.586 185.42" stroke="#E89176" stroke-width="4" stroke-linecap="round" stroke-linejoin="round"/>
<path id="Vector_202" d="M42.48 175.052C40.9512 178.147 38.338 180.571 35.1378 181.864C31.9376 183.157 28.3737 183.228 25.1244 182.064C21.875 180.9 19.1671 178.582 17.5158 175.551C15.8645 172.52 15.3852 168.988 16.1691 165.627C16.953 162.266 18.9453 159.31 21.767 157.322C24.5886 155.334 28.0426 154.453 31.4716 154.846C34.9007 155.24 38.0654 156.88 40.3636 159.455C42.6617 162.031 43.9329 165.361 43.9352 168.812C43.9349 169.724 43.8482 170.634 43.6762 171.529" stroke="#181828" stroke-width="4" stroke-linecap="round" stroke-linejoin="round"/>
<path id="Vector_203" d="M30.1232 174.982C33.3674 174.982 35.9974 172.353 35.9974 169.108C35.9974 165.864 33.3674 163.234 30.1232 163.234C26.879 163.234 24.249 165.864 24.249 169.108C24.249 172.353 26.879 174.982 30.1232 174.982Z" fill="white"/>
<path id="Vector_204" d="M27.4348 163.296C28.2632 162.867 29.1825 162.645 30.115 162.646C31.3889 162.647 32.6278 163.063 33.6445 163.83C34.6612 164.598 35.4005 165.675 35.7505 166.9C36.1006 168.125 36.0424 169.431 35.5848 170.619C35.1272 171.808 34.2951 172.816 33.2141 173.49C32.1332 174.164 30.8622 174.468 29.5933 174.355C28.3244 174.243 27.1265 173.721 26.1808 172.867C25.235 172.014 24.5927 170.876 24.351 169.625C24.1093 168.375 24.2813 167.079 24.841 165.935" stroke="#181828" stroke-width="3" stroke-linecap="round" stroke-linejoin="round"/>
<path id="Vector_205" d="M58.7337 205.562C57.7185 205.561 56.7161 205.335 55.7987 204.9L30.6412 193.061C29.8164 192.678 29.0756 192.135 28.4612 191.464C27.8468 190.794 27.371 190.008 27.061 189.153C26.751 188.298 26.6131 187.39 26.655 186.481C26.6969 185.573 26.9179 184.681 27.3053 183.858C27.6927 183.035 28.2388 182.297 28.9124 181.686C29.5859 181.074 30.3736 180.602 31.2301 180.296C32.0867 179.99 32.9952 179.856 33.9036 179.902C34.8121 179.949 35.7024 180.174 36.5236 180.565L55.0464 189.279L67.6128 162.149C69.031 158.61 74.4325 151.358 77.9718 152.776C81.5111 154.195 83.3363 155.748 81.9181 159.288L65.1464 201.217C64.6337 202.499 63.7488 203.597 62.6057 204.371C61.4627 205.145 60.114 205.558 58.7337 205.558V205.562Z" stroke="#181828" stroke-width="4" stroke-linecap="round" stroke-linejoin="round"/>
<path id="Vector_206" d="M30.152 190.011C35.0331 190.011 38.99 186.054 38.99 181.173C38.99 176.292 35.0331 172.335 30.152 172.335C25.2709 172.335 21.314 176.292 21.314 181.173C21.314 186.054 25.2709 190.011 30.152 190.011Z" fill="#FDC6A2"/>
<path id="Vector_207" d="M86.6906 144.798L76.7961 185.629L51.7209 179.558C52.0168 177.827 54.9765 157.43 86.6906 144.798Z" fill="white"/>
<path id="Vector_208" d="M92.3264 146.767L82.4319 187.602L57.3566 181.531C57.3566 181.531 60.9946 159.247 92.3264 146.767Z" fill="#2FDDD8"/>
<path id="Vector_209" d="M64.0201 158.815C69.0721 153.977 76.3522 149.093 86.9619 144.863L77.0675 185.699L54.4874 180.236C52.5101 179.759 52.7157 176.993 52.6951 177.05C54.4175 171.43 57.3074 166.238 61.1755 161.812" stroke="#181828" stroke-width="4" stroke-linecap="round" stroke-linejoin="round"/>
<path id="Vector_210" d="M61.2279 174.031C61.5368 173.084 61.3467 172.173 60.8032 171.995C60.2597 171.818 59.5686 172.442 59.2597 173.389C58.9507 174.335 59.1408 175.247 59.6844 175.424C60.2279 175.601 60.9189 174.978 61.2279 174.031Z" fill="white"/>
<path id="Vector_211" opacity="0.55" d="M63.7036 176.146C64.0259 176.146 64.2873 175.884 64.2873 175.562C64.2873 175.24 64.0259 174.978 63.7036 174.978C63.3812 174.978 63.1198 175.24 63.1198 175.562C63.1198 175.884 63.3812 176.146 63.7036 176.146Z" fill="white"/>
<path id="Vector_212" opacity="0.55" d="M61.9359 177.042C62.1834 177.042 62.384 176.841 62.384 176.594C62.384 176.346 62.1834 176.146 61.9359 176.146C61.6885 176.146 61.4879 176.346 61.4879 176.594C61.4879 176.841 61.6885 177.042 61.9359 177.042Z" fill="white"/>
<path id="Vector_213" opacity="0.55" d="M62.5279 173.042C62.8571 173.042 63.124 172.775 63.124 172.446C63.124 172.117 62.8571 171.85 62.5279 171.85C62.1987 171.85 61.9319 172.117 61.9319 172.446C61.9319 172.775 62.1987 173.042 62.5279 173.042Z" fill="white"/>
<path id="Vector_214" d="M23.0652 163.653V158.7L21.7538 159.325V163.653C21.7549 163.827 21.8247 163.993 21.9479 164.116C22.0712 164.238 22.2378 164.307 22.4116 164.307V164.307C22.5849 164.307 22.7511 164.238 22.8737 164.116C22.9963 163.993 23.0652 163.827 23.0652 163.653Z" fill="white"/>
<path id="Vector_215" d="M27.5047 159.707V156.234L26.2016 156.858V159.707C26.2027 159.881 26.2725 160.047 26.3957 160.17C26.5189 160.292 26.6856 160.361 26.8593 160.361V160.361C27.0312 160.359 27.1954 160.289 27.3162 160.166C27.437 160.044 27.5047 159.879 27.5047 159.707V159.707Z" fill="white"/>
<path id="Vector_216" d="M41.4688 187.064C42.1499 187.064 42.702 186.512 42.702 185.831C42.702 185.15 42.1499 184.597 41.4688 184.597C40.7877 184.597 40.2356 185.15 40.2356 185.831C40.2356 186.512 40.7877 187.064 41.4688 187.064Z" fill="#FCEDE6"/>
<path id="Vector_217" d="M40.7288 188.297C40.8651 188.297 40.9755 188.187 40.9755 188.05C40.9755 187.914 40.8651 187.804 40.7288 187.804C40.5926 187.804 40.4822 187.914 40.4822 188.05C40.4822 188.187 40.5926 188.297 40.7288 188.297Z" fill="#FFDECC"/>
<path id="Vector_218" d="M45.6617 189.284C45.7979 189.284 45.9083 189.173 45.9083 189.037C45.9083 188.901 45.7979 188.79 45.6617 188.79C45.5255 188.79 45.415 188.901 45.415 189.037C45.415 189.173 45.5255 189.284 45.6617 189.284Z" fill="#FFDECC"/>
<path id="Vector_219" d="M45.1684 188.297C45.3046 188.297 45.415 188.187 45.415 188.05C45.415 187.914 45.3046 187.804 45.1684 187.804C45.0322 187.804 44.9218 187.914 44.9218 188.05C44.9218 188.187 45.0322 188.297 45.1684 188.297Z" fill="#FFDECC"/>
<path id="Vector_220" d="M41.7154 187.804C41.8516 187.804 41.9621 187.693 41.9621 187.557C41.9621 187.421 41.8516 187.31 41.7154 187.31C41.5792 187.31 41.4688 187.421 41.4688 187.557C41.4688 187.693 41.5792 187.804 41.7154 187.804Z" fill="#FFDECC"/>
<path id="Vector_221" d="M43.6886 186.817C43.8248 186.817 43.9352 186.707 43.9352 186.571C43.9352 186.434 43.8248 186.324 43.6886 186.324C43.5523 186.324 43.4419 186.434 43.4419 186.571C43.4419 186.707 43.5523 186.817 43.6886 186.817Z" fill="#FFDECC"/>
<path id="Vector_222" d="M42.702 187.804C42.8382 187.804 42.9486 187.693 42.9486 187.557C42.9486 187.421 42.8382 187.31 42.702 187.31C42.5658 187.31 42.4554 187.421 42.4554 187.557C42.4554 187.693 42.5658 187.804 42.702 187.804Z" fill="#FFDECC"/>
<path id="Vector_223" d="M44.1819 188.297C44.3181 188.297 44.4285 188.187 44.4285 188.05C44.4285 187.914 44.3181 187.804 44.1819 187.804C44.0456 187.804 43.9352 187.914 43.9352 188.05C43.9352 188.187 44.0456 188.297 44.1819 188.297Z" fill="#FFDECC"/>
<path id="Vector_224" opacity="0.62" d="M30.8632 189.037C30.8632 189.037 37.2759 188.05 37.7691 181.638" stroke="#E89176" stroke-width="4" stroke-linecap="round" stroke-linejoin="round"/>
<path id="Vector_225" d="M40.4822 165.606L45.9083 164.126" stroke="#FFDC48" stroke-width="2" stroke-linecap="round" stroke-linejoin="round"/>
<path id="Vector_226" d="M13.8448 169.059L19.271 167.579" stroke="#FFDC48" stroke-width="2" stroke-linecap="round" stroke-linejoin="round"/>
<path id="Vector_227" d="M38.0158 172.019L38.5091 169.552" stroke="#FFDC48" stroke-width="2" stroke-linecap="round" stroke-linejoin="round"/>
<path id="Vector_228" d="M20.7508 174.978L21.2441 172.512" stroke="#FFDC48" stroke-width="2" stroke-linecap="round" stroke-linejoin="round"/>
<path id="Vector_229" d="M21.7374 169.059L22.2307 166.593" stroke="#FFDC48" stroke-width="2" stroke-linecap="round" stroke-linejoin="round"/>
<path id="Vector_230" d="M37.5225 167.086L35.0561 166.099" stroke="#FFDC48" stroke-width="2" stroke-linecap="round" stroke-linejoin="round"/>
<path id="Vector_231" d="M18.7777 175.965L16.3113 174.978" stroke="#FFDC48" stroke-width="2" stroke-linecap="round" stroke-linejoin="round"/>
<path id="Vector_232" d="M43.9352 169.059L41.4688 168.072" stroke="#FFDC48" stroke-width="2" stroke-linecap="round" stroke-linejoin="round"/>
<path id="Vector_233" d="M42.9486 174.978L40.4822 173.992" stroke="#FFDC48" stroke-width="2" stroke-linecap="round" stroke-linejoin="round"/>
<path id="Vector_234" d="M17.7911 163.633L15.3247 162.646" stroke="#FFDC48" stroke-width="2" stroke-linecap="round" stroke-linejoin="round"/>
<path id="Vector_235" d="M49.7377 189.197C49.8822 188.966 49.7187 188.603 49.3723 188.386C49.0259 188.169 48.628 188.18 48.4834 188.411C48.3388 188.642 48.5024 189.005 48.8488 189.222C49.1951 189.439 49.5931 189.428 49.7377 189.197Z" fill="white"/>
<path id="Vector_236" d="M50.2516 190.44C50.3046 190.355 50.2461 190.223 50.1211 190.145C49.996 190.067 49.8516 190.072 49.7986 190.156C49.7456 190.241 49.804 190.373 49.9291 190.451C50.0542 190.53 50.1985 190.525 50.2516 190.44Z" fill="white"/>
<path id="Vector_237" d="M39.8732 187.718C40.0178 187.487 39.8542 187.124 39.5078 186.907C39.1614 186.69 38.7635 186.701 38.6189 186.932C38.4743 187.163 38.6379 187.526 38.9843 187.743C39.3306 187.96 39.7286 187.948 39.8732 187.718Z" fill="white"/>
<path id="Vector_238" d="M40.383 188.961C40.436 188.876 40.3776 188.744 40.2525 188.666C40.1274 188.587 39.983 188.593 39.93 188.677C39.877 188.762 39.9354 188.894 40.0605 188.972C40.1856 189.051 40.33 189.045 40.383 188.961Z" fill="white"/>
<path id="Vector_239" d="M37.0004 175.587C38.1042 176.942 38.7817 178.593 38.947 180.333C39.1124 182.072 38.7584 183.822 37.9297 185.361C37.1009 186.899 35.8347 188.157 34.291 188.976C32.7474 189.795 30.9955 190.138 29.2569 189.962C27.5183 189.786 25.8711 189.098 24.5233 187.986C23.1755 186.873 22.1876 185.387 21.6847 183.713C21.1817 182.039 21.1862 180.254 21.6975 178.583C22.2088 176.912 23.204 175.43 24.5573 174.325" stroke="#181828" stroke-width="3" stroke-linecap="round" stroke-linejoin="round"/>
</g>
<g id="Rightarm">
<path id="Vector_240" d="M122.861 205.069L123.839 178.629C123.901 176.822 124.669 175.111 125.978 173.864C127.287 172.617 129.034 171.933 130.842 171.959C132.65 171.986 134.375 172.72 135.648 174.005C136.92 175.289 137.638 177.022 137.647 178.83L136.993 205.722" fill="#FDC6A2"/>
<path id="Vector_241" opacity="0.62" d="M127.3 183.857L136.179 183.364" stroke="#E89176" stroke-width="4" stroke-linecap="round" stroke-linejoin="round"/>
<path id="Vector_242" d="M118.249 147.761L120.366 182.702L141.807 181.403C141.807 181.403 142.123 162.601 118.249 147.761Z" fill="#2FDDD8"/>
<path id="Vector_243" opacity="0.5" d="M115.404 144.781L117.718 182.949L134.05 181.958C134.05 181.958 133.902 161.446 115.404 144.781Z" fill="#26ABAB"/>
<path id="Vector_244" d="M118.01 147.782L120.131 182.723L139.452 181.551C139.737 181.535 140.016 181.459 140.271 181.33C140.527 181.2 140.752 181.019 140.934 180.799C141.116 180.578 141.251 180.322 141.33 180.047C141.408 179.772 141.43 179.484 141.392 179.2C140.656 173.79 136.919 159.539 118.01 147.782Z" stroke="#181828" stroke-width="4" stroke-linecap="round" stroke-linejoin="round"/>
</g>
<g id="Body">
<path id="Vector_245" d="M94.0282 141.916H102.336C108.693 141.916 114.79 144.441 119.285 148.936C123.78 153.432 126.305 159.528 126.305 165.885V220.669H70.0628V165.885C70.0628 159.529 72.5876 153.433 77.0819 148.938C81.5761 144.443 87.6718 141.917 94.0282 141.916V141.916Z" fill="#2FDDD8"/>
<path id="Vector_246" d="M97.1194 142.187C90.763 142.187 84.6669 144.712 80.1719 149.206C75.6769 153.701 73.151 159.796 73.1499 166.153V220.932H69.4996L69.2818 211.284V207.819L69.4996 166.144C69.5007 159.788 72.0266 153.692 76.5216 149.198C81.0166 144.704 87.1127 142.179 93.4691 142.179L97.1194 142.187Z" fill="white"/>
<path id="Vector_247" d="M100.692 142.216C94.3346 142.216 88.2378 144.741 83.7427 149.237C79.2475 153.732 76.7222 159.828 76.7222 166.186V220.969H73.0636V166.186C73.0636 159.828 75.589 153.732 80.0841 149.237C84.5793 144.741 90.676 142.216 97.0331 142.216H100.692Z" fill="#42E8E0"/>
<path id="Vector_248" d="M78.4445 153.948L75.2094 156.246" stroke="#181828" stroke-linecap="round" stroke-linejoin="round"/>
<path id="Vector_249" d="M78.4445 155.469L76.8742 156.587" stroke="#181828" stroke-linecap="round" stroke-linejoin="round"/>
<path id="Vector_250" d="M69.8902 213.385V220.669H126.133V165.885C126.133 162.738 125.514 159.62 124.309 156.712C123.105 153.804 121.339 151.161 119.114 148.935C116.888 146.709 114.245 144.944 111.337 143.739C108.428 142.535 105.311 141.915 102.163 141.916H93.8597C90.7118 141.915 87.5947 142.535 84.6863 143.739C81.7779 144.944 79.1353 146.709 76.9095 148.935C74.6836 151.161 72.918 153.804 71.7136 156.712C70.5093 159.62 69.8896 162.738 69.8902 165.885V199.782" stroke="#181828" stroke-width="4" stroke-linecap="round" stroke-linejoin="round"/>
<path id="Vector_251" d="M76.0603 185.999V209.619" stroke="#181828" stroke-width="2" stroke-linecap="round" stroke-linejoin="round"/>
<path id="Vector_252" d="M78.6501 183.118V190.106" stroke="#181828" stroke-width="2" stroke-linecap="round" stroke-linejoin="round"/>
<path id="Vector_253" d="M85.0995 156.126C85.4131 155.18 85.2271 154.267 84.684 154.087C84.141 153.907 83.4465 154.528 83.1329 155.474C82.8193 156.42 83.0053 157.333 83.5484 157.513C84.0914 157.693 84.7859 157.072 85.0995 156.126Z" fill="white"/>
<path id="Vector_254" opacity="0.55" d="M87.3812 157.401C87.7036 157.401 87.9649 157.14 87.9649 156.817C87.9649 156.495 87.7036 156.234 87.3812 156.234C87.0588 156.234 86.7975 156.495 86.7975 156.817C86.7975 157.14 87.0588 157.401 87.3812 157.401Z" fill="white"/>
<path id="Vector_255" opacity="0.55" d="M85.6136 158.297C85.8611 158.297 86.0617 158.097 86.0617 157.849C86.0617 157.602 85.8611 157.401 85.6136 157.401C85.3661 157.401 85.1655 157.602 85.1655 157.849C85.1655 158.097 85.3661 158.297 85.6136 158.297Z" fill="white"/>
<path id="Vector_256" opacity="0.55" d="M86.2055 154.297C86.5347 154.297 86.8016 154.031 86.8016 153.701C86.8016 153.372 86.5347 153.105 86.2055 153.105C85.8764 153.105 85.6095 153.372 85.6095 153.701C85.6095 154.031 85.8764 154.297 86.2055 154.297Z" fill="white"/>
<path id="Vector_257" d="M73.2856 171.525C73.6943 171.525 74.0255 170.973 74.0255 170.292C74.0255 169.611 73.6943 169.059 73.2856 169.059C72.877 169.059 72.5457 169.611 72.5457 170.292C72.5457 170.973 72.877 171.525 73.2856 171.525Z" fill="white"/>
<path id="Vector_258" d="M74.5188 167.579C74.7913 167.579 75.0121 167.358 75.0121 167.086C75.0121 166.813 74.7913 166.593 74.5188 166.593C74.2464 166.593 74.0255 166.813 74.0255 167.086C74.0255 167.358 74.2464 167.579 74.5188 167.579Z" fill="white"/>
<path id="Vector_259" d="M74.7655 175.965C75.1741 175.965 75.5054 175.634 75.5054 175.225C75.5054 174.816 75.1741 174.485 74.7655 174.485C74.3568 174.485 74.0255 174.816 74.0255 175.225C74.0255 175.634 74.3568 175.965 74.7655 175.965Z" fill="white"/>
<path id="Vector_260" d="M78.9584 166.593C79.5032 166.593 79.9449 165.82 79.9449 164.866C79.9449 163.913 79.5032 163.14 78.9584 163.14C78.4135 163.14 77.9718 163.913 77.9718 164.866C77.9718 165.82 78.4135 166.593 78.9584 166.593Z" fill="#42E8E0"/>
<path id="Vector_261" d="M119.346 166.761H103.635V186.817H119.346V166.761Z" stroke="#181828" stroke-width="3" stroke-linecap="round" stroke-linejoin="round"/>
<path id="Vector_262" d="M104.363 171.554H119.161" stroke="#181828" stroke-width="3" stroke-linecap="round" stroke-linejoin="round"/>
</g>
<g id="pizza">
<path id="Vector_263" d="M170.779 200.136H91.7139V218.387H170.779V200.136Z" fill="white"/>
<path id="Vector_264" d="M152.154 200.136H91.7139V218.387H170.779V200.136H156.836" stroke="#181828" stroke-width="4" stroke-linecap="round" stroke-linejoin="round"/>
<path id="Vector_265" d="M107.885 208.69H170.216" stroke="#181828" stroke-width="3" stroke-linecap="round" stroke-linejoin="round"/>
<path id="Vector_266" opacity="0.12" d="M93.2883 210.17H170.216" stroke="#181828" stroke-width="4" stroke-linecap="round" stroke-linejoin="round"/>
<path id="Vector_267" d="M138.124 209.13C139.228 210.485 139.905 212.136 140.07 213.876C140.236 215.616 139.882 217.365 139.053 218.904C138.224 220.442 136.958 221.701 135.414 222.52C133.871 223.339 132.119 223.682 130.38 223.505C128.642 223.329 126.994 222.641 125.647 221.529C124.299 220.417 123.311 218.93 122.808 217.256C122.305 215.583 122.309 213.798 122.821 212.127C123.332 210.456 124.327 208.974 125.681 207.868" stroke="#181828" stroke-width="3" stroke-linecap="round" stroke-linejoin="round"/>
</g>
</g>
<defs>
<filter id="filter0_d" x="0.844604" y="0.000366211" width="183.935" height="353.964" filterUnits="userSpaceOnUse" color-interpolation-filters="sRGB">
<feFlood flood-opacity="0" result="BackgroundImageFix"/>
<feColorMatrix in="SourceAlpha" type="matrix" values="0 0 0 0 0 0 0 0 0 0 0 0 0 0 0 0 0 0 127 0"/>
<feOffset dy="6"/>
<feGaussianBlur stdDeviation="6"/>
<feColorMatrix type="matrix" values="0 0 0 0 0 0 0 0 0 0 0 0 0 0 0 0 0 0 0.72 0"/>
<feBlend mode="normal" in2="BackgroundImageFix" result="effect1_dropShadow"/>
<feBlend mode="normal" in="SourceGraphic" in2="effect1_dropShadow" result="shape"/>
</filter>
</defs>
</svg>
