<svg width="405" height="220" viewBox="0 0 405 220" fill="none" xmlns="http://www.w3.org/2000/svg">
<g id="undraw_news_go0e 1" filter="url(#filter0_d)">
<g id="man" opacity="0.5">
<path id="Vector" opacity="0.5" d="M50.1898 16.7395L33.2291 27.7964C33.0631 27.1125 32.6763 26.5024 32.1286 26.0608C32.3273 25.528 32.3595 24.9473 32.221 24.3957C32.1956 24.2369 32.1338 24.0861 32.0405 23.9552C31.9529 23.8729 31.8467 23.8131 31.7309 23.7809C31.6152 23.7487 31.4933 23.745 31.3758 23.7701L28.6818 23.9464C28.3682 23.9312 28.0584 24.0211 27.8014 24.2018C27.4229 24.519 27.3084 25.1842 26.921 25.4661C26.6613 25.6511 26.3312 25.6335 26.0407 25.7789C25.42 26.1093 25.2835 27.1004 25.2351 27.9066C25.1691 29.0079 25.1735 30.303 25.891 30.9902C26.4148 31.4792 27.1411 31.4307 27.8014 31.3955L28.4661 31.3426C28.6341 31.4424 28.811 31.5264 28.9944 31.5937V32.532H28.8711C28.8711 32.532 21.2689 30.3294 12.9184 53.3419H12.7731C12.7731 53.3419 11.5406 57.5268 13.5127 56.7911C15.2294 56.148 15.2735 54.0027 15.2426 53.4652H15.3571C15.3571 53.4652 18.8038 43.3686 24.2182 42.1352C24.2182 42.1352 28.158 47.0601 21.7575 56.9101H26.767C26.7511 58.0121 26.9734 59.1045 27.4185 60.1126C28.8931 63.0684 24.4648 91.1424 24.4648 91.1424H28.158L30.0156 81.8388L30.2489 91.1424H32.9561L35.6634 73.2531L35.2936 51.7032V46.1219L35.7866 46.7782V38.1573H42.9222L44.1547 28.5541H44.0271C44.0572 27.8834 44.0293 27.2113 43.9434 26.5454L53.1436 24.6115C54.5918 18.4575 50.1898 16.7395 50.1898 16.7395ZM42.1342 28.7039L39.9773 34.2236C39.9773 34.2236 34.0698 31.5144 31.8557 32.5011H31.7324V31.3294C32.1853 31.0675 32.567 30.6984 32.844 30.2545C33.1211 29.8105 33.285 29.3053 33.3215 28.7832L42.1915 26.9198C42.0766 27.506 42.0558 28.1068 42.1298 28.6995L42.1342 28.7039Z" fill="url(#paint0_linear)"/>
<g id="trousers">
<path id="Vector_2" d="M29.2013 44.8884H27.0927V55.4476H29.2013V44.8884Z" fill="#4D8AF0"/>
<path id="Vector_3" opacity="0.1" d="M29.2013 44.8884H27.0927V55.4476H29.2013V44.8884Z" fill="black"/>
<path id="Vector_4" d="M27.6782 51.8089C27.6782 51.8089 26.2696 56.9717 27.6782 59.7866C29.0868 62.6015 24.8653 89.3495 24.8653 89.3495H28.3869L33.4271 64.1257L34.2459 51.7913L27.6782 51.8089Z" fill="#333333"/>
<path id="Vector_5" d="M35.1835 51.8089L35.5357 72.3369L32.9561 89.3495H30.3766L29.4389 51.8089H35.1835Z" fill="#333333"/>
</g>
<g id="body">
<path id="Vector_6" d="M43.4768 30.118C43.4768 30.118 43.7585 26.0476 42.4908 26.9419C41.223 27.8361 41.7688 30.3691 41.7688 30.3691L43.4768 30.118Z" fill="#FDA57D"/>
<path id="Vector_7" d="M13.7284 53.3331C13.7284 53.3331 12.5574 57.3198 14.4327 56.6193C16.3079 55.9189 16.0746 53.3331 16.0746 53.3331H13.7284Z" fill="#FDA57D"/>
<path id="Vector_8" d="M31.7852 31.9814H29.2056V34.3293H31.7852V31.9814Z" fill="#FDA57D"/>
<path id="Vector_9" d="M30.2093 33.5099H32.648C33.3193 33.5099 33.9631 33.7768 34.4377 34.2518C34.9124 34.7268 35.1791 35.3711 35.1791 36.0429V51.8089H27.6958V36.0429C27.6957 35.3741 27.96 34.7325 28.4309 34.258C28.9017 33.7835 29.541 33.5146 30.2093 33.5099Z" fill="white"/>
<path id="Vector_10" d="M30.2577 32.8007C31.9401 32.8007 33.3039 31.4359 33.3039 29.7524C33.3039 28.0688 31.9401 26.704 30.2577 26.704C28.5754 26.704 27.2115 28.0688 27.2115 29.7524C27.2115 31.4359 28.5754 32.8007 30.2577 32.8007Z" fill="#FDA57D"/>
<path id="Vector_11" d="M29.0868 33.5099C29.0868 33.5099 21.8192 31.3999 13.8472 53.452H16.1934C16.1934 53.452 19.4773 43.8312 24.632 42.6594C24.632 42.6594 28.3825 47.3509 22.2858 56.7559H27.2116V53.6106C27.1829 48.8435 27.7748 44.093 28.9723 39.4789C29.5371 37.5344 29.5766 35.4747 29.0868 33.5099Z" fill="#4D8AF0"/>
<path id="Vector_12" d="M31.8996 33.51V34.2148C31.8996 34.2148 33.5416 41.4877 34.9458 46.1792L35.6633 47.1351V38.9063H42.4644L43.6353 29.7568H41.7601L39.6251 35.1487C39.6251 35.1487 34.0082 32.5673 31.8996 33.51Z" fill="#4D8AF0"/>
<path id="Vector_13" d="M29.7603 28.5894C29.8228 28.4876 29.8999 28.3956 29.9892 28.3163C30.0773 28.2646 30.1776 28.2372 30.2797 28.237C30.918 28.1841 31.6531 28.1709 32.0405 27.5674C32.3252 27.0256 32.3944 26.3961 32.2342 25.8053C32.2133 25.6468 32.1544 25.4957 32.0625 25.3648C31.979 25.2864 31.8776 25.2294 31.7672 25.1987C31.6568 25.168 31.5407 25.1645 31.4286 25.1886L28.8623 25.356C28.5688 25.3448 28.2798 25.4299 28.0391 25.5983C27.6781 25.9023 27.5725 26.5322 27.1939 26.8053C26.943 26.9815 26.6305 26.9639 26.3664 27.1049C25.7765 27.4176 25.6488 28.3515 25.6004 29.1312C25.5388 30.1797 25.5388 31.4131 26.2255 32.0518C26.7229 32.5188 27.414 32.4924 28.0435 32.4395L29.2144 32.3426C29.3326 32.3458 29.4485 32.3102 29.5446 32.2413C29.6187 32.1422 29.6711 32.0286 29.6984 31.908C29.7257 31.7873 29.7273 31.6622 29.7031 31.5409C29.6722 30.9506 29.6106 30.281 29.2232 29.9198C29.1308 29.8503 29.0467 29.7705 28.9723 29.6819C28.5541 29.0299 29.5402 28.8801 29.7603 28.5894Z" fill="#333333"/>
<g id="ding">
<path id="Vector_14" d="M49.3667 18.5016C49.3667 18.5016 53.5881 20.1447 52.1795 25.9904L33.1894 29.977V29.0387L49.3667 18.5016Z" fill="#F55F44"/>
</g>
</g>
</g>
<g id="tower">
<path id="Vector_15" d="M44.9163 98.9704H11.7387V104.014H44.9163V98.9704Z" fill="#4D8AF0"/>
<path id="Vector_16" d="M11.7387 103.895L7.9838 274H10.33L15.5288 104.014L11.7387 103.895Z" fill="#EEEEEE"/>
<path id="Vector_17" d="M44.9118 103.895L48.6623 274H46.3205L41.1217 104.014L44.9118 103.895Z" fill="#EEEEEE"/>
<path id="Vector_18" d="M18.8082 104.014L14.7848 274H17.5977L21.3129 103.895L18.8082 104.014Z" fill="#E0E0E0"/>
<path id="Vector_19" d="M38.5422 104.014L42.57 274H39.7528L36.0419 103.895L38.5422 104.014Z" fill="#E0E0E0"/>
<path id="Vector_20" d="M39.405 210.65H18.0687V213.231H39.405V210.65Z" fill="#E0E0E0"/>
<path id="Vector_21" d="M39.405 195.87H18.0687V198.218H39.405V195.87Z" fill="#E0E0E0"/>
<path id="Vector_22" d="M39.405 181.792H18.773V184.606H39.405V181.792Z" fill="#E0E0E0"/>
<path id="Vector_23" d="M38.7007 167.713H18.773V169.589H38.7007V167.713Z" fill="#E0E0E0"/>
<path id="Vector_24" d="M37.0588 152.7H19.4729V155.748H37.0588V152.7Z" fill="#E0E0E0"/>
<path id="Vector_25" d="M37.7587 138.621H19.4729V141.202H37.7587V138.621Z" fill="#E0E0E0"/>
<path id="Vector_26" d="M37.7587 124.075H19.4729V126.89H37.7587V124.075Z" fill="#E0E0E0"/>
<path id="Vector_27" d="M37.0588 109.763H20.4105V112.578H37.0588V109.763Z" fill="#E0E0E0"/>
<path id="Vector_28" d="M52.765 89.3495H4V99.6752H52.765V89.3495Z" fill="#4D8AF0"/>
<path id="Vector_29" opacity="0.1" d="M44.9119 99.5563H11.8531V100.495H44.9119V99.5563Z" fill="black"/>
<path id="Vector_30" d="M44.7974 161.849H11.7387V165.836H44.7974V161.849Z" fill="#EEEEEE"/>
<path id="Vector_31" opacity="0.1" d="M39.9905 165.722H37.4109V166.193H39.9905V165.722Z" fill="black"/>
<path id="Vector_32" opacity="0.1" d="M19.8251 165.722H17.2455V166.193H19.8251V165.722Z" fill="black"/>
</g>
<g id="paperplane20">
<path id="Vector_33" d="M70.5357 16.8937L70.8658 16.7263L70.7866 16.7175L70.813 16.6999L70.7646 16.7131L61.679 15.537L61.8726 18.5457L62.1588 21.2152L62.7178 20.9289L63.2373 22.1094L70.5357 16.8937Z" fill="url(#paint1_linear)"/>
<path id="Vector_34" d="M62.1764 18.4884L62.4405 20.9333L70.5621 16.8145L63.5102 16.9686L62.1764 18.4884Z" fill="#6C63FF"/>
<path id="Vector_35" opacity="0.2" d="M62.1764 18.4884L62.4405 20.9333L70.5621 16.8145L63.5102 16.9686L62.1764 18.4884Z" fill="black"/>
<path id="Vector_36" d="M61.9959 15.7352L70.5621 16.8144L62.1764 18.4884L61.9959 15.7352Z" fill="#6C63FF"/>
<path id="Vector_37" d="M63.4442 21.7438L70.5137 16.788L62.3173 19.2285L63.4442 21.7438Z" fill="#6C63FF"/>
</g>
<g id="paperplane19">
<path id="Vector_38" d="M114.586 4.29941L114.916 4.13202L114.837 4.1188L114.863 4.10118L114.815 4.1188L105.725 2.94263L105.923 5.95134L106.209 8.62086L106.768 8.33452L107.288 9.5151L114.586 4.29941Z" fill="url(#paint2_linear)"/>
<path id="Vector_39" d="M106.227 5.89411L106.491 8.33897L114.613 4.22015L107.561 4.37433L106.227 5.89411Z" fill="#6C63FF"/>
<path id="Vector_40" opacity="0.2" d="M106.227 5.89411L106.491 8.33897L114.613 4.22015L107.561 4.37433L106.227 5.89411Z" fill="black"/>
<path id="Vector_41" d="M106.046 3.14087L114.613 4.22013L106.227 5.89408L106.046 3.14087Z" fill="#6C63FF"/>
<path id="Vector_42" d="M107.495 9.14951L114.564 4.19373L106.368 6.62977L107.495 9.14951Z" fill="#6C63FF"/>
</g>
<g id="paperplane18">
<path id="Vector_43" d="M191.766 0.370032L192.219 0.030836L192.1 0.0352412L192.131 0L192.065 0.0352412L178.071 0.612315L179.145 5.09675L180.263 9.03936L181.034 8.46228L182.117 10.1054L191.766 0.370032Z" fill="url(#paint3_linear)"/>
<path id="Vector_44" d="M179.59 4.92933L180.616 8.54155L191.788 0.237854L181.206 2.29506L179.59 4.92933Z" fill="#6C63FF"/>
<path id="Vector_45" opacity="0.2" d="M179.59 4.92933L180.616 8.54155L191.788 0.237854L181.206 2.29506L179.59 4.92933Z" fill="black"/>
<path id="Vector_46" d="M178.608 0.828143L191.788 0.237854L179.59 4.92933L178.608 0.828143Z" fill="#6C63FF"/>
<path id="Vector_47" d="M182.337 9.50628L191.709 0.211426L179.991 6.00419L182.337 9.50628Z" fill="#6C63FF"/>
</g>
<g id="paperplane17">
<path id="Vector_48" d="M154.618 25.7304L154.979 25.6467L154.904 25.6203L154.935 25.6071H154.882L146.346 22.2768L145.814 25.2459L145.448 27.9022L146.06 27.7612L146.276 29.0299L154.618 25.7304Z" fill="url(#paint4_linear)"/>
<path id="Vector_49" d="M146.122 25.2635L145.787 27.6951L154.662 25.66L147.781 24.1093L146.122 25.2635Z" fill="#6C63FF"/>
<path id="Vector_50" opacity="0.2" d="M146.122 25.2635L145.787 27.6951L154.662 25.66L147.781 24.1093L146.122 25.2635Z" fill="black"/>
<path id="Vector_51" d="M146.61 22.5455L154.662 25.66L146.122 25.2635L146.61 22.5455Z" fill="#6C63FF"/>
<path id="Vector_52" d="M146.566 28.726L154.622 25.6203L146.078 26.0124L146.566 28.726Z" fill="#6C63FF"/>
</g>
<g id="paperplane16" opacity="0.5">
<path id="Vector_53" opacity="0.5" d="M104.422 57.1039L104.748 56.9321L104.673 56.9233L104.695 56.9057L104.647 56.9189L95.5609 55.7427L95.759 58.7558L96.0451 61.4209L96.6041 61.1346L97.1192 62.3152L104.422 57.1039Z" fill="url(#paint5_linear)"/>
<path id="Vector_54" opacity="0.5" d="M96.0627 58.6986L96.3268 61.139L104.448 57.0202L97.3965 57.1744L96.0627 58.6986Z" fill="#6C63FF"/>
<path id="Vector_55" opacity="0.2" d="M96.0627 58.6986L96.3268 61.139L104.448 57.0202L97.3965 57.1744L96.0627 58.6986Z" fill="black"/>
<path id="Vector_56" opacity="0.5" d="M95.8822 55.9409L104.448 57.0202L96.0627 58.6986L95.8822 55.9409Z" fill="#6C63FF"/>
<path id="Vector_57" opacity="0.5" d="M97.3305 61.9496L104.4 56.9938L96.2036 59.4342L97.3305 61.9496Z" fill="#6C63FF"/>
</g>
<g id="paperplane15" opacity="0.2">
<path id="Vector_58" opacity="0.2" d="M202.898 16.8409L203.352 16.4973L203.233 16.5017L203.268 16.4708L203.198 16.5061L189.208 17.0787L190.282 21.5632L191.396 25.5102L192.166 24.9331L193.254 26.5762L202.898 16.8409Z" fill="url(#paint6_linear)"/>
<path id="Vector_59" opacity="0.2" d="M190.723 21.4002L191.748 25.008L202.92 16.7087L192.338 18.7659L190.723 21.4002Z" fill="#6C63FF"/>
<path id="Vector_60" opacity="0.2" d="M190.723 21.4002L191.748 25.008L202.92 16.7087L192.338 18.7659L190.723 21.4002Z" fill="black"/>
<path id="Vector_61" opacity="0.2" d="M189.741 17.299L202.92 16.7087L190.723 21.4002L189.741 17.299Z" fill="#6C63FF"/>
<path id="Vector_62" opacity="0.2" d="M193.469 25.9771L202.841 16.6823L191.123 22.475L193.469 25.9771Z" fill="#6C63FF"/>
</g>
<g id="paperplane14" opacity="0.3">
<path id="Vector_63" opacity="0.3" d="M240.174 65.7644L240.623 65.4252L240.504 65.4296L240.54 65.3944L240.469 65.4296L226.48 66.0067L227.554 70.4911L228.672 74.4381L229.438 73.8566L230.525 75.5042L240.174 65.7644Z" fill="url(#paint7_linear)"/>
<path id="Vector_64" opacity="0.3" d="M227.994 70.3237L229.02 73.936L240.196 65.6323L229.61 67.6895L227.994 70.3237Z" fill="#6C63FF"/>
<path id="Vector_65" opacity="0.2" d="M227.994 70.3237L229.02 73.936L240.196 65.6323L229.61 67.6895L227.994 70.3237Z" fill="black"/>
<path id="Vector_66" opacity="0.3" d="M227.012 66.2225L240.196 65.6323L227.994 70.3237L227.012 66.2225Z" fill="#6C63FF"/>
<path id="Vector_67" opacity="0.3" d="M230.741 74.9007L240.113 65.6102L228.395 71.3986L230.741 74.9007Z" fill="#6C63FF"/>
</g>
<g id="paperplane13" opacity="0.3">
<path id="Vector_68" opacity="0.3" d="M355.378 89.9883L355.831 89.6447L355.713 89.6491L355.748 89.6183L355.677 89.6491L341.688 90.2262L342.762 94.7106L343.876 98.6576L344.646 98.0805L345.729 99.7237L355.378 89.9883Z" fill="url(#paint8_linear)"/>
<path id="Vector_69" opacity="0.3" d="M343.202 94.5476L344.228 98.1554L355.4 89.8517L344.818 91.9089L343.202 94.5476Z" fill="#6C63FF"/>
<path id="Vector_70" opacity="0.2" d="M343.202 94.5476L344.228 98.1554L355.4 89.8517L344.818 91.9089L343.202 94.5476Z" fill="black"/>
<path id="Vector_71" opacity="0.3" d="M342.221 90.4464L355.4 89.8517L343.202 94.5476L342.221 90.4464Z" fill="#6C63FF"/>
<path id="Vector_72" opacity="0.3" d="M345.949 99.1246L355.321 89.8297L343.603 95.6181L345.949 99.1246Z" fill="#6C63FF"/>
</g>
<g id="paperplane12" opacity="0.5">
<path id="Vector_73" opacity="0.5" d="M156.07 64.9715L156.431 64.8834L156.356 64.857L156.387 64.8437L156.334 64.8482L147.799 61.5135L147.266 64.4825L146.901 67.1432L147.508 66.9979L147.729 68.2665L156.07 64.9715Z" fill="url(#paint9_linear)"/>
<path id="Vector_74" opacity="0.5" d="M147.574 64.5001L147.24 66.9318L156.114 64.8966L149.234 63.346L147.574 64.5001Z" fill="#6C63FF"/>
<path id="Vector_75" opacity="0.2" d="M147.574 64.5001L147.24 66.9318L156.114 64.8966L149.234 63.346L147.574 64.5001Z" fill="black"/>
<path id="Vector_76" opacity="0.5" d="M148.063 61.7822L156.114 64.8966L147.574 64.5001L148.063 61.7822Z" fill="#6C63FF"/>
<path id="Vector_77" opacity="0.5" d="M148.019 67.967L156.075 64.8614L147.53 65.249L148.019 67.967Z" fill="#6C63FF"/>
</g>
<g id="paperplane11" opacity="0.5">
<path id="Vector_78" opacity="0.5" d="M314.356 122.613L314.717 122.529L314.647 122.498L314.673 122.489H314.62L306.089 119.159L305.552 122.128L305.187 124.785L305.799 124.639L306.019 125.912L314.356 122.613Z" fill="url(#paint10_linear)"/>
<path id="Vector_79" opacity="0.5" d="M305.86 122.146L305.53 124.577L314.405 122.542L307.52 120.992L305.86 122.146Z" fill="#6C63FF"/>
<path id="Vector_80" opacity="0.2" d="M305.86 122.146L305.53 124.577L314.405 122.542L307.52 120.992L305.86 122.146Z" fill="black"/>
<path id="Vector_81" opacity="0.5" d="M306.349 119.428L314.405 122.542L305.86 122.146L306.349 119.428Z" fill="#6C63FF"/>
<path id="Vector_82" opacity="0.5" d="M306.305 125.608L314.361 122.503L305.821 122.895L306.305 125.608Z" fill="#6C63FF"/>
</g>
<g id="paperplane10" opacity="0.5">
<path id="Vector_83" opacity="0.5" d="M304.676 61.5795L305.037 61.4914L304.962 61.465L304.993 61.4518L304.94 61.4562L296.405 58.1215L295.872 61.0906L295.507 63.7513L296.119 63.6059L296.339 64.8746L304.676 61.5795Z" fill="url(#paint11_linear)"/>
<path id="Vector_84" opacity="0.5" d="M296.18 61.1082L295.846 63.5398L304.725 61.5046L297.84 59.954L296.18 61.1082Z" fill="#6C63FF"/>
<path id="Vector_85" opacity="0.2" d="M296.18 61.1082L295.846 63.5398L304.725 61.5046L297.84 59.954L296.18 61.1082Z" fill="black"/>
<path id="Vector_86" opacity="0.5" d="M296.669 58.3946L304.725 61.5047L296.18 61.1082L296.669 58.3946Z" fill="#6C63FF"/>
<path id="Vector_87" opacity="0.5" d="M296.625 64.575L304.681 61.4694L296.136 61.857L296.625 64.575Z" fill="#6C63FF"/>
</g>
<g id="paperplane9" opacity="0.2">
<path id="Vector_88" opacity="0.2" d="M385.03 10.7133L385.391 10.6296L385.32 10.6032L385.347 10.59L385.294 10.5944L376.758 7.25967L376.226 10.2287L375.86 12.8895L376.472 12.7441L376.692 14.0128L385.03 10.7133Z" fill="url(#paint12_linear)"/>
<path id="Vector_89" opacity="0.2" d="M376.534 10.2463L376.199 12.678L385.078 10.6428L378.193 9.09219L376.534 10.2463Z" fill="#6C63FF"/>
<path id="Vector_90" opacity="0.2" d="M376.534 10.2463L376.199 12.678L385.078 10.6428L378.193 9.09219L376.534 10.2463Z" fill="black"/>
<path id="Vector_91" opacity="0.2" d="M377.023 7.52838L385.078 10.6428L376.534 10.2464L377.023 7.52838Z" fill="#6C63FF"/>
<path id="Vector_92" opacity="0.2" d="M376.978 13.7132L385.034 10.6032L376.494 10.9952L376.978 13.7132Z" fill="#6C63FF"/>
</g>
<g id="paperplane8" opacity="0.2">
<path id="Vector_93" opacity="0.2" d="M87.8178 27.1842L88.1788 27.1005L88.1039 27.0696L88.1348 27.0608H88.0819L79.5465 23.7305L79.0139 26.6996L78.6441 29.3559L79.2604 29.2105L79.4761 30.4836L87.8178 27.1842Z" fill="url(#paint13_linear)"/>
<path id="Vector_94" opacity="0.2" d="M79.322 26.7172L78.9875 29.1488L87.8618 27.1137L80.9816 25.563L79.322 26.7172Z" fill="#6C63FF"/>
<path id="Vector_95" opacity="0.2" d="M79.322 26.7172L78.9875 29.1488L87.8618 27.1137L80.9816 25.563L79.322 26.7172Z" fill="black"/>
<path id="Vector_96" opacity="0.2" d="M79.8107 23.9993L87.8619 27.1137L79.3221 26.7172L79.8107 23.9993Z" fill="#6C63FF"/>
<path id="Vector_97" opacity="0.2" d="M79.7666 30.1797L87.8222 27.074L79.278 27.4661L79.7666 30.1797Z" fill="#6C63FF"/>
</g>
<g id="paperplane7">
<path id="Vector_98" d="M260.115 16.3827L260.617 16.1228L260.498 16.1052L260.538 16.0788L260.463 16.1008L246.575 14.3035L246.878 18.9069L247.314 22.986L248.168 22.5411L248.961 24.3472L260.115 16.3827Z" fill="url(#paint14_linear)"/>
<path id="Vector_99" d="M247.341 18.8188L247.741 22.55L260.155 16.255L249.379 16.4929L247.341 18.8188Z" fill="#6C63FF"/>
<path id="Vector_100" opacity="0.2" d="M247.341 18.8188L247.741 22.55L260.155 16.255L249.379 16.4929L247.341 18.8188Z" fill="black"/>
<path id="Vector_101" d="M247.063 14.6075L260.155 16.255L247.341 18.8188L247.063 14.6075Z" fill="#6C63FF"/>
<path id="Vector_102" d="M249.277 23.7922L260.084 16.2153L247.556 19.9421L249.277 23.7922Z" fill="#6C63FF"/>
</g>
<g id="paperplane6">
<path id="Vector_103" d="M292.448 87.5655L293.742 87.6448L293.526 87.4774L293.636 87.4686L293.46 87.4245L268.281 67.6058L263.483 76.9975L259.56 85.5259L261.757 85.6581L261.202 90.1337L292.448 87.5655Z" fill="url(#paint15_linear)"/>
<path id="Vector_104" d="M264.495 77.3676L260.916 85.1691L292.681 87.3672L271.226 75.1914L264.495 77.3676Z" fill="#6C63FF"/>
<path id="Vector_105" opacity="0.2" d="M264.495 77.3676L260.916 85.1691L292.681 87.3672L271.226 75.1914L264.495 77.3676Z" fill="black"/>
<path id="Vector_106" d="M268.884 68.7775L292.681 87.3672L264.495 77.3676L268.884 68.7775Z" fill="#6C63FF"/>
<path id="Vector_107" d="M262.47 89.4156L292.58 87.2042L263.597 79.83L262.47 89.4156Z" fill="#6C63FF"/>
</g>
<g id="paperplane5">
<path id="Vector_108" d="M398.293 162.585L401 162.673L400.542 162.334L400.762 162.308L400.397 162.228L346.587 122.454L337.167 142.365L329.521 160.409L334.108 160.554L333.236 169.924L398.293 162.585Z" fill="url(#paint16_linear)"/>
<path id="Vector_109" d="M339.306 143.075L332.325 159.585L398.768 162.162L353.212 138.101L339.306 143.075Z" fill="#6C63FF"/>
<path id="Vector_110" opacity="0.2" d="M339.306 143.075L332.325 159.585L398.768 162.162L353.212 138.101L339.306 143.075Z" fill="black"/>
<path id="Vector_111" d="M347.921 124.864L398.768 162.162L339.306 143.075L347.921 124.864Z" fill="#6C63FF"/>
<path id="Vector_112" d="M335.842 168.347L398.544 161.823L337.59 148.273L335.842 168.347Z" fill="#6C63FF"/>
</g>
<g id="paperplane4">
<path id="Vector_113" d="M352.226 11.1098L353.406 10.5723L353.137 10.5239L353.23 10.4666L353.054 10.5107L321.536 4.77518L321.685 15.3255L322.2 24.6952L324.203 23.7878L325.806 28.0035L352.226 11.1098Z" fill="url(#paint17_linear)"/>
<path id="Vector_114" d="M322.755 15.1757L323.235 23.7482L352.341 10.8235L327.685 10.101L322.755 15.1757Z" fill="#6C63FF"/>
<path id="Vector_115" opacity="0.2" d="M322.755 15.1757L323.235 23.7482L352.341 10.8235L327.685 10.101L322.755 15.1757Z" fill="black"/>
<path id="Vector_116" d="M322.619 5.52847L352.341 10.8235L322.755 15.1757L322.619 5.52847Z" fill="#6C63FF"/>
<path id="Vector_117" d="M326.594 26.7744L352.173 10.7265L323.112 17.7747L326.594 26.7744Z" fill="#6C63FF"/>
</g>
<g id="paperplane3">
<path id="Vector_118" d="M385.624 46.4699L386.808 45.9369L386.54 45.8884L386.628 45.8267L386.456 45.8708L354.938 40.1353L355.088 50.6856L355.603 60.0553L357.605 59.1523L359.208 63.3636L385.624 46.4699Z" fill="url(#paint18_linear)"/>
<path id="Vector_119" opacity="0.2" d="M356.157 50.5402L356.633 59.1126L385.738 46.188L361.083 45.4655L356.157 50.5402Z" fill="black"/>
<path id="Vector_120" d="M356.016 40.8929L385.738 46.1879L356.157 50.5402L356.016 40.8929Z" fill="#6C63FF"/>
<path id="Vector_121" d="M359.996 62.1345L385.571 46.091L356.514 53.1348L359.996 62.1345Z" fill="#6C63FF"/>
<path id="Vector_122" d="M356.157 50.5402L356.633 59.1126L385.738 46.188L361.083 45.4655L356.157 50.5402Z" fill="#6C63FF"/>
</g>
<g id="paperplane1">
<path id="Vector_123" d="M216.417 44.373L216.923 44.1131L216.804 44.0999L216.839 44.0735L216.765 44.0955L202.881 42.2982L203.185 46.8972L203.616 50.9764L204.47 50.5358L205.262 52.3419L216.417 44.373Z" fill="url(#paint19_linear)"/>
<path id="Vector_124" d="M203.647 46.8135L204.047 50.5402L216.461 44.2497L205.685 44.4875L203.647 46.8135Z" fill="#6C63FF"/>
<path id="Vector_125" opacity="0.2" d="M203.647 46.8135L204.047 50.5402L216.461 44.2497L205.685 44.4875L203.647 46.8135Z" fill="black"/>
<path id="Vector_126" d="M203.369 42.6022L216.461 44.2497L203.647 46.8135L203.369 42.6022Z" fill="#6C63FF"/>
<path id="Vector_127" d="M205.579 51.7869L216.386 44.21L203.858 47.9368L205.579 51.7869Z" fill="#6C63FF"/>
</g>
<g id="paperplane2">
<path id="Vector_128" d="M300.16 38.0781L300.662 37.8182L300.547 37.8005L300.582 37.7741L300.508 37.7961L286.624 35.9988L286.923 40.6022L287.359 44.6814L288.213 44.2409L289.005 46.0426L300.16 38.0781Z" fill="url(#paint20_linear)"/>
<path id="Vector_129" d="M287.39 40.5141L287.79 44.2453L300.204 37.9503L289.428 38.1882L287.39 40.5141Z" fill="#6C63FF"/>
<path id="Vector_130" opacity="0.2" d="M287.39 40.5141L287.79 44.2453L300.204 37.9503L289.428 38.1882L287.39 40.5141Z" fill="black"/>
<path id="Vector_131" d="M287.112 36.3072L300.204 37.9503L287.39 40.5141L287.112 36.3072Z" fill="#6C63FF"/>
<path id="Vector_132" d="M289.322 45.4875L300.129 37.9107L287.601 41.6418L289.322 45.4875Z" fill="#6C63FF"/>
</g>
<g id="Schulnews">
<path d="M43.1162 122.906C43.1162 121.302 42.5433 120.052 41.3975 119.156C40.2725 118.26 38.2829 117.333 35.4287 116.375C32.5746 115.417 30.2412 114.49 28.4287 113.594C22.5329 110.698 19.585 106.719 19.585 101.656C19.585 99.1354 20.3142 96.9167 21.7725 95C23.2517 93.0625 25.335 91.5625 28.0225 90.5C30.71 89.4167 33.7308 88.875 37.085 88.875C40.3558 88.875 43.2829 89.4583 45.8662 90.625C48.4704 91.7917 50.4912 93.4583 51.9287 95.625C53.3662 97.7708 54.085 100.229 54.085 103H43.1475C43.1475 101.146 42.5746 99.7083 41.4287 98.6875C40.3037 97.6667 38.7725 97.1562 36.835 97.1562C34.8767 97.1562 33.3246 97.5938 32.1787 98.4688C31.0537 99.3229 30.4912 100.417 30.4912 101.75C30.4912 102.917 31.1162 103.979 32.3662 104.938C33.6162 105.875 35.8142 106.854 38.96 107.875C42.1058 108.875 44.6892 109.958 46.71 111.125C51.6267 113.958 54.085 117.865 54.085 122.844C54.085 126.823 52.585 129.948 49.585 132.219C46.585 134.49 42.4704 135.625 37.2412 135.625C33.5537 135.625 30.21 134.969 27.21 133.656C24.2308 132.323 21.9808 130.51 20.46 128.219C18.96 125.906 18.21 123.25 18.21 120.25H29.21C29.21 122.688 29.835 124.49 31.085 125.656C32.3558 126.802 34.4079 127.375 37.2412 127.375C39.0537 127.375 40.4808 126.99 41.5225 126.219C42.585 125.427 43.1162 124.323 43.1162 122.906Z" fill="#FA8231"/>
<path d="M79.2825 127.5C80.7617 127.5 81.9075 127.104 82.72 126.312C83.5325 125.5 83.9283 124.375 83.9075 122.938H93.7825C93.7825 126.646 92.4492 129.688 89.7825 132.062C87.1367 134.438 83.72 135.625 79.5325 135.625C74.6158 135.625 70.7408 134.083 67.9075 131C65.0742 127.917 63.6575 123.646 63.6575 118.188V117.75C63.6575 114.333 64.2825 111.323 65.5325 108.719C66.8033 106.094 68.6262 104.083 71.0012 102.688C73.3762 101.271 76.1887 100.562 79.4387 100.562C83.8346 100.562 87.3242 101.781 89.9075 104.219C92.4908 106.656 93.7825 109.958 93.7825 114.125H83.9075C83.9075 112.375 83.4804 111.031 82.6262 110.094C81.7721 109.156 80.6262 108.688 79.1887 108.688C76.4596 108.688 74.8658 110.427 74.4075 113.906C74.2617 115.01 74.1887 116.531 74.1887 118.469C74.1887 121.865 74.595 124.219 75.4075 125.531C76.22 126.844 77.5117 127.5 79.2825 127.5Z" fill="#FA8231"/>
<path d="M114.292 104.812C116.542 101.979 119.417 100.562 122.917 100.562C126.647 100.562 129.459 101.667 131.355 103.875C133.251 106.083 134.22 109.344 134.261 113.656V135H123.699V113.906C123.699 112.115 123.334 110.802 122.605 109.969C121.876 109.115 120.636 108.688 118.886 108.688C116.72 108.688 115.188 109.375 114.292 110.75V135H103.761V87H114.292V104.812Z" fill="#FA8231"/>
<path d="M166.021 131.344C163.792 134.198 160.782 135.625 156.99 135.625C153.282 135.625 150.469 134.552 148.552 132.406C146.657 130.24 145.709 127.135 145.709 123.094V101.188H156.24V123.156C156.24 126.052 157.646 127.5 160.459 127.5C162.875 127.5 164.594 126.635 165.615 124.906V101.188H176.209V135H166.334L166.021 131.344Z" fill="#FA8231"/>
<path d="M198.875 135H188.312V87H198.875V135Z" fill="#FA8231"/>
<path d="M220.822 101.188L221.166 105.156C223.5 102.094 226.718 100.562 230.822 100.562C234.343 100.562 236.968 101.615 238.697 103.719C240.447 105.823 241.354 108.99 241.416 113.219V135H230.854V113.656C230.854 111.948 230.51 110.698 229.822 109.906C229.135 109.094 227.885 108.688 226.072 108.688C224.01 108.688 222.479 109.5 221.479 111.125V135H210.947V101.188H220.822Z" fill="#FA8231"/>
<path d="M269.395 135.625C264.207 135.625 260.01 134.083 256.801 131C253.593 127.896 251.989 123.865 251.989 118.906V118.031C251.989 114.573 252.624 111.521 253.895 108.875C255.187 106.229 257.062 104.188 259.52 102.75C261.978 101.292 264.895 100.562 268.27 100.562C273.02 100.562 276.77 102.042 279.52 105C282.27 107.938 283.645 112.042 283.645 117.312V121.406H262.707C263.082 123.302 263.905 124.792 265.176 125.875C266.447 126.958 268.093 127.5 270.114 127.5C273.447 127.5 276.051 126.333 277.926 124L282.739 129.688C281.426 131.5 279.562 132.948 277.145 134.031C274.749 135.094 272.166 135.625 269.395 135.625ZM268.207 108.688C265.124 108.688 263.291 110.729 262.707 114.812H273.332V114C273.374 112.312 272.947 111.01 272.051 110.094C271.155 109.156 269.874 108.688 268.207 108.688Z" fill="#FA8231"/>
<path d="M322.874 121.125L326.28 101.188H336.374L328.405 135H319.499L313.905 114.938L308.28 135H299.374L291.405 101.188H301.499L304.842 121.594L310.217 101.188H317.561L322.874 121.125Z" fill="#FA8231"/>
<path d="M363.634 125.5C363.634 124.604 363.165 123.885 362.228 123.344C361.29 122.802 359.509 122.24 356.884 121.656C354.259 121.073 352.092 120.312 350.384 119.375C348.675 118.417 347.373 117.26 346.478 115.906C345.582 114.552 345.134 113 345.134 111.25C345.134 108.146 346.415 105.594 348.978 103.594C351.54 101.573 354.894 100.562 359.04 100.562C363.498 100.562 367.082 101.573 369.79 103.594C372.498 105.615 373.853 108.271 373.853 111.562H363.29C363.29 108.854 361.863 107.5 359.009 107.5C357.905 107.5 356.978 107.812 356.228 108.438C355.478 109.042 355.103 109.802 355.103 110.719C355.103 111.656 355.561 112.417 356.478 113C357.394 113.583 358.853 114.062 360.853 114.438C362.873 114.812 364.644 115.26 366.165 115.781C371.248 117.531 373.79 120.667 373.79 125.188C373.79 128.271 372.415 130.781 369.665 132.719C366.936 134.656 363.394 135.625 359.04 135.625C356.144 135.625 353.561 135.104 351.29 134.062C349.019 133.021 347.248 131.604 345.978 129.812C344.707 128.021 344.071 126.135 344.071 124.156H353.915C353.957 125.719 354.478 126.865 355.478 127.594C356.478 128.302 357.759 128.656 359.321 128.656C360.759 128.656 361.832 128.365 362.54 127.781C363.269 127.198 363.634 126.438 363.634 125.5Z" fill="#FA8231"/>
</g>
<path id="Schulnews (Stroke)" fill-rule="evenodd" clip-rule="evenodd" d="M103.261 86.5H114.792V103.483C116.992 101.21 119.708 100.062 122.917 100.062C126.748 100.062 129.718 101.201 131.734 103.549C133.736 105.881 134.719 109.276 134.761 113.651L134.761 113.656L134.761 135.5H123.199V113.906C123.199 112.165 122.842 110.998 122.229 110.298L122.225 110.293C121.633 109.6 120.571 109.188 118.886 109.188C116.898 109.188 115.578 109.79 114.792 110.903V135.5H103.261V86.5ZM104.261 87.5V134.5H113.792V110.601L113.874 110.477C114.89 108.916 116.611 108.188 118.886 108.188C120.699 108.188 122.116 108.628 122.983 109.641C123.827 110.608 124.199 112.065 124.199 113.906V134.5H133.761V113.659C133.72 109.41 132.765 106.285 130.976 104.201C129.2 102.133 126.545 101.062 122.917 101.062C119.576 101.062 116.843 102.405 114.684 105.123L113.792 106.246V87.5H104.261ZM187.812 86.5H199.375V135.5H187.812V86.5ZM188.812 87.5V134.5H198.375V87.5H188.812ZM37.085 89.375C33.7849 89.375 30.8289 89.9078 28.2094 90.9637L28.2063 90.965C25.5877 92.0002 23.5847 93.4504 22.1702 95.303C20.7815 97.1283 20.085 99.2394 20.085 101.656C20.085 106.469 22.8641 110.304 28.6492 113.145L28.6503 113.146C30.4354 114.028 32.7458 114.947 35.5879 115.901C38.4491 116.862 40.5096 117.811 41.7074 118.764C42.9867 119.765 43.6162 121.167 43.6162 122.906C43.6162 124.468 43.0202 125.726 41.8212 126.62L41.8199 126.621C40.6638 127.476 39.1192 127.875 37.2412 127.875C34.36 127.875 32.1568 127.296 30.7502 126.028L30.7438 126.022C29.4489 124.813 28.8002 123.027 28.7188 120.75H18.7172C18.7961 123.455 19.5193 125.849 20.8781 127.944C22.3371 130.142 24.5051 131.898 27.4123 133.199C30.3411 134.48 33.6148 135.125 37.2412 135.125C42.4031 135.125 46.3982 134.004 49.2832 131.82C52.1502 129.65 53.585 126.677 53.585 122.844C53.585 118.071 51.2481 114.317 46.4603 111.558C44.4806 110.415 41.9329 109.345 38.8085 108.352L38.8057 108.351C35.6525 107.327 33.3867 106.328 32.0662 105.338L32.062 105.334C30.7351 104.317 29.9912 103.123 29.9912 101.75C29.9912 100.25 30.6353 99.0131 31.8758 98.0709C33.1353 97.1094 34.8061 96.6562 36.835 96.6562C38.8604 96.6562 40.523 97.1913 41.763 98.3156C42.9263 99.3528 43.537 100.766 43.6338 102.5H53.5768C53.4954 100.026 52.8052 97.8318 51.5133 95.9033L51.5121 95.9014C50.1319 93.8212 48.1884 92.2132 45.6618 91.0813L45.6604 91.0807C43.151 89.9474 40.2957 89.375 37.085 89.375ZM27.8371 90.0356C30.5922 88.9253 33.6774 88.375 37.085 88.375C40.4156 88.375 43.4143 88.9692 46.0713 90.169C48.7523 91.3702 50.8499 93.0951 52.3446 95.3474C53.841 97.5815 54.585 100.138 54.585 103V103.5H42.6475V103C42.6475 101.256 42.1135 99.9672 41.0961 99.0608L41.0927 99.0578C40.0829 98.1415 38.6836 97.6562 36.835 97.6562C34.9475 97.6562 33.5143 98.0779 32.4822 98.8661L32.4811 98.867C31.472 99.6331 30.9912 100.584 30.9912 101.75C30.9912 102.71 31.4968 103.64 32.6684 104.539C33.8482 105.423 35.977 106.381 39.1127 107.399M79.4387 101.062C76.263 101.062 73.5423 101.754 71.2574 103.117L71.2546 103.119C68.97 104.461 67.2131 106.395 65.9827 108.936C64.7709 111.461 64.1575 114.395 64.1575 117.75V118.188C64.1575 123.56 65.5503 127.696 68.2757 130.662C70.9977 133.624 74.7291 135.125 79.5325 135.125C83.6199 135.125 86.9103 133.969 89.4485 131.69L89.4499 131.689C91.8852 129.52 93.1594 126.781 93.274 123.438H84.3979C84.3278 124.747 83.8999 125.84 83.0735 126.666L83.0689 126.671C82.1373 127.578 80.8509 128 79.2825 128C77.3686 128 75.9008 127.278 74.9824 125.794C74.0895 124.352 73.6887 121.87 73.6887 118.469C73.6887 116.523 73.7618 114.977 73.9118 113.841C73.9118 113.841 73.9118 113.841 73.9118 113.841C74.1482 112.046 74.6855 110.628 75.5779 109.654C76.4846 108.665 77.7081 108.188 79.1887 108.188C80.7462 108.188 82.0338 108.701 82.9958 109.757C83.8716 110.718 84.3201 112.027 84.3959 113.625H83.9075V114.125H84.4075C84.4075 113.955 84.4036 113.789 84.3959 113.625H93.276C93.2803 113.79 93.2825 113.957 93.2825 114.125H93.7825V113.625H93.276C93.1765 109.809 91.9279 106.813 89.5643 104.582C87.0946 102.252 83.7388 101.062 79.4387 101.062ZM70.7468 102.257C73.2115 100.787 76.1153 100.062 79.4387 100.062C83.9303 100.062 87.5537 101.31 90.2506 103.855C92.9515 106.403 94.2825 109.847 94.2825 114.125V114.625H83.4075V114.125C83.4075 112.452 82.9996 111.246 82.2566 110.43C81.5103 109.611 80.5063 109.188 79.1887 109.188C77.9402 109.188 77.0022 109.58 76.3152 110.33C75.6139 111.095 75.1252 112.287 74.9032 113.972C74.7616 115.044 74.6887 116.54 74.6887 118.469C74.6887 121.859 75.1005 124.085 75.8326 125.268C76.5392 126.409 77.6547 127 79.2825 127C80.6708 127 81.6754 126.631 82.3687 125.957C83.0614 125.263 83.4269 124.282 83.4075 122.945L83.4002 122.438H94.2825V122.938C94.2825 126.782 92.8933 129.961 90.1165 132.435C87.363 134.906 83.8201 136.125 79.5325 136.125C74.5025 136.125 70.484 134.543 67.5393 131.338C64.598 128.137 63.1575 123.732 63.1575 118.188V117.75C63.1575 114.272 63.7939 111.185 65.0817 108.502L65.0825 108.501C66.3935 105.793 68.282 103.706 70.7468 102.257ZM230.822 101.062C226.862 101.062 223.796 102.53 221.564 105.459L220.78 106.489L220.364 101.688H211.447V134.5H220.979V110.983L221.053 110.863C222.152 109.076 223.853 108.188 226.072 108.188C227.931 108.188 229.37 108.599 230.202 109.581C231.004 110.506 231.354 111.9 231.354 113.656V134.5H240.916V113.222C240.854 109.05 239.959 106.018 238.313 104.038L238.311 104.036C236.703 102.08 234.241 101.062 230.822 101.062ZM221.56 103.907C223.915 101.342 227.017 100.062 230.822 100.062C234.444 100.062 237.231 101.149 239.082 103.399C240.935 105.628 241.853 108.927 241.916 113.211L241.916 113.219L241.916 135.5H230.354V113.656C230.354 111.997 230.017 110.893 229.445 110.234L229.441 110.229C228.898 109.587 227.837 109.188 226.072 109.188C224.218 109.188 222.879 109.884 221.979 111.27V135.5H210.447V100.688H221.281L221.56 103.907ZM268.27 101.062C264.968 101.062 262.143 101.775 259.775 103.18L259.772 103.182C257.403 104.567 255.595 106.533 254.345 109.093C253.112 111.66 252.489 114.635 252.489 118.031V118.906C252.489 123.745 254.049 127.641 257.148 130.639C260.248 133.619 264.314 135.125 269.395 135.125C272.1 135.125 274.613 134.607 276.941 133.575C279.149 132.585 280.862 131.292 282.099 129.706L277.925 124.773C275.978 126.931 273.357 128 270.114 128C268 128 266.231 127.431 264.852 126.256C263.482 125.088 262.61 123.491 262.217 121.503L262.099 120.906H283.145V117.312C283.145 112.128 281.794 108.161 279.155 105.342L279.154 105.34C276.515 102.502 272.908 101.062 268.27 101.062ZM259.267 102.319C261.815 100.808 264.823 100.062 268.27 100.062C273.132 100.062 277.024 101.581 279.885 104.658C282.746 107.714 284.145 111.955 284.145 117.312V121.906H263.335C263.735 123.421 264.461 124.609 265.501 125.494C266.663 126.485 268.186 127 270.114 127C273.315 127 275.768 125.888 277.536 123.687L277.916 123.214L283.373 129.664L283.144 129.981C281.771 131.876 279.831 133.375 277.35 134.488L277.348 134.488C274.884 135.581 272.232 136.125 269.395 136.125C264.101 136.125 259.772 134.548 256.455 131.361L256.454 131.359C253.137 128.15 251.489 123.984 251.489 118.906V118.031C251.489 114.511 252.136 111.383 253.444 108.659L253.446 108.656C254.779 105.925 256.721 103.808 259.267 102.319ZM359.04 101.062C354.976 101.062 351.74 102.052 349.287 103.986L349.285 103.988C346.837 105.898 345.634 108.308 345.634 111.25C345.634 112.91 346.057 114.364 346.895 115.63C347.738 116.906 348.975 118.011 350.627 118.938C352.281 119.845 354.399 120.592 356.992 121.168C359.615 121.751 361.466 122.326 362.478 122.911C363.532 123.52 364.134 124.386 364.134 125.5C364.134 126.588 363.701 127.491 362.854 128.17C362.018 128.857 360.811 129.156 359.321 129.156C357.684 129.156 356.294 128.785 355.189 128.002L355.183 127.998C354.14 127.237 353.578 126.098 353.444 124.656H344.586C344.683 126.34 345.277 127.96 346.385 129.523C347.599 131.234 349.296 132.598 351.498 133.608C353.694 134.615 356.205 135.125 359.04 135.125C363.322 135.125 366.753 134.173 369.376 132.311L369.377 132.31C372.008 130.456 373.29 128.092 373.29 125.188C373.29 123.027 372.685 121.228 371.495 119.76C370.3 118.286 368.484 117.108 366.002 116.254C364.51 115.743 362.764 115.301 360.761 114.929C358.744 114.551 357.208 114.057 356.209 113.422C355.175 112.764 354.603 111.857 354.603 110.719C354.603 109.644 355.052 108.744 355.91 108.051C356.761 107.343 357.805 107 359.009 107C360.507 107 361.723 107.355 362.564 108.153C363.31 108.86 363.693 109.852 363.774 111.062H373.341C373.211 108.165 371.938 105.82 369.491 103.994C366.893 102.056 363.425 101.062 359.04 101.062ZM348.67 103.2C351.342 101.093 354.814 100.062 359.04 100.062C363.572 100.062 367.27 101.09 370.089 103.193C372.92 105.305 374.353 108.108 374.353 111.562V112.062H362.79V111.562C362.79 110.292 362.457 109.43 361.876 108.878C361.289 108.322 360.365 108 359.009 108C358.005 108 357.196 108.281 356.548 108.822L356.541 108.827C355.902 109.342 355.603 109.962 355.603 110.719C355.603 111.456 355.947 112.07 356.746 112.578C357.58 113.109 358.962 113.574 360.944 113.946C362.982 114.324 364.778 114.778 366.327 115.308C368.929 116.204 370.926 117.47 372.272 119.13C373.624 120.798 374.29 122.827 374.29 125.188C374.29 128.45 372.822 131.106 369.954 133.127C367.118 135.14 363.467 136.125 359.04 136.125C356.084 136.125 353.427 135.593 351.082 134.517C348.742 133.444 346.898 131.974 345.57 130.102C344.246 128.235 343.571 126.25 343.571 124.156V123.656H354.402L354.415 124.143C354.454 125.594 354.929 126.573 355.77 127.188C356.664 127.82 357.835 128.156 359.321 128.156C360.705 128.156 361.642 127.873 362.222 127.395L362.228 127.391C362.838 126.903 363.134 126.286 363.134 125.5C363.134 124.823 362.798 124.251 361.977 123.777C361.114 123.278 359.403 122.728 356.775 122.144C354.12 121.554 351.905 120.78 350.143 119.813L350.139 119.811C348.376 118.822 347.008 117.615 346.06 116.182C345.106 114.74 344.634 113.09 344.634 111.25C344.634 107.984 345.993 105.289 348.67 103.2ZM145.209 100.688H156.74V123.156C156.74 124.531 157.074 125.469 157.653 126.066C158.23 126.66 159.133 127 160.459 127C162.684 127 164.196 126.235 165.115 124.766V100.688H176.709V135.5H165.875L165.624 132.573C163.389 134.941 160.498 136.125 156.99 136.125C153.183 136.125 150.217 135.02 148.18 132.739L148.176 132.736C146.174 130.447 145.209 127.208 145.209 123.094V100.688ZM146.209 101.688V123.094C146.209 127.061 147.139 130.03 148.927 132.075C150.723 134.084 153.381 135.125 156.99 135.125C160.636 135.125 163.498 133.762 165.627 131.036L166.411 130.032L166.793 134.5H175.709V101.688H166.115V125.043L166.046 125.16C164.915 127.075 163.01 128 160.459 128C158.972 128 157.765 127.616 156.936 126.762C156.109 125.911 155.74 124.678 155.74 123.156V101.688H146.209ZM290.773 100.688H301.923L304.957 119.198L309.832 100.688H317.945L322.767 118.782L325.858 100.688H337.005L328.801 135.5H319.119L313.904 116.794L308.659 135.5H298.978L290.773 100.688ZM292.037 101.688L299.77 134.5H307.901L313.906 113.081L319.878 134.5H328.009L335.742 101.688H326.702L323.367 121.209L322.391 121.254L317.177 101.688H310.603L305.326 121.721L304.349 121.675L301.074 101.688H292.037ZM264.148 109.885C265.172 108.745 266.543 108.188 268.207 108.188C269.968 108.188 271.394 108.685 272.409 109.745C273.425 110.785 273.875 112.231 273.832 114.006V115.312H262.131L262.213 114.742C262.512 112.648 263.14 111.008 264.148 109.885ZM263.295 114.312H272.832V114L272.833 113.988C272.872 112.39 272.468 111.236 271.694 110.443L271.69 110.439C270.913 109.627 269.779 109.188 268.207 109.188C266.788 109.188 265.702 109.651 264.892 110.553C264.148 111.381 263.603 112.619 263.295 114.312Z" fill="#333333" fill-opacity="0.83"/>
</g>
<defs>
<filter id="filter0_d" x="0" y="0" width="405" height="282" filterUnits="userSpaceOnUse" color-interpolation-filters="sRGB">
<feFlood flood-opacity="0" result="BackgroundImageFix"/>
<feColorMatrix in="SourceAlpha" type="matrix" values="0 0 0 0 0 0 0 0 0 0 0 0 0 0 0 0 0 0 127 0"/>
<feOffset dy="4"/>
<feGaussianBlur stdDeviation="2"/>
<feColorMatrix type="matrix" values="0 0 0 0 0 0 0 0 0 0 0 0 0 0 0 0 0 0 0.25 0"/>
<feBlend mode="normal" in2="BackgroundImageFix" result="effect1_dropShadow"/>
<feBlend mode="normal" in="SourceGraphic" in2="effect1_dropShadow" result="shape"/>
</filter>
<linearGradient id="paint0_linear" x1="32.9165" y1="91.1072" x2="32.9165" y2="16.7307" gradientUnits="userSpaceOnUse">
<stop stop-color="#808080" stop-opacity="0.25"/>
<stop offset="0.54" stop-color="#808080" stop-opacity="0.12"/>
<stop offset="1" stop-color="#808080" stop-opacity="0.1"/>
</linearGradient>
<linearGradient id="paint1_linear" x1="3570.43" y1="3062.9" x2="3563.93" y2="2963.74" gradientUnits="userSpaceOnUse">
<stop stop-color="#808080" stop-opacity="0.25"/>
<stop offset="0.54" stop-color="#808080" stop-opacity="0.12"/>
<stop offset="1" stop-color="#808080" stop-opacity="0.1"/>
</linearGradient>
<linearGradient id="paint2_linear" x1="4538.69" y1="2842" x2="4532.19" y2="2742.84" gradientUnits="userSpaceOnUse">
<stop stop-color="#808080" stop-opacity="0.25"/>
<stop offset="0.54" stop-color="#808080" stop-opacity="0.12"/>
<stop offset="1" stop-color="#808080" stop-opacity="0.1"/>
</linearGradient>
<linearGradient id="paint3_linear" x1="10135.2" y1="2768.08" x2="10080.7" y2="2541.09" gradientUnits="userSpaceOnUse">
<stop stop-color="#808080" stop-opacity="0.25"/>
<stop offset="0.54" stop-color="#808080" stop-opacity="0.12"/>
<stop offset="1" stop-color="#808080" stop-opacity="0.1"/>
</linearGradient>
<linearGradient id="paint4_linear" x1="4641.1" y1="4473.2" x2="4659.19" y2="4372.71" gradientUnits="userSpaceOnUse">
<stop stop-color="#808080" stop-opacity="0.25"/>
<stop offset="0.54" stop-color="#808080" stop-opacity="0.12"/>
<stop offset="1" stop-color="#808080" stop-opacity="0.1"/>
</linearGradient>
<linearGradient id="paint5_linear" x1="4297.47" y1="3688.54" x2="4290.97" y2="3589.44" gradientUnits="userSpaceOnUse">
<stop stop-color="#808080" stop-opacity="0.25"/>
<stop offset="0.54" stop-color="#808080" stop-opacity="0.12"/>
<stop offset="1" stop-color="#808080" stop-opacity="0.1"/>
</linearGradient>
<linearGradient id="paint6_linear" x1="10464.9" y1="3145.05" x2="10410.5" y2="2917.97" gradientUnits="userSpaceOnUse">
<stop stop-color="#808080" stop-opacity="0.25"/>
<stop offset="0.54" stop-color="#808080" stop-opacity="0.12"/>
<stop offset="1" stop-color="#808080" stop-opacity="0.1"/>
</linearGradient>
<linearGradient id="paint7_linear" x1="11590.5" y1="4255.79" x2="11536" y2="4028.71" gradientUnits="userSpaceOnUse">
<stop stop-color="#808080" stop-opacity="0.25"/>
<stop offset="0.54" stop-color="#808080" stop-opacity="0.12"/>
<stop offset="1" stop-color="#808080" stop-opacity="0.1"/>
</linearGradient>
<linearGradient id="paint8_linear" x1="15301.2" y1="4576.9" x2="15246.8" y2="4349.91" gradientUnits="userSpaceOnUse">
<stop stop-color="#808080" stop-opacity="0.25"/>
<stop offset="0.54" stop-color="#808080" stop-opacity="0.12"/>
<stop offset="1" stop-color="#808080" stop-opacity="0.1"/>
</linearGradient>
<linearGradient id="paint9_linear" x1="4709.92" y1="5122.95" x2="4728.01" y2="5022.47" gradientUnits="userSpaceOnUse">
<stop stop-color="#808080" stop-opacity="0.25"/>
<stop offset="0.54" stop-color="#808080" stop-opacity="0.12"/>
<stop offset="1" stop-color="#808080" stop-opacity="0.1"/>
</linearGradient>
<linearGradient id="paint10_linear" x1="8314.55" y1="6277.4" x2="8332.65" y2="6176.91" gradientUnits="userSpaceOnUse">
<stop stop-color="#808080" stop-opacity="0.25"/>
<stop offset="0.54" stop-color="#808080" stop-opacity="0.12"/>
<stop offset="1" stop-color="#808080" stop-opacity="0.1"/>
</linearGradient>
<linearGradient id="paint11_linear" x1="8040.92" y1="5257.1" x2="8059" y2="5156.68" gradientUnits="userSpaceOnUse">
<stop stop-color="#808080" stop-opacity="0.25"/>
<stop offset="0.54" stop-color="#808080" stop-opacity="0.12"/>
<stop offset="1" stop-color="#808080" stop-opacity="0.1"/>
</linearGradient>
<linearGradient id="paint12_linear" x1="9796.73" y1="4520.06" x2="9814.83" y2="4419.57" gradientUnits="userSpaceOnUse">
<stop stop-color="#808080" stop-opacity="0.25"/>
<stop offset="0.54" stop-color="#808080" stop-opacity="0.12"/>
<stop offset="1" stop-color="#808080" stop-opacity="0.1"/>
</linearGradient>
<linearGradient id="paint13_linear" x1="3145.46" y1="4412.05" x2="3163.55" y2="4311.56" gradientUnits="userSpaceOnUse">
<stop stop-color="#808080" stop-opacity="0.25"/>
<stop offset="0.54" stop-color="#808080" stop-opacity="0.12"/>
<stop offset="1" stop-color="#808080" stop-opacity="0.1"/>
</linearGradient>
<linearGradient id="paint14_linear" x1="11643.1" y1="4703.88" x2="11627.9" y2="4472.37" gradientUnits="userSpaceOnUse">
<stop stop-color="#808080" stop-opacity="0.25"/>
<stop offset="0.54" stop-color="#808080" stop-opacity="0.12"/>
<stop offset="1" stop-color="#808080" stop-opacity="0.1"/>
</linearGradient>
<linearGradient id="paint15_linear" x1="17592.2" y1="27508" x2="18134.4" y2="26448" gradientUnits="userSpaceOnUse">
<stop stop-color="#808080" stop-opacity="0.25"/>
<stop offset="0.54" stop-color="#808080" stop-opacity="0.12"/>
<stop offset="1" stop-color="#808080" stop-opacity="0.1"/>
</linearGradient>
<linearGradient id="paint16_linear" x1="46117" y1="71146.7" x2="48371.1" y2="66432.2" gradientUnits="userSpaceOnUse">
<stop stop-color="#808080" stop-opacity="0.25"/>
<stop offset="0.54" stop-color="#808080" stop-opacity="0.12"/>
<stop offset="1" stop-color="#808080" stop-opacity="0.1"/>
</linearGradient>
<linearGradient id="paint17_linear" x1="31712.3" y1="12904.1" x2="31700" y2="11676.2" gradientUnits="userSpaceOnUse">
<stop stop-color="#808080" stop-opacity="0.25"/>
<stop offset="0.54" stop-color="#808080" stop-opacity="0.12"/>
<stop offset="1" stop-color="#808080" stop-opacity="0.1"/>
</linearGradient>
<linearGradient id="paint18_linear" x1="34146.2" y1="14804.9" x2="34133.9" y2="13577.1" gradientUnits="userSpaceOnUse">
<stop stop-color="#808080" stop-opacity="0.25"/>
<stop offset="0.54" stop-color="#808080" stop-opacity="0.12"/>
<stop offset="1" stop-color="#808080" stop-opacity="0.1"/>
</linearGradient>
<linearGradient id="paint19_linear" x1="10192.4" y1="5400" x2="10177.3" y2="5168.49" gradientUnits="userSpaceOnUse">
<stop stop-color="#808080" stop-opacity="0.25"/>
<stop offset="0.54" stop-color="#808080" stop-opacity="0.12"/>
<stop offset="1" stop-color="#808080" stop-opacity="0.1"/>
</linearGradient>
<linearGradient id="paint20_linear" x1="12943.7" y1="5194.91" x2="12928.5" y2="4963.4" gradientUnits="userSpaceOnUse">
<stop stop-color="#808080" stop-opacity="0.25"/>
<stop offset="0.54" stop-color="#808080" stop-opacity="0.12"/>
<stop offset="1" stop-color="#808080" stop-opacity="0.1"/>
</linearGradient>
</defs>
</svg>
